M48
;GenerationSoftware,Autodesk,EAGLE,9.5.0*%
;CreationDate,2019-10-29T18:47:15Z*%
FMAT,2
ICI,OFF
METRIC,TZ,000.000
T8C0.350
T7C0.650
T6C0.700
T5C0.800
T4C0.813
T3C1.000
T2C1.016
T1C1.118
%
G90
M71
T1
X10160Y20320
X15240Y20320
X17780Y20320
X20320Y20320
X12700Y20320
X12700Y27940
X2540Y20320
X5080Y20320
X7620Y20320
X0Y20320
X0Y27940
X2540Y27940
X5080Y27940
X7620Y27940
X10160Y27940
X15240Y27940
X17780Y27940
X20320Y27940
T2
X27254Y51206
X1651Y66040
X11430Y63500
X1651Y60960
X27254Y55728
X8890Y63500
X1651Y58420
X1651Y63500
X26670Y63500
X24130Y63500
X21590Y63500
X19050Y63500
X16510Y63500
X13970Y63500
X20752Y55728
X20752Y51206
X29210Y63500
X31750Y63500
T3
X34290Y7620
X-2540Y7620
X-2540Y69850
X41910Y69850
X3810Y-16510
X3810Y-2540
X21590Y3810
X21590Y-16510
T4
X13335Y2540
X19050Y2540
X20955Y1270
X19050Y0
X15240Y1270
X13335Y0
T5
X40640Y55400
X40640Y58900
X40640Y51280
X40640Y63020
X40640Y32540
X40640Y36040
X40640Y43660
X40640Y40160
X27912Y10160
X24412Y10160
X40640Y17300
X40640Y47780
X40640Y20800
X40640Y24920
X40640Y28420
X40640Y66520
X40640Y9680
X40640Y13180
X-1270Y-480
X-1270Y3020
X-1270Y-8100
X-1270Y-4600
X-1270Y-15720
X-1270Y-12220
T6
X23114Y34290
X3048Y12700
X5588Y12700
X18649Y-12319
X25654Y34290
X16149Y-12319
T7
X27940Y36830
T8
X1778Y31750
X13970Y34290
X15240Y53340
X8890Y59563
M30