G04 EAGLE Gerber RS-274X export*
G75*
%MOMM*%
%FSLAX34Y34*%
%LPD*%
%INSoldermask Bottom*%
%IPPOS*%
%AMOC8*
5,1,8,0,0,1.08239X$1,22.5*%
G01*
%ADD10C,1.203200*%
%ADD11C,2.743200*%
%ADD12C,1.727200*%
%ADD13C,1.854200*%
%ADD14R,1.854200X1.854200*%
%ADD15R,1.879600X1.879600*%
%ADD16C,1.879600*%
%ADD17P,1.649562X8X292.500000*%
%ADD18C,0.959600*%
%ADD19C,1.259600*%


D10*
X-25400Y698500D03*
X419100Y698500D03*
X-25400Y76200D03*
X342900Y76200D03*
X215900Y-165100D03*
X38100Y-25400D03*
X38100Y-165100D03*
X215900Y38100D03*
D11*
X244120Y101600D03*
X279120Y101600D03*
D12*
X215138Y557276D02*
X199898Y557276D01*
X199898Y512064D02*
X215138Y512064D01*
X264922Y557276D02*
X280162Y557276D01*
X280162Y512064D02*
X264922Y512064D01*
X24130Y660400D02*
X8890Y660400D01*
X8890Y635000D02*
X24130Y635000D01*
X24130Y609600D02*
X8890Y609600D01*
X8890Y584200D02*
X24130Y584200D01*
D13*
X55880Y127000D03*
D14*
X30480Y127000D03*
D13*
X231140Y342900D03*
D14*
X256540Y342900D03*
D11*
X406400Y401600D03*
X406400Y436600D03*
X406400Y360400D03*
X406400Y325400D03*
X406400Y630200D03*
X406400Y665200D03*
X406400Y589000D03*
X406400Y554000D03*
X406400Y131800D03*
X406400Y96800D03*
X406400Y284200D03*
X406400Y249200D03*
X406400Y208000D03*
X406400Y173000D03*
X406400Y477800D03*
X406400Y512800D03*
D15*
X203200Y279400D03*
D16*
X177800Y279400D03*
X152400Y279400D03*
X127000Y279400D03*
X101600Y279400D03*
X76200Y279400D03*
X50800Y279400D03*
X25400Y279400D03*
X0Y279400D03*
X0Y203200D03*
X25400Y203200D03*
X50800Y203200D03*
X76200Y203200D03*
X101600Y203200D03*
X127000Y203200D03*
X152400Y203200D03*
X177800Y203200D03*
X203200Y203200D03*
D12*
X88900Y627380D02*
X88900Y642620D01*
X114300Y642620D02*
X114300Y627380D01*
X139700Y627380D02*
X139700Y642620D01*
X165100Y642620D02*
X165100Y627380D01*
X190500Y627380D02*
X190500Y642620D01*
X215900Y642620D02*
X215900Y627380D01*
X241300Y627380D02*
X241300Y642620D01*
X266700Y642620D02*
X266700Y627380D01*
X292100Y627380D02*
X292100Y642620D01*
X317500Y642620D02*
X317500Y627380D01*
D17*
X190500Y25400D03*
X209550Y12700D03*
X190500Y0D03*
X133350Y25400D03*
X152400Y12700D03*
X133350Y0D03*
D11*
X-12700Y-4800D03*
X-12700Y30200D03*
X-12700Y-81000D03*
X-12700Y-46000D03*
X-12700Y-157200D03*
X-12700Y-122200D03*
D14*
X161490Y-123190D03*
D13*
X186490Y-123190D03*
D18*
X152400Y533400D03*
D19*
X279400Y368300D03*
D18*
X88900Y595630D03*
X17780Y317500D03*
X139700Y342900D03*
M02*
