G04 EAGLE Gerber RS-274X export*
G75*
%MOMM*%
%FSLAX34Y34*%
%LPD*%
%INSoldermask Top*%
%IPPOS*%
%AMOC8*
5,1,8,0,0,1.08239X$1,22.5*%
G01*
%ADD10C,1.203200*%
%ADD11R,1.303200X1.203200*%
%ADD12R,1.403200X2.203200*%
%ADD13R,2.203200X1.403200*%
%ADD14R,1.203200X1.303200*%
%ADD15C,2.743200*%
%ADD16C,1.727200*%
%ADD17R,1.422200X2.438200*%
%ADD18R,3.803200X2.403200*%
%ADD19C,1.854200*%
%ADD20R,1.854200X1.854200*%
%ADD21R,1.879600X1.879600*%
%ADD22C,1.879600*%
%ADD23C,0.519681*%
%ADD24R,1.503200X1.703200*%
%ADD25P,1.649562X8X292.500000*%
%ADD26R,1.703200X1.503200*%
%ADD27R,1.903200X2.003200*%
%ADD28C,0.959600*%
%ADD29C,1.259600*%


D10*
X-25400Y698500D03*
X419100Y698500D03*
X-25400Y76200D03*
X342900Y76200D03*
X215900Y-165100D03*
X38100Y-25400D03*
X38100Y-165100D03*
X215900Y38100D03*
D11*
X31750Y321700D03*
X31750Y338700D03*
D12*
X132400Y368300D03*
X112400Y368300D03*
X92400Y368300D03*
X72400Y368300D03*
X52400Y368300D03*
X32400Y368300D03*
X12400Y368300D03*
X-7600Y368300D03*
X132400Y530300D03*
X112400Y530300D03*
X92400Y530300D03*
X72400Y530300D03*
X52400Y530300D03*
X32400Y530300D03*
X12400Y530300D03*
X-7600Y530300D03*
D13*
X152400Y478300D03*
X152400Y398300D03*
X152400Y418300D03*
X152400Y498300D03*
X152400Y438300D03*
X152400Y458300D03*
D14*
X115960Y572770D03*
X132960Y572770D03*
D11*
X92710Y581270D03*
X92710Y564270D03*
D14*
X248040Y486410D03*
X265040Y486410D03*
D15*
X244120Y101600D03*
X279120Y101600D03*
D16*
X215138Y557276D02*
X199898Y557276D01*
X199898Y512064D02*
X215138Y512064D01*
X264922Y557276D02*
X280162Y557276D01*
X280162Y512064D02*
X264922Y512064D01*
X24130Y660400D02*
X8890Y660400D01*
X8890Y635000D02*
X24130Y635000D01*
X24130Y609600D02*
X8890Y609600D01*
X8890Y584200D02*
X24130Y584200D01*
D17*
X230890Y397000D03*
X254000Y397000D03*
X277110Y397000D03*
D18*
X254000Y458980D03*
D19*
X55880Y127000D03*
D20*
X30480Y127000D03*
D19*
X231140Y342900D03*
D20*
X256540Y342900D03*
D15*
X406400Y401600D03*
X406400Y436600D03*
X406400Y360400D03*
X406400Y325400D03*
X406400Y630200D03*
X406400Y665200D03*
X406400Y589000D03*
X406400Y554000D03*
X406400Y131800D03*
X406400Y96800D03*
X406400Y284200D03*
X406400Y249200D03*
X406400Y208000D03*
X406400Y173000D03*
X406400Y477800D03*
X406400Y512800D03*
D21*
X203200Y279400D03*
D22*
X177800Y279400D03*
X152400Y279400D03*
X127000Y279400D03*
X101600Y279400D03*
X76200Y279400D03*
X50800Y279400D03*
X25400Y279400D03*
X0Y279400D03*
X0Y203200D03*
X25400Y203200D03*
X50800Y203200D03*
X76200Y203200D03*
X101600Y203200D03*
X127000Y203200D03*
X152400Y203200D03*
X177800Y203200D03*
X203200Y203200D03*
D16*
X88900Y627380D02*
X88900Y642620D01*
X114300Y642620D02*
X114300Y627380D01*
X139700Y627380D02*
X139700Y642620D01*
X165100Y642620D02*
X165100Y627380D01*
X190500Y627380D02*
X190500Y642620D01*
X215900Y642620D02*
X215900Y627380D01*
X241300Y627380D02*
X241300Y642620D01*
X266700Y642620D02*
X266700Y627380D01*
X292100Y627380D02*
X292100Y642620D01*
X317500Y642620D02*
X317500Y627380D01*
D23*
X53028Y1593D02*
X43492Y1593D01*
X53028Y1593D02*
X53028Y-1593D01*
X43492Y-1593D01*
X43492Y1593D01*
X43492Y26993D02*
X53028Y26993D01*
X53028Y23807D01*
X43492Y23807D01*
X43492Y26993D01*
X99372Y26993D02*
X108908Y26993D01*
X108908Y23807D01*
X99372Y23807D01*
X99372Y26993D01*
X99372Y1593D02*
X108908Y1593D01*
X108908Y-1593D01*
X99372Y-1593D01*
X99372Y1593D01*
D24*
X90830Y-157480D03*
X109830Y-157480D03*
D25*
X190500Y25400D03*
X209550Y12700D03*
X190500Y0D03*
X133350Y25400D03*
X152400Y12700D03*
X133350Y0D03*
D26*
X152400Y-73000D03*
X152400Y-54000D03*
D24*
X186080Y-72390D03*
X205080Y-72390D03*
D26*
X114300Y-104800D03*
X114300Y-123800D03*
D15*
X-12700Y-4800D03*
X-12700Y30200D03*
X-12700Y-81000D03*
X-12700Y-46000D03*
X-12700Y-157200D03*
X-12700Y-122200D03*
D20*
X161490Y-123190D03*
D19*
X186490Y-123190D03*
D27*
X63500Y-122100D03*
X63500Y-81100D03*
D11*
X25400Y249800D03*
X25400Y232800D03*
X76200Y249800D03*
X76200Y232800D03*
X127000Y249800D03*
X127000Y232800D03*
X177800Y249800D03*
X177800Y232800D03*
D14*
X321700Y114300D03*
X338700Y114300D03*
D28*
X152400Y533400D03*
D29*
X279400Y368300D03*
D28*
X88900Y595630D03*
X17780Y317500D03*
X139700Y342900D03*
M02*
