G04 EAGLE Gerber RS-274X export*
G75*
%MOMM*%
%FSLAX34Y34*%
%LPD*%
%INSolderpaste Top*%
%IPPOS*%
%AMOC8*
5,1,8,0,0,1.08239X$1,22.5*%
G01*
%ADD10R,1.100000X1.000000*%
%ADD11R,1.200000X2.000000*%
%ADD12R,2.000000X1.200000*%
%ADD13R,1.000000X1.100000*%
%ADD14R,1.219000X2.235000*%
%ADD15R,3.600000X2.200000*%
%ADD16C,0.317500*%
%ADD17R,1.300000X1.500000*%
%ADD18R,1.500000X1.300000*%
%ADD19R,1.700000X1.800000*%


D10*
X31750Y321700D03*
X31750Y338700D03*
D11*
X132400Y368300D03*
X112400Y368300D03*
X92400Y368300D03*
X72400Y368300D03*
X52400Y368300D03*
X32400Y368300D03*
X12400Y368300D03*
X-7600Y368300D03*
X132400Y530300D03*
X112400Y530300D03*
X92400Y530300D03*
X72400Y530300D03*
X52400Y530300D03*
X32400Y530300D03*
X12400Y530300D03*
X-7600Y530300D03*
D12*
X152400Y478300D03*
X152400Y398300D03*
X152400Y418300D03*
X152400Y498300D03*
X152400Y438300D03*
X152400Y458300D03*
D13*
X115960Y572770D03*
X132960Y572770D03*
D10*
X92710Y581270D03*
X92710Y564270D03*
D13*
X248040Y486410D03*
X265040Y486410D03*
D14*
X230890Y397000D03*
X254000Y397000D03*
X277110Y397000D03*
D15*
X254000Y458980D03*
D16*
X53023Y1588D02*
X43497Y1588D01*
X53023Y1588D02*
X53023Y-1588D01*
X43497Y-1588D01*
X43497Y1588D01*
X43497Y1428D02*
X53023Y1428D01*
X53023Y26988D02*
X43497Y26988D01*
X53023Y26988D02*
X53023Y23812D01*
X43497Y23812D01*
X43497Y26988D01*
X43497Y26828D02*
X53023Y26828D01*
X99377Y26988D02*
X108903Y26988D01*
X108903Y23812D01*
X99377Y23812D01*
X99377Y26988D01*
X99377Y26828D02*
X108903Y26828D01*
X108903Y1588D02*
X99377Y1588D01*
X108903Y1588D02*
X108903Y-1588D01*
X99377Y-1588D01*
X99377Y1588D01*
X99377Y1428D02*
X108903Y1428D01*
D17*
X90830Y-157480D03*
X109830Y-157480D03*
D18*
X152400Y-73000D03*
X152400Y-54000D03*
D17*
X186080Y-72390D03*
X205080Y-72390D03*
D18*
X114300Y-104800D03*
X114300Y-123800D03*
D19*
X63500Y-122100D03*
X63500Y-81100D03*
D10*
X25400Y249800D03*
X25400Y232800D03*
X76200Y249800D03*
X76200Y232800D03*
X127000Y249800D03*
X127000Y232800D03*
X177800Y249800D03*
X177800Y232800D03*
D13*
X321700Y114300D03*
X338700Y114300D03*
M02*
