%TF.GenerationSoftware,KiCad,Pcbnew,10.0.1*%
%TF.CreationDate,2026-06-17T13:00:44+01:00*%
%TF.ProjectId,ESP32C6_Wall_Input_Module,45535033-3243-4365-9f57-616c6c5f496e,rev?*%
%TF.SameCoordinates,Original*%
%TF.FileFunction,Copper,L1,Top*%
%TF.FilePolarity,Positive*%
%FSLAX46Y46*%
G04 Gerber Fmt 4.6, Leading zero omitted, Abs format (unit mm)*
G04 Created by KiCad (PCBNEW 10.0.1) date 2026-06-17 13:00:44*
%MOMM*%
%LPD*%
G01*
G04 APERTURE LIST*
G04 Aperture macros list*
%AMRoundRect*
0 Rectangle with rounded corners*
0 $1 Rounding radius*
0 $2 $3 $4 $5 $6 $7 $8 $9 X,Y pos of 4 corners*
0 Add a 4 corners polygon primitive as box body*
4,1,4,$2,$3,$4,$5,$6,$7,$8,$9,$2,$3,0*
0 Add four circle primitives for the rounded corners*
1,1,$1+$1,$2,$3*
1,1,$1+$1,$4,$5*
1,1,$1+$1,$6,$7*
1,1,$1+$1,$8,$9*
0 Add four rect primitives between the rounded corners*
20,1,$1+$1,$2,$3,$4,$5,0*
20,1,$1+$1,$4,$5,$6,$7,0*
20,1,$1+$1,$6,$7,$8,$9,0*
20,1,$1+$1,$8,$9,$2,$3,0*%
G04 Aperture macros list end*
%TA.AperFunction,ComponentPad*%
%ADD10R,1.000000X1.000000*%
%TD*%
%TA.AperFunction,ComponentPad*%
%ADD11C,1.000000*%
%TD*%
%TA.AperFunction,ComponentPad*%
%ADD12C,2.000000*%
%TD*%
%TA.AperFunction,SMDPad,CuDef*%
%ADD13RoundRect,0.243750X-0.243750X-0.456250X0.243750X-0.456250X0.243750X0.456250X-0.243750X0.456250X0*%
%TD*%
%TA.AperFunction,ComponentPad*%
%ADD14C,1.600000*%
%TD*%
%TA.AperFunction,ComponentPad*%
%ADD15RoundRect,0.250000X-1.050000X-1.050000X1.050000X-1.050000X1.050000X1.050000X-1.050000X1.050000X0*%
%TD*%
%TA.AperFunction,ComponentPad*%
%ADD16C,2.600000*%
%TD*%
%TA.AperFunction,ComponentPad*%
%ADD17RoundRect,0.250000X-0.600000X-0.750000X0.600000X-0.750000X0.600000X0.750000X-0.600000X0.750000X0*%
%TD*%
%TA.AperFunction,ComponentPad*%
%ADD18O,1.700000X2.000000*%
%TD*%
%TA.AperFunction,SMDPad,CuDef*%
%ADD19RoundRect,0.250000X-0.262500X-0.450000X0.262500X-0.450000X0.262500X0.450000X-0.262500X0.450000X0*%
%TD*%
%TA.AperFunction,ViaPad*%
%ADD20C,0.600000*%
%TD*%
%TA.AperFunction,Conductor*%
%ADD21C,0.200000*%
%TD*%
%TA.AperFunction,Conductor*%
%ADD22C,1.000000*%
%TD*%
G04 APERTURE END LIST*
D10*
%TO.P,J3,1*%
%TO.N,+3V3*%
X143400000Y-126500000D03*
D11*
%TO.P,J3,2*%
%TO.N,GND*%
X143400000Y-127770000D03*
%TO.P,J3,3*%
%TO.N,/TXD0*%
X143400000Y-129040000D03*
%TO.P,J3,4*%
%TO.N,/RXD0*%
X143400000Y-130310000D03*
%TO.P,J3,5*%
%TO.N,/EN*%
X143400000Y-131580000D03*
%TO.P,J3,6*%
%TO.N,/IO9*%
X143400000Y-132850000D03*
%TD*%
D12*
%TO.P,F1,1*%
%TO.N,/L*%
X113500000Y-103200000D03*
%TO.P,F1,2*%
%TO.N,Net-(U1-AC{slash}L)*%
X118580000Y-103210000D03*
%TD*%
D13*
%TO.P,LED1,1*%
%TO.N,Net-(LED1-K)*%
X141562500Y-112300000D03*
%TO.P,LED1,2*%
%TO.N,+3V3*%
X143437500Y-112300000D03*
%TD*%
D14*
%TO.P,RV1,1*%
%TO.N,Net-(U1-AC{slash}L)*%
X117800000Y-108350000D03*
%TO.P,RV1,2*%
%TO.N,/N*%
X112800000Y-107050000D03*
%TD*%
D15*
%TO.P,J1,1*%
%TO.N,/N*%
X103060000Y-105800000D03*
D16*
%TO.P,J1,2*%
%TO.N,/L*%
X108140000Y-105800000D03*
%TD*%
D17*
%TO.P,U1,1*%
%TO.N,Net-(U1-AC{slash}L)*%
X104500000Y-120800000D03*
D18*
%TO.P,U1,2*%
%TO.N,/N*%
X104500000Y-125800000D03*
%TO.P,U1,3*%
%TO.N,GND*%
X133580000Y-115800000D03*
%TO.P,U1,4*%
%TO.N,+5V*%
X133580000Y-130800000D03*
%TD*%
D15*
%TO.P,J2,1*%
%TO.N,/SW1*%
X128000000Y-105800000D03*
D16*
%TO.P,J2,2*%
%TO.N,/SW2*%
X133080000Y-105800000D03*
%TO.P,J2,3*%
%TO.N,GND*%
X138160000Y-105800000D03*
%TD*%
D19*
%TO.P,R2,1*%
%TO.N,Net-(LED1-K)*%
X141587500Y-115300000D03*
%TO.P,R2,2*%
%TO.N,/STATUS_LED*%
X143412500Y-115300000D03*
%TD*%
D20*
%TO.N,+3V3*%
X140428300Y-125536800D03*
%TO.N,GND*%
X129881700Y-118139700D03*
%TO.N,/TXD0*%
X125380000Y-121935300D03*
%TO.N,/RXD0*%
X123380000Y-125956100D03*
%TO.N,/EN*%
X123789800Y-126941800D03*
%TO.N,/IO9*%
X117098700Y-122972200D03*
%TO.N,/SW1*%
X126600000Y-112712500D03*
%TO.N,/STATUS_LED*%
X130662300Y-121149600D03*
%TO.N,/SW2_IN*%
X114930900Y-122611600D03*
X131978000Y-115214700D03*
%TD*%
%TO.N,+3V3*%
D21*
X144236400Y-124861900D02*
X143400000Y-125698300D01*
X140428300Y-125536800D02*
X141635100Y-125536800D01*
X143437500Y-112300000D02*
X144236400Y-113098900D01*
X143400000Y-126500000D02*
X142598300Y-126500000D01*
X144236400Y-113098900D02*
X144236400Y-124861900D01*
X141635100Y-125536800D02*
X142598300Y-126500000D01*
X143400000Y-126500000D02*
X143400000Y-125698300D01*
%TO.N,GND*%
X134731700Y-109228300D02*
X138160000Y-105800000D01*
X132428300Y-115800000D02*
X130088600Y-118139700D01*
X134731700Y-115800000D02*
X134731700Y-109228300D01*
X133580000Y-115800000D02*
X134731700Y-115800000D01*
X133580000Y-115800000D02*
X132428300Y-115800000D01*
X130088600Y-118139700D02*
X129881700Y-118139700D01*
%TO.N,/TXD0*%
X135976000Y-121935300D02*
X143080700Y-129040000D01*
X125380000Y-121935300D02*
X135976000Y-121935300D01*
X143080700Y-129040000D02*
X143400000Y-129040000D01*
%TO.N,/RXD0*%
X139046100Y-125956100D02*
X123380000Y-125956100D01*
X143400000Y-130310000D02*
X139046100Y-125956100D01*
%TO.N,/EN*%
X143400000Y-131580000D02*
X138761800Y-126941800D01*
X138761800Y-126941800D02*
X123789800Y-126941800D01*
%TO.N,/IO9*%
X143400000Y-132850000D02*
X126976500Y-132850000D01*
X126976500Y-132850000D02*
X117098700Y-122972200D01*
%TO.N,/L*%
D22*
X108140000Y-105800000D02*
X108140000Y-104860000D01*
X109800000Y-103200000D02*
X113500000Y-103200000D01*
X108140000Y-105800000D02*
X108140000Y-104860000D01*
X108140000Y-104860000D02*
X109800000Y-103200000D01*
X109800000Y-103200000D02*
X113500000Y-103200000D01*
%TO.N,Net-(U1-AC{slash}L)*%
X106000000Y-111000000D02*
X115150000Y-111000000D01*
X118580000Y-107570000D02*
X117800000Y-108350000D01*
X106000000Y-111000000D02*
X115150000Y-111000000D01*
X118580000Y-107570000D02*
X117800000Y-108350000D01*
X104500000Y-112500000D02*
X106000000Y-111000000D01*
X118580000Y-103210000D02*
X118580000Y-107570000D01*
X115150000Y-111000000D02*
X117800000Y-108350000D01*
X104500000Y-120800000D02*
X104500000Y-112500000D01*
X115150000Y-111000000D02*
X117800000Y-108350000D01*
X104500000Y-120800000D02*
X104500000Y-112500000D01*
%TO.N,Net-(LED1-K)*%
D21*
X141562500Y-115275000D02*
X141562500Y-112300000D01*
X141587500Y-115300000D02*
X141562500Y-115275000D01*
%TO.N,/N*%
D22*
X111000000Y-108850000D02*
X111000000Y-109000000D01*
X105000000Y-109000000D02*
X105000000Y-107740000D01*
X102000000Y-124000000D02*
X102000000Y-106860000D01*
X102000000Y-124000000D02*
X102000000Y-106860000D01*
X111000000Y-108850000D02*
X111000000Y-109000000D01*
X105000000Y-109000000D02*
X105000000Y-107740000D01*
X104500000Y-125800000D02*
X103800000Y-125800000D01*
X102000000Y-106860000D02*
X103060000Y-105800000D01*
X105000000Y-107740000D02*
X103060000Y-105800000D01*
X111000000Y-109000000D02*
X105000000Y-109000000D01*
X112800000Y-107050000D02*
X111000000Y-108850000D01*
X103800000Y-125800000D02*
X102000000Y-124000000D01*
X104500000Y-125800000D02*
X103800000Y-125800000D01*
X112800000Y-107050000D02*
X111000000Y-108850000D01*
X102000000Y-106860000D02*
X103060000Y-105800000D01*
X105000000Y-107740000D02*
X103060000Y-105800000D01*
%TO.N,/SW1*%
D21*
X128000000Y-105800000D02*
X128000000Y-111312500D01*
X128000000Y-111312500D02*
X126600000Y-112712500D01*
%TO.N,/STATUS_LED*%
X130662300Y-121149600D02*
X137562900Y-121149600D01*
X137562900Y-121149600D02*
X143412500Y-115300000D01*
%TO.N,/SW2_IN*%
X122327800Y-115214700D02*
X114930900Y-122611600D01*
X131978000Y-115214700D02*
X122327800Y-115214700D01*
%TD*%
M02*
