%TF.GenerationSoftware,KiCad,Pcbnew,10.0.1*%
%TF.CreationDate,2026-06-17T13:00:44+01:00*%
%TF.ProjectId,ESP32C6_Wall_Input_Module,45535033-3243-4365-9f57-616c6c5f496e,rev?*%
%TF.SameCoordinates,Original*%
%TF.FileFunction,Legend,Bot*%
%TF.FilePolarity,Positive*%
%FSLAX46Y46*%
G04 Gerber Fmt 4.6, Leading zero omitted, Abs format (unit mm)*
G04 Created by KiCad (PCBNEW 10.0.1) date 2026-06-17 13:00:44*
%MOMM*%
%LPD*%
G01*
G04 APERTURE LIST*
%ADD10C,0.150000*%
%ADD11C,0.101600*%
%ADD12C,0.120000*%
%ADD13C,0.127000*%
G04 APERTURE END LIST*
D10*
X112514285Y-101394271D02*
X112471428Y-101351414D01*
X112471428Y-101351414D02*
X112385714Y-101308557D01*
X112385714Y-101308557D02*
X112171428Y-101308557D01*
X112171428Y-101308557D02*
X112085714Y-101351414D01*
X112085714Y-101351414D02*
X112042856Y-101394271D01*
X112042856Y-101394271D02*
X111999999Y-101479985D01*
X111999999Y-101479985D02*
X111999999Y-101565700D01*
X111999999Y-101565700D02*
X112042856Y-101694271D01*
X112042856Y-101694271D02*
X112557142Y-102208557D01*
X112557142Y-102208557D02*
X111999999Y-102208557D01*
X111699999Y-101308557D02*
X111142856Y-101308557D01*
X111142856Y-101308557D02*
X111442856Y-101651414D01*
X111442856Y-101651414D02*
X111314285Y-101651414D01*
X111314285Y-101651414D02*
X111228571Y-101694271D01*
X111228571Y-101694271D02*
X111185713Y-101737128D01*
X111185713Y-101737128D02*
X111142856Y-101822842D01*
X111142856Y-101822842D02*
X111142856Y-102037128D01*
X111142856Y-102037128D02*
X111185713Y-102122842D01*
X111185713Y-102122842D02*
X111228571Y-102165700D01*
X111228571Y-102165700D02*
X111314285Y-102208557D01*
X111314285Y-102208557D02*
X111571428Y-102208557D01*
X111571428Y-102208557D02*
X111657142Y-102165700D01*
X111657142Y-102165700D02*
X111699999Y-102122842D01*
X110585713Y-101308557D02*
X110499999Y-101308557D01*
X110499999Y-101308557D02*
X110414285Y-101351414D01*
X110414285Y-101351414D02*
X110371428Y-101394271D01*
X110371428Y-101394271D02*
X110328570Y-101479985D01*
X110328570Y-101479985D02*
X110285713Y-101651414D01*
X110285713Y-101651414D02*
X110285713Y-101865700D01*
X110285713Y-101865700D02*
X110328570Y-102037128D01*
X110328570Y-102037128D02*
X110371428Y-102122842D01*
X110371428Y-102122842D02*
X110414285Y-102165700D01*
X110414285Y-102165700D02*
X110499999Y-102208557D01*
X110499999Y-102208557D02*
X110585713Y-102208557D01*
X110585713Y-102208557D02*
X110671428Y-102165700D01*
X110671428Y-102165700D02*
X110714285Y-102122842D01*
X110714285Y-102122842D02*
X110757142Y-102037128D01*
X110757142Y-102037128D02*
X110799999Y-101865700D01*
X110799999Y-101865700D02*
X110799999Y-101651414D01*
X110799999Y-101651414D02*
X110757142Y-101479985D01*
X110757142Y-101479985D02*
X110714285Y-101394271D01*
X110714285Y-101394271D02*
X110671428Y-101351414D01*
X110671428Y-101351414D02*
X110585713Y-101308557D01*
X110028570Y-101308557D02*
X109728570Y-102208557D01*
X109728570Y-102208557D02*
X109428570Y-101308557D01*
X109257141Y-101865700D02*
X109214284Y-101822842D01*
X109214284Y-101822842D02*
X109128570Y-101779985D01*
X109128570Y-101779985D02*
X108957141Y-101865700D01*
X108957141Y-101865700D02*
X108871427Y-101822842D01*
X108871427Y-101822842D02*
X108828570Y-101779985D01*
X107799999Y-102208557D02*
X107799999Y-101308557D01*
X107799999Y-101308557D02*
X107457142Y-101308557D01*
X107457142Y-101308557D02*
X107371427Y-101351414D01*
X107371427Y-101351414D02*
X107328570Y-101394271D01*
X107328570Y-101394271D02*
X107285713Y-101479985D01*
X107285713Y-101479985D02*
X107285713Y-101608557D01*
X107285713Y-101608557D02*
X107328570Y-101694271D01*
X107328570Y-101694271D02*
X107371427Y-101737128D01*
X107371427Y-101737128D02*
X107457142Y-101779985D01*
X107457142Y-101779985D02*
X107799999Y-101779985D01*
X106385713Y-102208557D02*
X106685713Y-101779985D01*
X106899999Y-102208557D02*
X106899999Y-101308557D01*
X106899999Y-101308557D02*
X106557142Y-101308557D01*
X106557142Y-101308557D02*
X106471427Y-101351414D01*
X106471427Y-101351414D02*
X106428570Y-101394271D01*
X106428570Y-101394271D02*
X106385713Y-101479985D01*
X106385713Y-101479985D02*
X106385713Y-101608557D01*
X106385713Y-101608557D02*
X106428570Y-101694271D01*
X106428570Y-101694271D02*
X106471427Y-101737128D01*
X106471427Y-101737128D02*
X106557142Y-101779985D01*
X106557142Y-101779985D02*
X106899999Y-101779985D01*
X105999999Y-102208557D02*
X105999999Y-101308557D01*
X105571428Y-102208557D02*
X105571428Y-101308557D01*
X105571428Y-101308557D02*
X105271428Y-101951414D01*
X105271428Y-101951414D02*
X104971428Y-101308557D01*
X104971428Y-101308557D02*
X104971428Y-102208557D01*
X104585714Y-101951414D02*
X104157143Y-101951414D01*
X104671428Y-102208557D02*
X104371428Y-101308557D01*
X104371428Y-101308557D02*
X104071428Y-102208557D01*
X103257142Y-102208557D02*
X103557142Y-101779985D01*
X103771428Y-102208557D02*
X103771428Y-101308557D01*
X103771428Y-101308557D02*
X103428571Y-101308557D01*
X103428571Y-101308557D02*
X103342856Y-101351414D01*
X103342856Y-101351414D02*
X103299999Y-101394271D01*
X103299999Y-101394271D02*
X103257142Y-101479985D01*
X103257142Y-101479985D02*
X103257142Y-101608557D01*
X103257142Y-101608557D02*
X103299999Y-101694271D01*
X103299999Y-101694271D02*
X103342856Y-101737128D01*
X103342856Y-101737128D02*
X103428571Y-101779985D01*
X103428571Y-101779985D02*
X103771428Y-101779985D01*
X102699999Y-101779985D02*
X102699999Y-102208557D01*
X102999999Y-101308557D02*
X102699999Y-101779985D01*
X102699999Y-101779985D02*
X102399999Y-101308557D01*
X127314285Y-109337128D02*
X127014285Y-109337128D01*
X126885713Y-109808557D02*
X127314285Y-109808557D01*
X127314285Y-109808557D02*
X127314285Y-108908557D01*
X127314285Y-108908557D02*
X126885713Y-108908557D01*
X126542856Y-109765700D02*
X126414285Y-109808557D01*
X126414285Y-109808557D02*
X126199999Y-109808557D01*
X126199999Y-109808557D02*
X126114285Y-109765700D01*
X126114285Y-109765700D02*
X126071427Y-109722842D01*
X126071427Y-109722842D02*
X126028570Y-109637128D01*
X126028570Y-109637128D02*
X126028570Y-109551414D01*
X126028570Y-109551414D02*
X126071427Y-109465700D01*
X126071427Y-109465700D02*
X126114285Y-109422842D01*
X126114285Y-109422842D02*
X126199999Y-109379985D01*
X126199999Y-109379985D02*
X126371427Y-109337128D01*
X126371427Y-109337128D02*
X126457142Y-109294271D01*
X126457142Y-109294271D02*
X126499999Y-109251414D01*
X126499999Y-109251414D02*
X126542856Y-109165700D01*
X126542856Y-109165700D02*
X126542856Y-109079985D01*
X126542856Y-109079985D02*
X126499999Y-108994271D01*
X126499999Y-108994271D02*
X126457142Y-108951414D01*
X126457142Y-108951414D02*
X126371427Y-108908557D01*
X126371427Y-108908557D02*
X126157142Y-108908557D01*
X126157142Y-108908557D02*
X126028570Y-108951414D01*
X125642856Y-109808557D02*
X125642856Y-108908557D01*
X125642856Y-108908557D02*
X125299999Y-108908557D01*
X125299999Y-108908557D02*
X125214284Y-108951414D01*
X125214284Y-108951414D02*
X125171427Y-108994271D01*
X125171427Y-108994271D02*
X125128570Y-109079985D01*
X125128570Y-109079985D02*
X125128570Y-109208557D01*
X125128570Y-109208557D02*
X125171427Y-109294271D01*
X125171427Y-109294271D02*
X125214284Y-109337128D01*
X125214284Y-109337128D02*
X125299999Y-109379985D01*
X125299999Y-109379985D02*
X125642856Y-109379985D01*
X124828570Y-108908557D02*
X124271427Y-108908557D01*
X124271427Y-108908557D02*
X124571427Y-109251414D01*
X124571427Y-109251414D02*
X124442856Y-109251414D01*
X124442856Y-109251414D02*
X124357142Y-109294271D01*
X124357142Y-109294271D02*
X124314284Y-109337128D01*
X124314284Y-109337128D02*
X124271427Y-109422842D01*
X124271427Y-109422842D02*
X124271427Y-109637128D01*
X124271427Y-109637128D02*
X124314284Y-109722842D01*
X124314284Y-109722842D02*
X124357142Y-109765700D01*
X124357142Y-109765700D02*
X124442856Y-109808557D01*
X124442856Y-109808557D02*
X124699999Y-109808557D01*
X124699999Y-109808557D02*
X124785713Y-109765700D01*
X124785713Y-109765700D02*
X124828570Y-109722842D01*
X123928570Y-108994271D02*
X123885713Y-108951414D01*
X123885713Y-108951414D02*
X123799999Y-108908557D01*
X123799999Y-108908557D02*
X123585713Y-108908557D01*
X123585713Y-108908557D02*
X123499999Y-108951414D01*
X123499999Y-108951414D02*
X123457141Y-108994271D01*
X123457141Y-108994271D02*
X123414284Y-109079985D01*
X123414284Y-109079985D02*
X123414284Y-109165700D01*
X123414284Y-109165700D02*
X123457141Y-109294271D01*
X123457141Y-109294271D02*
X123971427Y-109808557D01*
X123971427Y-109808557D02*
X123414284Y-109808557D01*
X122514284Y-109722842D02*
X122557141Y-109765700D01*
X122557141Y-109765700D02*
X122685713Y-109808557D01*
X122685713Y-109808557D02*
X122771427Y-109808557D01*
X122771427Y-109808557D02*
X122899998Y-109765700D01*
X122899998Y-109765700D02*
X122985713Y-109679985D01*
X122985713Y-109679985D02*
X123028570Y-109594271D01*
X123028570Y-109594271D02*
X123071427Y-109422842D01*
X123071427Y-109422842D02*
X123071427Y-109294271D01*
X123071427Y-109294271D02*
X123028570Y-109122842D01*
X123028570Y-109122842D02*
X122985713Y-109037128D01*
X122985713Y-109037128D02*
X122899998Y-108951414D01*
X122899998Y-108951414D02*
X122771427Y-108908557D01*
X122771427Y-108908557D02*
X122685713Y-108908557D01*
X122685713Y-108908557D02*
X122557141Y-108951414D01*
X122557141Y-108951414D02*
X122514284Y-108994271D01*
X121742856Y-108908557D02*
X121914284Y-108908557D01*
X121914284Y-108908557D02*
X121999998Y-108951414D01*
X121999998Y-108951414D02*
X122042856Y-108994271D01*
X122042856Y-108994271D02*
X122128570Y-109122842D01*
X122128570Y-109122842D02*
X122171427Y-109294271D01*
X122171427Y-109294271D02*
X122171427Y-109637128D01*
X122171427Y-109637128D02*
X122128570Y-109722842D01*
X122128570Y-109722842D02*
X122085713Y-109765700D01*
X122085713Y-109765700D02*
X121999998Y-109808557D01*
X121999998Y-109808557D02*
X121828570Y-109808557D01*
X121828570Y-109808557D02*
X121742856Y-109765700D01*
X121742856Y-109765700D02*
X121699998Y-109722842D01*
X121699998Y-109722842D02*
X121657141Y-109637128D01*
X121657141Y-109637128D02*
X121657141Y-109422842D01*
X121657141Y-109422842D02*
X121699998Y-109337128D01*
X121699998Y-109337128D02*
X121742856Y-109294271D01*
X121742856Y-109294271D02*
X121828570Y-109251414D01*
X121828570Y-109251414D02*
X121999998Y-109251414D01*
X121999998Y-109251414D02*
X122085713Y-109294271D01*
X122085713Y-109294271D02*
X122128570Y-109337128D01*
X122128570Y-109337128D02*
X122171427Y-109422842D01*
X120671427Y-108908557D02*
X120457141Y-109808557D01*
X120457141Y-109808557D02*
X120285713Y-109165700D01*
X120285713Y-109165700D02*
X120114284Y-109808557D01*
X120114284Y-109808557D02*
X119899999Y-108908557D01*
X119599999Y-109551414D02*
X119171428Y-109551414D01*
X119685713Y-109808557D02*
X119385713Y-108908557D01*
X119385713Y-108908557D02*
X119085713Y-109808557D01*
X118357141Y-109808557D02*
X118785713Y-109808557D01*
X118785713Y-109808557D02*
X118785713Y-108908557D01*
X117628570Y-109808557D02*
X118057142Y-109808557D01*
X118057142Y-109808557D02*
X118057142Y-108908557D01*
X116642857Y-109808557D02*
X116642857Y-108908557D01*
X116214286Y-109808557D02*
X116214286Y-108908557D01*
X116214286Y-108908557D02*
X115700000Y-109808557D01*
X115700000Y-109808557D02*
X115700000Y-108908557D01*
X114585715Y-109808557D02*
X114585715Y-109208557D01*
X114585715Y-109379985D02*
X114542858Y-109294271D01*
X114542858Y-109294271D02*
X114500001Y-109251414D01*
X114500001Y-109251414D02*
X114414286Y-109208557D01*
X114414286Y-109208557D02*
X114328572Y-109208557D01*
X114071429Y-109551414D02*
X113642858Y-109551414D01*
X114157143Y-109808557D02*
X113857143Y-108908557D01*
X113857143Y-108908557D02*
X113557143Y-109808557D01*
X142804819Y-130138095D02*
X143614342Y-130138095D01*
X143614342Y-130138095D02*
X143709580Y-130185714D01*
X143709580Y-130185714D02*
X143757200Y-130233333D01*
X143757200Y-130233333D02*
X143804819Y-130328571D01*
X143804819Y-130328571D02*
X143804819Y-130519047D01*
X143804819Y-130519047D02*
X143757200Y-130614285D01*
X143757200Y-130614285D02*
X143709580Y-130661904D01*
X143709580Y-130661904D02*
X143614342Y-130709523D01*
X143614342Y-130709523D02*
X142804819Y-130709523D01*
X142900057Y-131138095D02*
X142852438Y-131185714D01*
X142852438Y-131185714D02*
X142804819Y-131280952D01*
X142804819Y-131280952D02*
X142804819Y-131519047D01*
X142804819Y-131519047D02*
X142852438Y-131614285D01*
X142852438Y-131614285D02*
X142900057Y-131661904D01*
X142900057Y-131661904D02*
X142995295Y-131709523D01*
X142995295Y-131709523D02*
X143090533Y-131709523D01*
X143090533Y-131709523D02*
X143233390Y-131661904D01*
X143233390Y-131661904D02*
X143804819Y-131090476D01*
X143804819Y-131090476D02*
X143804819Y-131709523D01*
X122566666Y-114509580D02*
X122614285Y-114557200D01*
X122614285Y-114557200D02*
X122757142Y-114604819D01*
X122757142Y-114604819D02*
X122852380Y-114604819D01*
X122852380Y-114604819D02*
X122995237Y-114557200D01*
X122995237Y-114557200D02*
X123090475Y-114461961D01*
X123090475Y-114461961D02*
X123138094Y-114366723D01*
X123138094Y-114366723D02*
X123185713Y-114176247D01*
X123185713Y-114176247D02*
X123185713Y-114033390D01*
X123185713Y-114033390D02*
X123138094Y-113842914D01*
X123138094Y-113842914D02*
X123090475Y-113747676D01*
X123090475Y-113747676D02*
X122995237Y-113652438D01*
X122995237Y-113652438D02*
X122852380Y-113604819D01*
X122852380Y-113604819D02*
X122757142Y-113604819D01*
X122757142Y-113604819D02*
X122614285Y-113652438D01*
X122614285Y-113652438D02*
X122566666Y-113700057D01*
X121709523Y-113938152D02*
X121709523Y-114604819D01*
X121947618Y-113557200D02*
X122185713Y-114271485D01*
X122185713Y-114271485D02*
X121566666Y-114271485D01*
X122766666Y-117539580D02*
X122814285Y-117587200D01*
X122814285Y-117587200D02*
X122957142Y-117634819D01*
X122957142Y-117634819D02*
X123052380Y-117634819D01*
X123052380Y-117634819D02*
X123195237Y-117587200D01*
X123195237Y-117587200D02*
X123290475Y-117491961D01*
X123290475Y-117491961D02*
X123338094Y-117396723D01*
X123338094Y-117396723D02*
X123385713Y-117206247D01*
X123385713Y-117206247D02*
X123385713Y-117063390D01*
X123385713Y-117063390D02*
X123338094Y-116872914D01*
X123338094Y-116872914D02*
X123290475Y-116777676D01*
X123290475Y-116777676D02*
X123195237Y-116682438D01*
X123195237Y-116682438D02*
X123052380Y-116634819D01*
X123052380Y-116634819D02*
X122957142Y-116634819D01*
X122957142Y-116634819D02*
X122814285Y-116682438D01*
X122814285Y-116682438D02*
X122766666Y-116730057D01*
X122433332Y-116634819D02*
X121766666Y-116634819D01*
X121766666Y-116634819D02*
X122195237Y-117634819D01*
X116933332Y-117657200D02*
X116790475Y-117704819D01*
X116790475Y-117704819D02*
X116552380Y-117704819D01*
X116552380Y-117704819D02*
X116457142Y-117657200D01*
X116457142Y-117657200D02*
X116409523Y-117609580D01*
X116409523Y-117609580D02*
X116361904Y-117514342D01*
X116361904Y-117514342D02*
X116361904Y-117419104D01*
X116361904Y-117419104D02*
X116409523Y-117323866D01*
X116409523Y-117323866D02*
X116457142Y-117276247D01*
X116457142Y-117276247D02*
X116552380Y-117228628D01*
X116552380Y-117228628D02*
X116742856Y-117181009D01*
X116742856Y-117181009D02*
X116838094Y-117133390D01*
X116838094Y-117133390D02*
X116885713Y-117085771D01*
X116885713Y-117085771D02*
X116933332Y-116990533D01*
X116933332Y-116990533D02*
X116933332Y-116895295D01*
X116933332Y-116895295D02*
X116885713Y-116800057D01*
X116885713Y-116800057D02*
X116838094Y-116752438D01*
X116838094Y-116752438D02*
X116742856Y-116704819D01*
X116742856Y-116704819D02*
X116504761Y-116704819D01*
X116504761Y-116704819D02*
X116361904Y-116752438D01*
X116028570Y-116704819D02*
X115790475Y-117704819D01*
X115790475Y-117704819D02*
X115599999Y-116990533D01*
X115599999Y-116990533D02*
X115409523Y-117704819D01*
X115409523Y-117704819D02*
X115171428Y-116704819D01*
X114885713Y-116704819D02*
X114266666Y-116704819D01*
X114266666Y-116704819D02*
X114599999Y-117085771D01*
X114599999Y-117085771D02*
X114457142Y-117085771D01*
X114457142Y-117085771D02*
X114361904Y-117133390D01*
X114361904Y-117133390D02*
X114314285Y-117181009D01*
X114314285Y-117181009D02*
X114266666Y-117276247D01*
X114266666Y-117276247D02*
X114266666Y-117514342D01*
X114266666Y-117514342D02*
X114314285Y-117609580D01*
X114314285Y-117609580D02*
X114361904Y-117657200D01*
X114361904Y-117657200D02*
X114457142Y-117704819D01*
X114457142Y-117704819D02*
X114742856Y-117704819D01*
X114742856Y-117704819D02*
X114838094Y-117657200D01*
X114838094Y-117657200D02*
X114885713Y-117609580D01*
X143409580Y-112433333D02*
X143457200Y-112385714D01*
X143457200Y-112385714D02*
X143504819Y-112242857D01*
X143504819Y-112242857D02*
X143504819Y-112147619D01*
X143504819Y-112147619D02*
X143457200Y-112004762D01*
X143457200Y-112004762D02*
X143361961Y-111909524D01*
X143361961Y-111909524D02*
X143266723Y-111861905D01*
X143266723Y-111861905D02*
X143076247Y-111814286D01*
X143076247Y-111814286D02*
X142933390Y-111814286D01*
X142933390Y-111814286D02*
X142742914Y-111861905D01*
X142742914Y-111861905D02*
X142647676Y-111909524D01*
X142647676Y-111909524D02*
X142552438Y-112004762D01*
X142552438Y-112004762D02*
X142504819Y-112147619D01*
X142504819Y-112147619D02*
X142504819Y-112242857D01*
X142504819Y-112242857D02*
X142552438Y-112385714D01*
X142552438Y-112385714D02*
X142600057Y-112433333D01*
X143504819Y-113385714D02*
X143504819Y-112814286D01*
X143504819Y-113100000D02*
X142504819Y-113100000D01*
X142504819Y-113100000D02*
X142647676Y-113004762D01*
X142647676Y-113004762D02*
X142742914Y-112909524D01*
X142742914Y-112909524D02*
X142790533Y-112814286D01*
X129039580Y-102133333D02*
X129087200Y-102085714D01*
X129087200Y-102085714D02*
X129134819Y-101942857D01*
X129134819Y-101942857D02*
X129134819Y-101847619D01*
X129134819Y-101847619D02*
X129087200Y-101704762D01*
X129087200Y-101704762D02*
X128991961Y-101609524D01*
X128991961Y-101609524D02*
X128896723Y-101561905D01*
X128896723Y-101561905D02*
X128706247Y-101514286D01*
X128706247Y-101514286D02*
X128563390Y-101514286D01*
X128563390Y-101514286D02*
X128372914Y-101561905D01*
X128372914Y-101561905D02*
X128277676Y-101609524D01*
X128277676Y-101609524D02*
X128182438Y-101704762D01*
X128182438Y-101704762D02*
X128134819Y-101847619D01*
X128134819Y-101847619D02*
X128134819Y-101942857D01*
X128134819Y-101942857D02*
X128182438Y-102085714D01*
X128182438Y-102085714D02*
X128230057Y-102133333D01*
X129134819Y-102609524D02*
X129134819Y-102800000D01*
X129134819Y-102800000D02*
X129087200Y-102895238D01*
X129087200Y-102895238D02*
X129039580Y-102942857D01*
X129039580Y-102942857D02*
X128896723Y-103038095D01*
X128896723Y-103038095D02*
X128706247Y-103085714D01*
X128706247Y-103085714D02*
X128325295Y-103085714D01*
X128325295Y-103085714D02*
X128230057Y-103038095D01*
X128230057Y-103038095D02*
X128182438Y-102990476D01*
X128182438Y-102990476D02*
X128134819Y-102895238D01*
X128134819Y-102895238D02*
X128134819Y-102704762D01*
X128134819Y-102704762D02*
X128182438Y-102609524D01*
X128182438Y-102609524D02*
X128230057Y-102561905D01*
X128230057Y-102561905D02*
X128325295Y-102514286D01*
X128325295Y-102514286D02*
X128563390Y-102514286D01*
X128563390Y-102514286D02*
X128658628Y-102561905D01*
X128658628Y-102561905D02*
X128706247Y-102609524D01*
X128706247Y-102609524D02*
X128753866Y-102704762D01*
X128753866Y-102704762D02*
X128753866Y-102895238D01*
X128753866Y-102895238D02*
X128706247Y-102990476D01*
X128706247Y-102990476D02*
X128658628Y-103038095D01*
X128658628Y-103038095D02*
X128563390Y-103085714D01*
X136439580Y-102133333D02*
X136487200Y-102085714D01*
X136487200Y-102085714D02*
X136534819Y-101942857D01*
X136534819Y-101942857D02*
X136534819Y-101847619D01*
X136534819Y-101847619D02*
X136487200Y-101704762D01*
X136487200Y-101704762D02*
X136391961Y-101609524D01*
X136391961Y-101609524D02*
X136296723Y-101561905D01*
X136296723Y-101561905D02*
X136106247Y-101514286D01*
X136106247Y-101514286D02*
X135963390Y-101514286D01*
X135963390Y-101514286D02*
X135772914Y-101561905D01*
X135772914Y-101561905D02*
X135677676Y-101609524D01*
X135677676Y-101609524D02*
X135582438Y-101704762D01*
X135582438Y-101704762D02*
X135534819Y-101847619D01*
X135534819Y-101847619D02*
X135534819Y-101942857D01*
X135534819Y-101942857D02*
X135582438Y-102085714D01*
X135582438Y-102085714D02*
X135630057Y-102133333D01*
X135534819Y-102466667D02*
X135534819Y-103085714D01*
X135534819Y-103085714D02*
X135915771Y-102752381D01*
X135915771Y-102752381D02*
X135915771Y-102895238D01*
X135915771Y-102895238D02*
X135963390Y-102990476D01*
X135963390Y-102990476D02*
X136011009Y-103038095D01*
X136011009Y-103038095D02*
X136106247Y-103085714D01*
X136106247Y-103085714D02*
X136344342Y-103085714D01*
X136344342Y-103085714D02*
X136439580Y-103038095D01*
X136439580Y-103038095D02*
X136487200Y-102990476D01*
X136487200Y-102990476D02*
X136534819Y-102895238D01*
X136534819Y-102895238D02*
X136534819Y-102609524D01*
X136534819Y-102609524D02*
X136487200Y-102514286D01*
X136487200Y-102514286D02*
X136439580Y-102466667D01*
X126766666Y-113904819D02*
X127099999Y-113428628D01*
X127338094Y-113904819D02*
X127338094Y-112904819D01*
X127338094Y-112904819D02*
X126957142Y-112904819D01*
X126957142Y-112904819D02*
X126861904Y-112952438D01*
X126861904Y-112952438D02*
X126814285Y-113000057D01*
X126814285Y-113000057D02*
X126766666Y-113095295D01*
X126766666Y-113095295D02*
X126766666Y-113238152D01*
X126766666Y-113238152D02*
X126814285Y-113333390D01*
X126814285Y-113333390D02*
X126861904Y-113381009D01*
X126861904Y-113381009D02*
X126957142Y-113428628D01*
X126957142Y-113428628D02*
X127338094Y-113428628D01*
X125861904Y-112904819D02*
X126338094Y-112904819D01*
X126338094Y-112904819D02*
X126385713Y-113381009D01*
X126385713Y-113381009D02*
X126338094Y-113333390D01*
X126338094Y-113333390D02*
X126242856Y-113285771D01*
X126242856Y-113285771D02*
X126004761Y-113285771D01*
X126004761Y-113285771D02*
X125909523Y-113333390D01*
X125909523Y-113333390D02*
X125861904Y-113381009D01*
X125861904Y-113381009D02*
X125814285Y-113476247D01*
X125814285Y-113476247D02*
X125814285Y-113714342D01*
X125814285Y-113714342D02*
X125861904Y-113809580D01*
X125861904Y-113809580D02*
X125909523Y-113857200D01*
X125909523Y-113857200D02*
X126004761Y-113904819D01*
X126004761Y-113904819D02*
X126242856Y-113904819D01*
X126242856Y-113904819D02*
X126338094Y-113857200D01*
X126338094Y-113857200D02*
X126385713Y-113809580D01*
X140139580Y-102133333D02*
X140187200Y-102085714D01*
X140187200Y-102085714D02*
X140234819Y-101942857D01*
X140234819Y-101942857D02*
X140234819Y-101847619D01*
X140234819Y-101847619D02*
X140187200Y-101704762D01*
X140187200Y-101704762D02*
X140091961Y-101609524D01*
X140091961Y-101609524D02*
X139996723Y-101561905D01*
X139996723Y-101561905D02*
X139806247Y-101514286D01*
X139806247Y-101514286D02*
X139663390Y-101514286D01*
X139663390Y-101514286D02*
X139472914Y-101561905D01*
X139472914Y-101561905D02*
X139377676Y-101609524D01*
X139377676Y-101609524D02*
X139282438Y-101704762D01*
X139282438Y-101704762D02*
X139234819Y-101847619D01*
X139234819Y-101847619D02*
X139234819Y-101942857D01*
X139234819Y-101942857D02*
X139282438Y-102085714D01*
X139282438Y-102085714D02*
X139330057Y-102133333D01*
X139234819Y-103038095D02*
X139234819Y-102561905D01*
X139234819Y-102561905D02*
X139711009Y-102514286D01*
X139711009Y-102514286D02*
X139663390Y-102561905D01*
X139663390Y-102561905D02*
X139615771Y-102657143D01*
X139615771Y-102657143D02*
X139615771Y-102895238D01*
X139615771Y-102895238D02*
X139663390Y-102990476D01*
X139663390Y-102990476D02*
X139711009Y-103038095D01*
X139711009Y-103038095D02*
X139806247Y-103085714D01*
X139806247Y-103085714D02*
X140044342Y-103085714D01*
X140044342Y-103085714D02*
X140139580Y-103038095D01*
X140139580Y-103038095D02*
X140187200Y-102990476D01*
X140187200Y-102990476D02*
X140234819Y-102895238D01*
X140234819Y-102895238D02*
X140234819Y-102657143D01*
X140234819Y-102657143D02*
X140187200Y-102561905D01*
X140187200Y-102561905D02*
X140139580Y-102514286D01*
X126366666Y-117539580D02*
X126414285Y-117587200D01*
X126414285Y-117587200D02*
X126557142Y-117634819D01*
X126557142Y-117634819D02*
X126652380Y-117634819D01*
X126652380Y-117634819D02*
X126795237Y-117587200D01*
X126795237Y-117587200D02*
X126890475Y-117491961D01*
X126890475Y-117491961D02*
X126938094Y-117396723D01*
X126938094Y-117396723D02*
X126985713Y-117206247D01*
X126985713Y-117206247D02*
X126985713Y-117063390D01*
X126985713Y-117063390D02*
X126938094Y-116872914D01*
X126938094Y-116872914D02*
X126890475Y-116777676D01*
X126890475Y-116777676D02*
X126795237Y-116682438D01*
X126795237Y-116682438D02*
X126652380Y-116634819D01*
X126652380Y-116634819D02*
X126557142Y-116634819D01*
X126557142Y-116634819D02*
X126414285Y-116682438D01*
X126414285Y-116682438D02*
X126366666Y-116730057D01*
X125795237Y-117063390D02*
X125890475Y-117015771D01*
X125890475Y-117015771D02*
X125938094Y-116968152D01*
X125938094Y-116968152D02*
X125985713Y-116872914D01*
X125985713Y-116872914D02*
X125985713Y-116825295D01*
X125985713Y-116825295D02*
X125938094Y-116730057D01*
X125938094Y-116730057D02*
X125890475Y-116682438D01*
X125890475Y-116682438D02*
X125795237Y-116634819D01*
X125795237Y-116634819D02*
X125604761Y-116634819D01*
X125604761Y-116634819D02*
X125509523Y-116682438D01*
X125509523Y-116682438D02*
X125461904Y-116730057D01*
X125461904Y-116730057D02*
X125414285Y-116825295D01*
X125414285Y-116825295D02*
X125414285Y-116872914D01*
X125414285Y-116872914D02*
X125461904Y-116968152D01*
X125461904Y-116968152D02*
X125509523Y-117015771D01*
X125509523Y-117015771D02*
X125604761Y-117063390D01*
X125604761Y-117063390D02*
X125795237Y-117063390D01*
X125795237Y-117063390D02*
X125890475Y-117111009D01*
X125890475Y-117111009D02*
X125938094Y-117158628D01*
X125938094Y-117158628D02*
X125985713Y-117253866D01*
X125985713Y-117253866D02*
X125985713Y-117444342D01*
X125985713Y-117444342D02*
X125938094Y-117539580D01*
X125938094Y-117539580D02*
X125890475Y-117587200D01*
X125890475Y-117587200D02*
X125795237Y-117634819D01*
X125795237Y-117634819D02*
X125604761Y-117634819D01*
X125604761Y-117634819D02*
X125509523Y-117587200D01*
X125509523Y-117587200D02*
X125461904Y-117539580D01*
X125461904Y-117539580D02*
X125414285Y-117444342D01*
X125414285Y-117444342D02*
X125414285Y-117253866D01*
X125414285Y-117253866D02*
X125461904Y-117158628D01*
X125461904Y-117158628D02*
X125509523Y-117111009D01*
X125509523Y-117111009D02*
X125604761Y-117063390D01*
X130366666Y-113904819D02*
X130699999Y-113428628D01*
X130938094Y-113904819D02*
X130938094Y-112904819D01*
X130938094Y-112904819D02*
X130557142Y-112904819D01*
X130557142Y-112904819D02*
X130461904Y-112952438D01*
X130461904Y-112952438D02*
X130414285Y-113000057D01*
X130414285Y-113000057D02*
X130366666Y-113095295D01*
X130366666Y-113095295D02*
X130366666Y-113238152D01*
X130366666Y-113238152D02*
X130414285Y-113333390D01*
X130414285Y-113333390D02*
X130461904Y-113381009D01*
X130461904Y-113381009D02*
X130557142Y-113428628D01*
X130557142Y-113428628D02*
X130938094Y-113428628D01*
X129509523Y-112904819D02*
X129699999Y-112904819D01*
X129699999Y-112904819D02*
X129795237Y-112952438D01*
X129795237Y-112952438D02*
X129842856Y-113000057D01*
X129842856Y-113000057D02*
X129938094Y-113142914D01*
X129938094Y-113142914D02*
X129985713Y-113333390D01*
X129985713Y-113333390D02*
X129985713Y-113714342D01*
X129985713Y-113714342D02*
X129938094Y-113809580D01*
X129938094Y-113809580D02*
X129890475Y-113857200D01*
X129890475Y-113857200D02*
X129795237Y-113904819D01*
X129795237Y-113904819D02*
X129604761Y-113904819D01*
X129604761Y-113904819D02*
X129509523Y-113857200D01*
X129509523Y-113857200D02*
X129461904Y-113809580D01*
X129461904Y-113809580D02*
X129414285Y-113714342D01*
X129414285Y-113714342D02*
X129414285Y-113476247D01*
X129414285Y-113476247D02*
X129461904Y-113381009D01*
X129461904Y-113381009D02*
X129509523Y-113333390D01*
X129509523Y-113333390D02*
X129604761Y-113285771D01*
X129604761Y-113285771D02*
X129795237Y-113285771D01*
X129795237Y-113285771D02*
X129890475Y-113333390D01*
X129890475Y-113333390D02*
X129938094Y-113381009D01*
X129938094Y-113381009D02*
X129985713Y-113476247D01*
X125339580Y-101657142D02*
X125387200Y-101609523D01*
X125387200Y-101609523D02*
X125434819Y-101466666D01*
X125434819Y-101466666D02*
X125434819Y-101371428D01*
X125434819Y-101371428D02*
X125387200Y-101228571D01*
X125387200Y-101228571D02*
X125291961Y-101133333D01*
X125291961Y-101133333D02*
X125196723Y-101085714D01*
X125196723Y-101085714D02*
X125006247Y-101038095D01*
X125006247Y-101038095D02*
X124863390Y-101038095D01*
X124863390Y-101038095D02*
X124672914Y-101085714D01*
X124672914Y-101085714D02*
X124577676Y-101133333D01*
X124577676Y-101133333D02*
X124482438Y-101228571D01*
X124482438Y-101228571D02*
X124434819Y-101371428D01*
X124434819Y-101371428D02*
X124434819Y-101466666D01*
X124434819Y-101466666D02*
X124482438Y-101609523D01*
X124482438Y-101609523D02*
X124530057Y-101657142D01*
X125434819Y-102609523D02*
X125434819Y-102038095D01*
X125434819Y-102323809D02*
X124434819Y-102323809D01*
X124434819Y-102323809D02*
X124577676Y-102228571D01*
X124577676Y-102228571D02*
X124672914Y-102133333D01*
X124672914Y-102133333D02*
X124720533Y-102038095D01*
X124434819Y-103228571D02*
X124434819Y-103323809D01*
X124434819Y-103323809D02*
X124482438Y-103419047D01*
X124482438Y-103419047D02*
X124530057Y-103466666D01*
X124530057Y-103466666D02*
X124625295Y-103514285D01*
X124625295Y-103514285D02*
X124815771Y-103561904D01*
X124815771Y-103561904D02*
X125053866Y-103561904D01*
X125053866Y-103561904D02*
X125244342Y-103514285D01*
X125244342Y-103514285D02*
X125339580Y-103466666D01*
X125339580Y-103466666D02*
X125387200Y-103419047D01*
X125387200Y-103419047D02*
X125434819Y-103323809D01*
X125434819Y-103323809D02*
X125434819Y-103228571D01*
X125434819Y-103228571D02*
X125387200Y-103133333D01*
X125387200Y-103133333D02*
X125339580Y-103085714D01*
X125339580Y-103085714D02*
X125244342Y-103038095D01*
X125244342Y-103038095D02*
X125053866Y-102990476D01*
X125053866Y-102990476D02*
X124815771Y-102990476D01*
X124815771Y-102990476D02*
X124625295Y-103038095D01*
X124625295Y-103038095D02*
X124530057Y-103085714D01*
X124530057Y-103085714D02*
X124482438Y-103133333D01*
X124482438Y-103133333D02*
X124434819Y-103228571D01*
X129966666Y-117604819D02*
X130299999Y-117128628D01*
X130538094Y-117604819D02*
X130538094Y-116604819D01*
X130538094Y-116604819D02*
X130157142Y-116604819D01*
X130157142Y-116604819D02*
X130061904Y-116652438D01*
X130061904Y-116652438D02*
X130014285Y-116700057D01*
X130014285Y-116700057D02*
X129966666Y-116795295D01*
X129966666Y-116795295D02*
X129966666Y-116938152D01*
X129966666Y-116938152D02*
X130014285Y-117033390D01*
X130014285Y-117033390D02*
X130061904Y-117081009D01*
X130061904Y-117081009D02*
X130157142Y-117128628D01*
X130157142Y-117128628D02*
X130538094Y-117128628D01*
X129633332Y-116604819D02*
X129014285Y-116604819D01*
X129014285Y-116604819D02*
X129347618Y-116985771D01*
X129347618Y-116985771D02*
X129204761Y-116985771D01*
X129204761Y-116985771D02*
X129109523Y-117033390D01*
X129109523Y-117033390D02*
X129061904Y-117081009D01*
X129061904Y-117081009D02*
X129014285Y-117176247D01*
X129014285Y-117176247D02*
X129014285Y-117414342D01*
X129014285Y-117414342D02*
X129061904Y-117509580D01*
X129061904Y-117509580D02*
X129109523Y-117557200D01*
X129109523Y-117557200D02*
X129204761Y-117604819D01*
X129204761Y-117604819D02*
X129490475Y-117604819D01*
X129490475Y-117604819D02*
X129585713Y-117557200D01*
X129585713Y-117557200D02*
X129633332Y-117509580D01*
X132739580Y-102133333D02*
X132787200Y-102085714D01*
X132787200Y-102085714D02*
X132834819Y-101942857D01*
X132834819Y-101942857D02*
X132834819Y-101847619D01*
X132834819Y-101847619D02*
X132787200Y-101704762D01*
X132787200Y-101704762D02*
X132691961Y-101609524D01*
X132691961Y-101609524D02*
X132596723Y-101561905D01*
X132596723Y-101561905D02*
X132406247Y-101514286D01*
X132406247Y-101514286D02*
X132263390Y-101514286D01*
X132263390Y-101514286D02*
X132072914Y-101561905D01*
X132072914Y-101561905D02*
X131977676Y-101609524D01*
X131977676Y-101609524D02*
X131882438Y-101704762D01*
X131882438Y-101704762D02*
X131834819Y-101847619D01*
X131834819Y-101847619D02*
X131834819Y-101942857D01*
X131834819Y-101942857D02*
X131882438Y-102085714D01*
X131882438Y-102085714D02*
X131930057Y-102133333D01*
X131930057Y-102514286D02*
X131882438Y-102561905D01*
X131882438Y-102561905D02*
X131834819Y-102657143D01*
X131834819Y-102657143D02*
X131834819Y-102895238D01*
X131834819Y-102895238D02*
X131882438Y-102990476D01*
X131882438Y-102990476D02*
X131930057Y-103038095D01*
X131930057Y-103038095D02*
X132025295Y-103085714D01*
X132025295Y-103085714D02*
X132120533Y-103085714D01*
X132120533Y-103085714D02*
X132263390Y-103038095D01*
X132263390Y-103038095D02*
X132834819Y-102466667D01*
X132834819Y-102466667D02*
X132834819Y-103085714D01*
X124104819Y-106333333D02*
X123628628Y-106000000D01*
X124104819Y-105761905D02*
X123104819Y-105761905D01*
X123104819Y-105761905D02*
X123104819Y-106142857D01*
X123104819Y-106142857D02*
X123152438Y-106238095D01*
X123152438Y-106238095D02*
X123200057Y-106285714D01*
X123200057Y-106285714D02*
X123295295Y-106333333D01*
X123295295Y-106333333D02*
X123438152Y-106333333D01*
X123438152Y-106333333D02*
X123533390Y-106285714D01*
X123533390Y-106285714D02*
X123581009Y-106238095D01*
X123581009Y-106238095D02*
X123628628Y-106142857D01*
X123628628Y-106142857D02*
X123628628Y-105761905D01*
X124104819Y-107285714D02*
X124104819Y-106714286D01*
X124104819Y-107000000D02*
X123104819Y-107000000D01*
X123104819Y-107000000D02*
X123247676Y-106904762D01*
X123247676Y-106904762D02*
X123342914Y-106809524D01*
X123342914Y-106809524D02*
X123390533Y-106714286D01*
X142259580Y-122033333D02*
X142307200Y-121985714D01*
X142307200Y-121985714D02*
X142354819Y-121842857D01*
X142354819Y-121842857D02*
X142354819Y-121747619D01*
X142354819Y-121747619D02*
X142307200Y-121604762D01*
X142307200Y-121604762D02*
X142211961Y-121509524D01*
X142211961Y-121509524D02*
X142116723Y-121461905D01*
X142116723Y-121461905D02*
X141926247Y-121414286D01*
X141926247Y-121414286D02*
X141783390Y-121414286D01*
X141783390Y-121414286D02*
X141592914Y-121461905D01*
X141592914Y-121461905D02*
X141497676Y-121509524D01*
X141497676Y-121509524D02*
X141402438Y-121604762D01*
X141402438Y-121604762D02*
X141354819Y-121747619D01*
X141354819Y-121747619D02*
X141354819Y-121842857D01*
X141354819Y-121842857D02*
X141402438Y-121985714D01*
X141402438Y-121985714D02*
X141450057Y-122033333D01*
X141354819Y-122890476D02*
X141354819Y-122700000D01*
X141354819Y-122700000D02*
X141402438Y-122604762D01*
X141402438Y-122604762D02*
X141450057Y-122557143D01*
X141450057Y-122557143D02*
X141592914Y-122461905D01*
X141592914Y-122461905D02*
X141783390Y-122414286D01*
X141783390Y-122414286D02*
X142164342Y-122414286D01*
X142164342Y-122414286D02*
X142259580Y-122461905D01*
X142259580Y-122461905D02*
X142307200Y-122509524D01*
X142307200Y-122509524D02*
X142354819Y-122604762D01*
X142354819Y-122604762D02*
X142354819Y-122795238D01*
X142354819Y-122795238D02*
X142307200Y-122890476D01*
X142307200Y-122890476D02*
X142259580Y-122938095D01*
X142259580Y-122938095D02*
X142164342Y-122985714D01*
X142164342Y-122985714D02*
X141926247Y-122985714D01*
X141926247Y-122985714D02*
X141831009Y-122938095D01*
X141831009Y-122938095D02*
X141783390Y-122890476D01*
X141783390Y-122890476D02*
X141735771Y-122795238D01*
X141735771Y-122795238D02*
X141735771Y-122604762D01*
X141735771Y-122604762D02*
X141783390Y-122509524D01*
X141783390Y-122509524D02*
X141831009Y-122461905D01*
X141831009Y-122461905D02*
X141926247Y-122414286D01*
X127304819Y-106333333D02*
X126828628Y-106000000D01*
X127304819Y-105761905D02*
X126304819Y-105761905D01*
X126304819Y-105761905D02*
X126304819Y-106142857D01*
X126304819Y-106142857D02*
X126352438Y-106238095D01*
X126352438Y-106238095D02*
X126400057Y-106285714D01*
X126400057Y-106285714D02*
X126495295Y-106333333D01*
X126495295Y-106333333D02*
X126638152Y-106333333D01*
X126638152Y-106333333D02*
X126733390Y-106285714D01*
X126733390Y-106285714D02*
X126781009Y-106238095D01*
X126781009Y-106238095D02*
X126828628Y-106142857D01*
X126828628Y-106142857D02*
X126828628Y-105761905D01*
X126638152Y-107190476D02*
X127304819Y-107190476D01*
X126257200Y-106952381D02*
X126971485Y-106714286D01*
X126971485Y-106714286D02*
X126971485Y-107333333D01*
D11*
X117725032Y-130710292D02*
X118114499Y-130710292D01*
X118281413Y-130098273D02*
X117725032Y-130098273D01*
X117725032Y-130098273D02*
X117725032Y-131266673D01*
X117725032Y-131266673D02*
X118281413Y-131266673D01*
X118726518Y-130153912D02*
X118893432Y-130098273D01*
X118893432Y-130098273D02*
X119171623Y-130098273D01*
X119171623Y-130098273D02*
X119282899Y-130153912D01*
X119282899Y-130153912D02*
X119338537Y-130209550D01*
X119338537Y-130209550D02*
X119394175Y-130320826D01*
X119394175Y-130320826D02*
X119394175Y-130432102D01*
X119394175Y-130432102D02*
X119338537Y-130543378D01*
X119338537Y-130543378D02*
X119282899Y-130599016D01*
X119282899Y-130599016D02*
X119171623Y-130654654D01*
X119171623Y-130654654D02*
X118949070Y-130710292D01*
X118949070Y-130710292D02*
X118837794Y-130765931D01*
X118837794Y-130765931D02*
X118782156Y-130821569D01*
X118782156Y-130821569D02*
X118726518Y-130932845D01*
X118726518Y-130932845D02*
X118726518Y-131044121D01*
X118726518Y-131044121D02*
X118782156Y-131155397D01*
X118782156Y-131155397D02*
X118837794Y-131211035D01*
X118837794Y-131211035D02*
X118949070Y-131266673D01*
X118949070Y-131266673D02*
X119227261Y-131266673D01*
X119227261Y-131266673D02*
X119394175Y-131211035D01*
X119894918Y-130098273D02*
X119894918Y-131266673D01*
X119894918Y-131266673D02*
X120340023Y-131266673D01*
X120340023Y-131266673D02*
X120451299Y-131211035D01*
X120451299Y-131211035D02*
X120506937Y-131155397D01*
X120506937Y-131155397D02*
X120562575Y-131044121D01*
X120562575Y-131044121D02*
X120562575Y-130877207D01*
X120562575Y-130877207D02*
X120506937Y-130765931D01*
X120506937Y-130765931D02*
X120451299Y-130710292D01*
X120451299Y-130710292D02*
X120340023Y-130654654D01*
X120340023Y-130654654D02*
X119894918Y-130654654D01*
X121063318Y-130543378D02*
X121953528Y-130543378D01*
X123121927Y-130098273D02*
X122454270Y-130098273D01*
X122788098Y-130098273D02*
X122788098Y-131266673D01*
X122788098Y-131266673D02*
X122676822Y-131099759D01*
X122676822Y-131099759D02*
X122565546Y-130988483D01*
X122565546Y-130988483D02*
X122454270Y-130932845D01*
X123567032Y-131155397D02*
X123622670Y-131211035D01*
X123622670Y-131211035D02*
X123733946Y-131266673D01*
X123733946Y-131266673D02*
X124012137Y-131266673D01*
X124012137Y-131266673D02*
X124123413Y-131211035D01*
X124123413Y-131211035D02*
X124179051Y-131155397D01*
X124179051Y-131155397D02*
X124234689Y-131044121D01*
X124234689Y-131044121D02*
X124234689Y-130932845D01*
X124234689Y-130932845D02*
X124179051Y-130765931D01*
X124179051Y-130765931D02*
X123511394Y-130098273D01*
X123511394Y-130098273D02*
X124234689Y-130098273D01*
X124735432Y-130710292D02*
X125124899Y-130710292D01*
X125291813Y-130098273D02*
X124735432Y-130098273D01*
X124735432Y-130098273D02*
X124735432Y-131266673D01*
X124735432Y-131266673D02*
X125291813Y-131266673D01*
%TO.C,U2*%
D12*
X135440000Y-128990000D02*
X136700000Y-128990000D01*
X135440000Y-132750000D02*
X135440000Y-128990000D01*
X142260000Y-128990000D02*
X141000000Y-128990000D01*
X142260000Y-132750000D02*
X142260000Y-128990000D01*
X142490000Y-134270000D02*
X142160000Y-134030000D01*
X142490000Y-133790000D01*
X142490000Y-134270000D01*
G36*
X142490000Y-134270000D02*
G01*
X142160000Y-134030000D01*
X142490000Y-133790000D01*
X142490000Y-134270000D01*
G37*
%TO.C,C4*%
X119930000Y-110290000D02*
X124150000Y-110290000D01*
X119930000Y-113310000D02*
X119930000Y-110290000D01*
X124150000Y-113310000D02*
X119930000Y-113310000D01*
%TO.C,C7*%
X122338748Y-114765000D02*
X122861252Y-114765000D01*
X122338748Y-116235000D02*
X122861252Y-116235000D01*
%TO.C,SW3*%
X112850000Y-114500000D02*
X112850000Y-112500000D01*
X113900000Y-111200000D02*
X114350000Y-110750000D01*
X113900000Y-115800000D02*
X114350000Y-116250000D01*
X114350000Y-110750000D02*
X116850000Y-110750000D01*
X114350000Y-116250000D02*
X116850000Y-116250000D01*
X117300000Y-111200000D02*
X116850000Y-110750000D01*
X117300000Y-115800000D02*
X116850000Y-116250000D01*
X118350000Y-114500000D02*
X118350000Y-112500000D01*
%TO.C,C1*%
X135290000Y-109190000D02*
X137640000Y-109190000D01*
X135290000Y-114945563D02*
X135290000Y-109190000D01*
X136354437Y-116010000D02*
X135290000Y-114945563D01*
X136354437Y-116010000D02*
X137640000Y-116010000D01*
X140547500Y-117037500D02*
X140547500Y-116250000D01*
X140941250Y-116643750D02*
X140153750Y-116643750D01*
X141045563Y-116010000D02*
X139760000Y-116010000D01*
X141045563Y-116010000D02*
X142110000Y-114945563D01*
X142110000Y-109190000D02*
X139760000Y-109190000D01*
X142110000Y-114945563D02*
X142110000Y-109190000D01*
%TO.C,C9*%
X126265000Y-102561252D02*
X126265000Y-102038748D01*
X127735000Y-102561252D02*
X127735000Y-102038748D01*
%TO.C,C3*%
X133665000Y-102561252D02*
X133665000Y-102038748D01*
X135135000Y-102561252D02*
X135135000Y-102038748D01*
%TO.C,R5*%
X126372936Y-111065000D02*
X126827064Y-111065000D01*
X126372936Y-112535000D02*
X126827064Y-112535000D01*
%TO.C,C5*%
X137365000Y-102561252D02*
X137365000Y-102038748D01*
X138835000Y-102561252D02*
X138835000Y-102038748D01*
%TO.C,C8*%
X125938748Y-114765000D02*
X126461252Y-114765000D01*
X125938748Y-116235000D02*
X126461252Y-116235000D01*
%TO.C,R6*%
X129972936Y-111065000D02*
X130427064Y-111065000D01*
X129972936Y-112535000D02*
X130427064Y-112535000D01*
%TO.C,C10*%
X122565000Y-102561252D02*
X122565000Y-102038748D01*
X124035000Y-102561252D02*
X124035000Y-102038748D01*
%TO.C,R3*%
X129572936Y-114765000D02*
X130027064Y-114765000D01*
X129572936Y-116235000D02*
X130027064Y-116235000D01*
%TO.C,C2*%
X129965000Y-102561252D02*
X129965000Y-102038748D01*
X131435000Y-102561252D02*
X131435000Y-102038748D01*
%TO.C,R1*%
X121265000Y-106727064D02*
X121265000Y-106272936D01*
X122735000Y-106727064D02*
X122735000Y-106272936D01*
%TO.C,C6*%
X136440000Y-119940000D02*
X137640000Y-119940000D01*
X136440000Y-123395563D02*
X136440000Y-119940000D01*
X137504437Y-124460000D02*
X136440000Y-123395563D01*
X137504437Y-124460000D02*
X137640000Y-124460000D01*
X139895563Y-124460000D02*
X139760000Y-124460000D01*
X139895563Y-124460000D02*
X140960000Y-123395563D01*
X140260000Y-125200000D02*
X140260000Y-124700000D01*
X140510000Y-124950000D02*
X140010000Y-124950000D01*
X140960000Y-119940000D02*
X139760000Y-119940000D01*
X140960000Y-123395563D02*
X140960000Y-119940000D01*
%TO.C,R4*%
X124465000Y-106727064D02*
X124465000Y-106272936D01*
X125935000Y-106727064D02*
X125935000Y-106272936D01*
%TO.C,U3*%
D13*
X112380000Y-118840000D02*
X128580000Y-118840000D01*
X112380000Y-142940000D02*
X112380000Y-118840000D01*
X128580000Y-118840000D02*
X128580000Y-142940000D01*
X128580000Y-142940000D02*
X112380000Y-142940000D01*
%TD*%
M02*
