%TF.GenerationSoftware,KiCad,Pcbnew,10.0.1*%
%TF.CreationDate,2026-06-17T13:00:44+01:00*%
%TF.ProjectId,ESP32C6_Wall_Input_Module,45535033-3243-4365-9f57-616c6c5f496e,rev?*%
%TF.SameCoordinates,Original*%
%TF.FileFunction,Soldermask,Bot*%
%TF.FilePolarity,Negative*%
%FSLAX46Y46*%
G04 Gerber Fmt 4.6, Leading zero omitted, Abs format (unit mm)*
G04 Created by KiCad (PCBNEW 10.0.1) date 2026-06-17 13:00:44*
%MOMM*%
%LPD*%
G01*
G04 APERTURE LIST*
G04 Aperture macros list*
%AMRoundRect*
0 Rectangle with rounded corners*
0 $1 Rounding radius*
0 $2 $3 $4 $5 $6 $7 $8 $9 X,Y pos of 4 corners*
0 Add a 4 corners polygon primitive as box body*
4,1,4,$2,$3,$4,$5,$6,$7,$8,$9,$2,$3,0*
0 Add four circle primitives for the rounded corners*
1,1,$1+$1,$2,$3*
1,1,$1+$1,$4,$5*
1,1,$1+$1,$6,$7*
1,1,$1+$1,$8,$9*
0 Add four rect primitives between the rounded corners*
20,1,$1+$1,$2,$3,$4,$5,0*
20,1,$1+$1,$4,$5,$6,$7,0*
20,1,$1+$1,$6,$7,$8,$9,0*
20,1,$1+$1,$8,$9,$2,$3,0*%
G04 Aperture macros list end*
%ADD10R,1.000000X1.000000*%
%ADD11C,1.000000*%
%ADD12C,2.000000*%
%ADD13C,1.600000*%
%ADD14RoundRect,0.250000X-1.050000X-1.050000X1.050000X-1.050000X1.050000X1.050000X-1.050000X1.050000X0*%
%ADD15C,2.600000*%
%ADD16RoundRect,0.250000X-0.600000X-0.750000X0.600000X-0.750000X0.600000X0.750000X-0.600000X0.750000X0*%
%ADD17O,1.700000X2.000000*%
%ADD18RoundRect,0.375000X0.375000X-0.625000X0.375000X0.625000X-0.375000X0.625000X-0.375000X-0.625000X0*%
%ADD19RoundRect,0.500000X1.400000X-0.500000X1.400000X0.500000X-1.400000X0.500000X-1.400000X-0.500000X0*%
%ADD20RoundRect,0.250000X-0.420000X-0.945000X0.420000X-0.945000X0.420000X0.945000X-0.420000X0.945000X0*%
%ADD21RoundRect,0.250000X-0.250000X-0.475000X0.250000X-0.475000X0.250000X0.475000X-0.250000X0.475000X0*%
%ADD22R,1.700000X1.000000*%
%ADD23RoundRect,0.250000X0.550000X-1.500000X0.550000X1.500000X-0.550000X1.500000X-0.550000X-1.500000X0*%
%ADD24RoundRect,0.250000X0.475000X-0.250000X0.475000X0.250000X-0.475000X0.250000X-0.475000X-0.250000X0*%
%ADD25RoundRect,0.250000X-0.262500X-0.450000X0.262500X-0.450000X0.262500X0.450000X-0.262500X0.450000X0*%
%ADD26RoundRect,0.250000X0.450000X-0.262500X0.450000X0.262500X-0.450000X0.262500X-0.450000X-0.262500X0*%
%ADD27RoundRect,0.250000X0.550000X-1.050000X0.550000X1.050000X-0.550000X1.050000X-0.550000X-1.050000X0*%
%ADD28RoundRect,0.101600X-1.000000X-0.600000X1.000000X-0.600000X1.000000X0.600000X-1.000000X0.600000X0*%
%ADD29RoundRect,0.101600X-0.600000X1.000000X-0.600000X-1.000000X0.600000X-1.000000X0.600000X1.000000X0*%
G04 APERTURE END LIST*
D10*
%TO.C,J3*%
X143400000Y-126500000D03*
D11*
X143400000Y-127770000D03*
X143400000Y-129040000D03*
X143400000Y-130310000D03*
X143400000Y-131580000D03*
X143400000Y-132850000D03*
%TD*%
D12*
%TO.C,F1*%
X113500000Y-103200000D03*
X118580000Y-103210000D03*
%TD*%
D13*
%TO.C,RV1*%
X117800000Y-108350000D03*
X112800000Y-107050000D03*
%TD*%
D14*
%TO.C,J1*%
X103060000Y-105800000D03*
D15*
X108140000Y-105800000D03*
%TD*%
D16*
%TO.C,U1*%
X104500000Y-120800000D03*
D17*
X104500000Y-125800000D03*
X133580000Y-115800000D03*
X133580000Y-130800000D03*
%TD*%
D14*
%TO.C,J2*%
X128000000Y-105800000D03*
D15*
X133080000Y-105800000D03*
X138160000Y-105800000D03*
%TD*%
D18*
%TO.C,U2*%
X141150000Y-134050000D03*
X138850000Y-134050000D03*
D19*
X138850000Y-127750000D03*
D18*
X136550000Y-134050000D03*
%TD*%
D20*
%TO.C,C4*%
X120860000Y-111800000D03*
X123940000Y-111800000D03*
%TD*%
D21*
%TO.C,C7*%
X121650000Y-115500000D03*
X123550000Y-115500000D03*
%TD*%
D22*
%TO.C,SW3*%
X112450000Y-115400000D03*
X118750000Y-115400000D03*
X112450000Y-111600000D03*
X118750000Y-111600000D03*
%TD*%
D23*
%TO.C,C1*%
X138700000Y-115400000D03*
X138700000Y-109800000D03*
%TD*%
D24*
%TO.C,C9*%
X127000000Y-103250000D03*
X127000000Y-101350000D03*
%TD*%
%TO.C,C3*%
X134400000Y-103250000D03*
X134400000Y-101350000D03*
%TD*%
D25*
%TO.C,R5*%
X125687500Y-111800000D03*
X127512500Y-111800000D03*
%TD*%
D24*
%TO.C,C5*%
X138100000Y-103250000D03*
X138100000Y-101350000D03*
%TD*%
D21*
%TO.C,C8*%
X125250000Y-115500000D03*
X127150000Y-115500000D03*
%TD*%
D25*
%TO.C,R6*%
X129287500Y-111800000D03*
X131112500Y-111800000D03*
%TD*%
D24*
%TO.C,C10*%
X123300000Y-103250000D03*
X123300000Y-101350000D03*
%TD*%
D25*
%TO.C,R3*%
X128887500Y-115500000D03*
X130712500Y-115500000D03*
%TD*%
D24*
%TO.C,C2*%
X130700000Y-103250000D03*
X130700000Y-101350000D03*
%TD*%
D26*
%TO.C,R1*%
X122000000Y-107412500D03*
X122000000Y-105587500D03*
%TD*%
D27*
%TO.C,C6*%
X138700000Y-124000000D03*
X138700000Y-120400000D03*
%TD*%
D26*
%TO.C,R4*%
X125200000Y-107412500D03*
X125200000Y-105587500D03*
%TD*%
D28*
%TO.C,U3*%
X112380000Y-134840000D03*
X112380000Y-132840000D03*
X112380000Y-130840000D03*
X112380000Y-128840000D03*
X112380000Y-126840000D03*
X112380000Y-124840000D03*
X112380000Y-122840000D03*
X112380000Y-120840000D03*
X128580000Y-120840000D03*
X128580000Y-122840000D03*
X128580000Y-124840000D03*
X128580000Y-126840000D03*
X128580000Y-128840000D03*
X128580000Y-130840000D03*
X128580000Y-132840000D03*
X128580000Y-134840000D03*
D29*
X115380000Y-118840000D03*
X117380000Y-118840000D03*
X119380000Y-118840000D03*
X121380000Y-118840000D03*
X123380000Y-118840000D03*
X125380000Y-118840000D03*
%TD*%
M02*
