G75*
%MOIN*%
%OFA0B0*%
%FSLAX25Y25*%
%IPPOS*%
%LPD*%
%AMOC8*
5,1,8,0,0,1.08239X$1,22.5*
%
%ADD10C,0.00000*%
%ADD11C,0.00300*%
%ADD12C,0.00500*%
%ADD13C,0.00200*%
%ADD14C,0.00400*%
%ADD15R,0.23622X0.23622*%
%ADD16C,0.01200*%
%ADD17R,0.19685X0.11811*%
%ADD18C,0.00600*%
D10*
X0016394Y0001300D02*
X0016394Y0261261D01*
X0170094Y0261261D01*
X0171394Y0111300D01*
X0171394Y0071300D01*
X0170094Y0001300D01*
X0016394Y0001300D01*
X0024425Y0011300D02*
X0024427Y0011388D01*
X0024433Y0011476D01*
X0024443Y0011564D01*
X0024457Y0011652D01*
X0024474Y0011738D01*
X0024496Y0011824D01*
X0024521Y0011908D01*
X0024551Y0011992D01*
X0024583Y0012074D01*
X0024620Y0012154D01*
X0024660Y0012233D01*
X0024704Y0012310D01*
X0024751Y0012385D01*
X0024801Y0012457D01*
X0024855Y0012528D01*
X0024911Y0012595D01*
X0024971Y0012661D01*
X0025033Y0012723D01*
X0025099Y0012783D01*
X0025166Y0012839D01*
X0025237Y0012893D01*
X0025309Y0012943D01*
X0025384Y0012990D01*
X0025461Y0013034D01*
X0025540Y0013074D01*
X0025620Y0013111D01*
X0025702Y0013143D01*
X0025786Y0013173D01*
X0025870Y0013198D01*
X0025956Y0013220D01*
X0026042Y0013237D01*
X0026130Y0013251D01*
X0026218Y0013261D01*
X0026306Y0013267D01*
X0026394Y0013269D01*
X0026482Y0013267D01*
X0026570Y0013261D01*
X0026658Y0013251D01*
X0026746Y0013237D01*
X0026832Y0013220D01*
X0026918Y0013198D01*
X0027002Y0013173D01*
X0027086Y0013143D01*
X0027168Y0013111D01*
X0027248Y0013074D01*
X0027327Y0013034D01*
X0027404Y0012990D01*
X0027479Y0012943D01*
X0027551Y0012893D01*
X0027622Y0012839D01*
X0027689Y0012783D01*
X0027755Y0012723D01*
X0027817Y0012661D01*
X0027877Y0012595D01*
X0027933Y0012528D01*
X0027987Y0012457D01*
X0028037Y0012385D01*
X0028084Y0012310D01*
X0028128Y0012233D01*
X0028168Y0012154D01*
X0028205Y0012074D01*
X0028237Y0011992D01*
X0028267Y0011908D01*
X0028292Y0011824D01*
X0028314Y0011738D01*
X0028331Y0011652D01*
X0028345Y0011564D01*
X0028355Y0011476D01*
X0028361Y0011388D01*
X0028363Y0011300D01*
X0028361Y0011212D01*
X0028355Y0011124D01*
X0028345Y0011036D01*
X0028331Y0010948D01*
X0028314Y0010862D01*
X0028292Y0010776D01*
X0028267Y0010692D01*
X0028237Y0010608D01*
X0028205Y0010526D01*
X0028168Y0010446D01*
X0028128Y0010367D01*
X0028084Y0010290D01*
X0028037Y0010215D01*
X0027987Y0010143D01*
X0027933Y0010072D01*
X0027877Y0010005D01*
X0027817Y0009939D01*
X0027755Y0009877D01*
X0027689Y0009817D01*
X0027622Y0009761D01*
X0027551Y0009707D01*
X0027479Y0009657D01*
X0027404Y0009610D01*
X0027327Y0009566D01*
X0027248Y0009526D01*
X0027168Y0009489D01*
X0027086Y0009457D01*
X0027002Y0009427D01*
X0026918Y0009402D01*
X0026832Y0009380D01*
X0026746Y0009363D01*
X0026658Y0009349D01*
X0026570Y0009339D01*
X0026482Y0009333D01*
X0026394Y0009331D01*
X0026306Y0009333D01*
X0026218Y0009339D01*
X0026130Y0009349D01*
X0026042Y0009363D01*
X0025956Y0009380D01*
X0025870Y0009402D01*
X0025786Y0009427D01*
X0025702Y0009457D01*
X0025620Y0009489D01*
X0025540Y0009526D01*
X0025461Y0009566D01*
X0025384Y0009610D01*
X0025309Y0009657D01*
X0025237Y0009707D01*
X0025166Y0009761D01*
X0025099Y0009817D01*
X0025033Y0009877D01*
X0024971Y0009939D01*
X0024911Y0010005D01*
X0024855Y0010072D01*
X0024801Y0010143D01*
X0024751Y0010215D01*
X0024704Y0010290D01*
X0024660Y0010367D01*
X0024620Y0010446D01*
X0024583Y0010526D01*
X0024551Y0010608D01*
X0024521Y0010692D01*
X0024496Y0010776D01*
X0024474Y0010862D01*
X0024457Y0010948D01*
X0024443Y0011036D01*
X0024433Y0011124D01*
X0024427Y0011212D01*
X0024425Y0011300D01*
X0159425Y0011300D02*
X0159427Y0011388D01*
X0159433Y0011476D01*
X0159443Y0011564D01*
X0159457Y0011652D01*
X0159474Y0011738D01*
X0159496Y0011824D01*
X0159521Y0011908D01*
X0159551Y0011992D01*
X0159583Y0012074D01*
X0159620Y0012154D01*
X0159660Y0012233D01*
X0159704Y0012310D01*
X0159751Y0012385D01*
X0159801Y0012457D01*
X0159855Y0012528D01*
X0159911Y0012595D01*
X0159971Y0012661D01*
X0160033Y0012723D01*
X0160099Y0012783D01*
X0160166Y0012839D01*
X0160237Y0012893D01*
X0160309Y0012943D01*
X0160384Y0012990D01*
X0160461Y0013034D01*
X0160540Y0013074D01*
X0160620Y0013111D01*
X0160702Y0013143D01*
X0160786Y0013173D01*
X0160870Y0013198D01*
X0160956Y0013220D01*
X0161042Y0013237D01*
X0161130Y0013251D01*
X0161218Y0013261D01*
X0161306Y0013267D01*
X0161394Y0013269D01*
X0161482Y0013267D01*
X0161570Y0013261D01*
X0161658Y0013251D01*
X0161746Y0013237D01*
X0161832Y0013220D01*
X0161918Y0013198D01*
X0162002Y0013173D01*
X0162086Y0013143D01*
X0162168Y0013111D01*
X0162248Y0013074D01*
X0162327Y0013034D01*
X0162404Y0012990D01*
X0162479Y0012943D01*
X0162551Y0012893D01*
X0162622Y0012839D01*
X0162689Y0012783D01*
X0162755Y0012723D01*
X0162817Y0012661D01*
X0162877Y0012595D01*
X0162933Y0012528D01*
X0162987Y0012457D01*
X0163037Y0012385D01*
X0163084Y0012310D01*
X0163128Y0012233D01*
X0163168Y0012154D01*
X0163205Y0012074D01*
X0163237Y0011992D01*
X0163267Y0011908D01*
X0163292Y0011824D01*
X0163314Y0011738D01*
X0163331Y0011652D01*
X0163345Y0011564D01*
X0163355Y0011476D01*
X0163361Y0011388D01*
X0163363Y0011300D01*
X0163361Y0011212D01*
X0163355Y0011124D01*
X0163345Y0011036D01*
X0163331Y0010948D01*
X0163314Y0010862D01*
X0163292Y0010776D01*
X0163267Y0010692D01*
X0163237Y0010608D01*
X0163205Y0010526D01*
X0163168Y0010446D01*
X0163128Y0010367D01*
X0163084Y0010290D01*
X0163037Y0010215D01*
X0162987Y0010143D01*
X0162933Y0010072D01*
X0162877Y0010005D01*
X0162817Y0009939D01*
X0162755Y0009877D01*
X0162689Y0009817D01*
X0162622Y0009761D01*
X0162551Y0009707D01*
X0162479Y0009657D01*
X0162404Y0009610D01*
X0162327Y0009566D01*
X0162248Y0009526D01*
X0162168Y0009489D01*
X0162086Y0009457D01*
X0162002Y0009427D01*
X0161918Y0009402D01*
X0161832Y0009380D01*
X0161746Y0009363D01*
X0161658Y0009349D01*
X0161570Y0009339D01*
X0161482Y0009333D01*
X0161394Y0009331D01*
X0161306Y0009333D01*
X0161218Y0009339D01*
X0161130Y0009349D01*
X0161042Y0009363D01*
X0160956Y0009380D01*
X0160870Y0009402D01*
X0160786Y0009427D01*
X0160702Y0009457D01*
X0160620Y0009489D01*
X0160540Y0009526D01*
X0160461Y0009566D01*
X0160384Y0009610D01*
X0160309Y0009657D01*
X0160237Y0009707D01*
X0160166Y0009761D01*
X0160099Y0009817D01*
X0160033Y0009877D01*
X0159971Y0009939D01*
X0159911Y0010005D01*
X0159855Y0010072D01*
X0159801Y0010143D01*
X0159751Y0010215D01*
X0159704Y0010290D01*
X0159660Y0010367D01*
X0159620Y0010446D01*
X0159583Y0010526D01*
X0159551Y0010608D01*
X0159521Y0010692D01*
X0159496Y0010776D01*
X0159474Y0010862D01*
X0159457Y0010948D01*
X0159443Y0011036D01*
X0159433Y0011124D01*
X0159427Y0011212D01*
X0159425Y0011300D01*
X0159425Y0251300D02*
X0159427Y0251388D01*
X0159433Y0251476D01*
X0159443Y0251564D01*
X0159457Y0251652D01*
X0159474Y0251738D01*
X0159496Y0251824D01*
X0159521Y0251908D01*
X0159551Y0251992D01*
X0159583Y0252074D01*
X0159620Y0252154D01*
X0159660Y0252233D01*
X0159704Y0252310D01*
X0159751Y0252385D01*
X0159801Y0252457D01*
X0159855Y0252528D01*
X0159911Y0252595D01*
X0159971Y0252661D01*
X0160033Y0252723D01*
X0160099Y0252783D01*
X0160166Y0252839D01*
X0160237Y0252893D01*
X0160309Y0252943D01*
X0160384Y0252990D01*
X0160461Y0253034D01*
X0160540Y0253074D01*
X0160620Y0253111D01*
X0160702Y0253143D01*
X0160786Y0253173D01*
X0160870Y0253198D01*
X0160956Y0253220D01*
X0161042Y0253237D01*
X0161130Y0253251D01*
X0161218Y0253261D01*
X0161306Y0253267D01*
X0161394Y0253269D01*
X0161482Y0253267D01*
X0161570Y0253261D01*
X0161658Y0253251D01*
X0161746Y0253237D01*
X0161832Y0253220D01*
X0161918Y0253198D01*
X0162002Y0253173D01*
X0162086Y0253143D01*
X0162168Y0253111D01*
X0162248Y0253074D01*
X0162327Y0253034D01*
X0162404Y0252990D01*
X0162479Y0252943D01*
X0162551Y0252893D01*
X0162622Y0252839D01*
X0162689Y0252783D01*
X0162755Y0252723D01*
X0162817Y0252661D01*
X0162877Y0252595D01*
X0162933Y0252528D01*
X0162987Y0252457D01*
X0163037Y0252385D01*
X0163084Y0252310D01*
X0163128Y0252233D01*
X0163168Y0252154D01*
X0163205Y0252074D01*
X0163237Y0251992D01*
X0163267Y0251908D01*
X0163292Y0251824D01*
X0163314Y0251738D01*
X0163331Y0251652D01*
X0163345Y0251564D01*
X0163355Y0251476D01*
X0163361Y0251388D01*
X0163363Y0251300D01*
X0163361Y0251212D01*
X0163355Y0251124D01*
X0163345Y0251036D01*
X0163331Y0250948D01*
X0163314Y0250862D01*
X0163292Y0250776D01*
X0163267Y0250692D01*
X0163237Y0250608D01*
X0163205Y0250526D01*
X0163168Y0250446D01*
X0163128Y0250367D01*
X0163084Y0250290D01*
X0163037Y0250215D01*
X0162987Y0250143D01*
X0162933Y0250072D01*
X0162877Y0250005D01*
X0162817Y0249939D01*
X0162755Y0249877D01*
X0162689Y0249817D01*
X0162622Y0249761D01*
X0162551Y0249707D01*
X0162479Y0249657D01*
X0162404Y0249610D01*
X0162327Y0249566D01*
X0162248Y0249526D01*
X0162168Y0249489D01*
X0162086Y0249457D01*
X0162002Y0249427D01*
X0161918Y0249402D01*
X0161832Y0249380D01*
X0161746Y0249363D01*
X0161658Y0249349D01*
X0161570Y0249339D01*
X0161482Y0249333D01*
X0161394Y0249331D01*
X0161306Y0249333D01*
X0161218Y0249339D01*
X0161130Y0249349D01*
X0161042Y0249363D01*
X0160956Y0249380D01*
X0160870Y0249402D01*
X0160786Y0249427D01*
X0160702Y0249457D01*
X0160620Y0249489D01*
X0160540Y0249526D01*
X0160461Y0249566D01*
X0160384Y0249610D01*
X0160309Y0249657D01*
X0160237Y0249707D01*
X0160166Y0249761D01*
X0160099Y0249817D01*
X0160033Y0249877D01*
X0159971Y0249939D01*
X0159911Y0250005D01*
X0159855Y0250072D01*
X0159801Y0250143D01*
X0159751Y0250215D01*
X0159704Y0250290D01*
X0159660Y0250367D01*
X0159620Y0250446D01*
X0159583Y0250526D01*
X0159551Y0250608D01*
X0159521Y0250692D01*
X0159496Y0250776D01*
X0159474Y0250862D01*
X0159457Y0250948D01*
X0159443Y0251036D01*
X0159433Y0251124D01*
X0159427Y0251212D01*
X0159425Y0251300D01*
X0024425Y0251300D02*
X0024427Y0251388D01*
X0024433Y0251476D01*
X0024443Y0251564D01*
X0024457Y0251652D01*
X0024474Y0251738D01*
X0024496Y0251824D01*
X0024521Y0251908D01*
X0024551Y0251992D01*
X0024583Y0252074D01*
X0024620Y0252154D01*
X0024660Y0252233D01*
X0024704Y0252310D01*
X0024751Y0252385D01*
X0024801Y0252457D01*
X0024855Y0252528D01*
X0024911Y0252595D01*
X0024971Y0252661D01*
X0025033Y0252723D01*
X0025099Y0252783D01*
X0025166Y0252839D01*
X0025237Y0252893D01*
X0025309Y0252943D01*
X0025384Y0252990D01*
X0025461Y0253034D01*
X0025540Y0253074D01*
X0025620Y0253111D01*
X0025702Y0253143D01*
X0025786Y0253173D01*
X0025870Y0253198D01*
X0025956Y0253220D01*
X0026042Y0253237D01*
X0026130Y0253251D01*
X0026218Y0253261D01*
X0026306Y0253267D01*
X0026394Y0253269D01*
X0026482Y0253267D01*
X0026570Y0253261D01*
X0026658Y0253251D01*
X0026746Y0253237D01*
X0026832Y0253220D01*
X0026918Y0253198D01*
X0027002Y0253173D01*
X0027086Y0253143D01*
X0027168Y0253111D01*
X0027248Y0253074D01*
X0027327Y0253034D01*
X0027404Y0252990D01*
X0027479Y0252943D01*
X0027551Y0252893D01*
X0027622Y0252839D01*
X0027689Y0252783D01*
X0027755Y0252723D01*
X0027817Y0252661D01*
X0027877Y0252595D01*
X0027933Y0252528D01*
X0027987Y0252457D01*
X0028037Y0252385D01*
X0028084Y0252310D01*
X0028128Y0252233D01*
X0028168Y0252154D01*
X0028205Y0252074D01*
X0028237Y0251992D01*
X0028267Y0251908D01*
X0028292Y0251824D01*
X0028314Y0251738D01*
X0028331Y0251652D01*
X0028345Y0251564D01*
X0028355Y0251476D01*
X0028361Y0251388D01*
X0028363Y0251300D01*
X0028361Y0251212D01*
X0028355Y0251124D01*
X0028345Y0251036D01*
X0028331Y0250948D01*
X0028314Y0250862D01*
X0028292Y0250776D01*
X0028267Y0250692D01*
X0028237Y0250608D01*
X0028205Y0250526D01*
X0028168Y0250446D01*
X0028128Y0250367D01*
X0028084Y0250290D01*
X0028037Y0250215D01*
X0027987Y0250143D01*
X0027933Y0250072D01*
X0027877Y0250005D01*
X0027817Y0249939D01*
X0027755Y0249877D01*
X0027689Y0249817D01*
X0027622Y0249761D01*
X0027551Y0249707D01*
X0027479Y0249657D01*
X0027404Y0249610D01*
X0027327Y0249566D01*
X0027248Y0249526D01*
X0027168Y0249489D01*
X0027086Y0249457D01*
X0027002Y0249427D01*
X0026918Y0249402D01*
X0026832Y0249380D01*
X0026746Y0249363D01*
X0026658Y0249349D01*
X0026570Y0249339D01*
X0026482Y0249333D01*
X0026394Y0249331D01*
X0026306Y0249333D01*
X0026218Y0249339D01*
X0026130Y0249349D01*
X0026042Y0249363D01*
X0025956Y0249380D01*
X0025870Y0249402D01*
X0025786Y0249427D01*
X0025702Y0249457D01*
X0025620Y0249489D01*
X0025540Y0249526D01*
X0025461Y0249566D01*
X0025384Y0249610D01*
X0025309Y0249657D01*
X0025237Y0249707D01*
X0025166Y0249761D01*
X0025099Y0249817D01*
X0025033Y0249877D01*
X0024971Y0249939D01*
X0024911Y0250005D01*
X0024855Y0250072D01*
X0024801Y0250143D01*
X0024751Y0250215D01*
X0024704Y0250290D01*
X0024660Y0250367D01*
X0024620Y0250446D01*
X0024583Y0250526D01*
X0024551Y0250608D01*
X0024521Y0250692D01*
X0024496Y0250776D01*
X0024474Y0250862D01*
X0024457Y0250948D01*
X0024443Y0251036D01*
X0024433Y0251124D01*
X0024427Y0251212D01*
X0024425Y0251300D01*
D11*
X0045544Y0255889D02*
X0048010Y0255889D01*
X0053044Y0256094D02*
X0054071Y0256094D01*
X0054277Y0256094D02*
X0055099Y0254450D01*
X0056416Y0254450D02*
X0058882Y0258150D01*
X0056416Y0258150D02*
X0058882Y0254450D01*
X0054071Y0256094D02*
X0054134Y0256096D01*
X0054197Y0256102D01*
X0054260Y0256112D01*
X0054322Y0256125D01*
X0054383Y0256142D01*
X0054442Y0256163D01*
X0054501Y0256188D01*
X0054557Y0256216D01*
X0054612Y0256248D01*
X0054665Y0256283D01*
X0054715Y0256321D01*
X0054764Y0256362D01*
X0054809Y0256406D01*
X0054852Y0256453D01*
X0054891Y0256502D01*
X0054928Y0256554D01*
X0054961Y0256608D01*
X0054991Y0256664D01*
X0055018Y0256721D01*
X0055041Y0256780D01*
X0055060Y0256841D01*
X0055075Y0256902D01*
X0055087Y0256964D01*
X0055095Y0257027D01*
X0055099Y0257090D01*
X0055099Y0257154D01*
X0055095Y0257217D01*
X0055087Y0257280D01*
X0055075Y0257342D01*
X0055060Y0257403D01*
X0055041Y0257464D01*
X0055018Y0257523D01*
X0054991Y0257580D01*
X0054961Y0257636D01*
X0054928Y0257690D01*
X0054891Y0257742D01*
X0054852Y0257791D01*
X0054809Y0257838D01*
X0054764Y0257882D01*
X0054715Y0257923D01*
X0054665Y0257961D01*
X0054612Y0257996D01*
X0054557Y0258028D01*
X0054501Y0258056D01*
X0054442Y0258081D01*
X0054383Y0258102D01*
X0054322Y0258119D01*
X0054260Y0258132D01*
X0054197Y0258142D01*
X0054134Y0258148D01*
X0054071Y0258150D01*
X0053044Y0258150D01*
X0053044Y0254450D01*
X0064044Y0258150D02*
X0066099Y0258150D01*
X0065071Y0258150D02*
X0065071Y0254450D01*
X0067198Y0254450D02*
X0069665Y0258150D01*
X0067198Y0258150D02*
X0069665Y0254450D01*
X0074544Y0255889D02*
X0077010Y0255889D01*
X0075777Y0254656D02*
X0075777Y0257122D01*
X0124147Y0227328D02*
X0124149Y0227384D01*
X0124155Y0227440D01*
X0124164Y0227495D01*
X0124177Y0227550D01*
X0124194Y0227603D01*
X0124215Y0227655D01*
X0124239Y0227706D01*
X0124267Y0227755D01*
X0124297Y0227802D01*
X0124331Y0227847D01*
X0124368Y0227889D01*
X0124408Y0227929D01*
X0124450Y0227966D01*
X0124495Y0228000D01*
X0124542Y0228030D01*
X0124591Y0228058D01*
X0124642Y0228082D01*
X0124694Y0228103D01*
X0124747Y0228120D01*
X0124802Y0228133D01*
X0124857Y0228142D01*
X0124913Y0228148D01*
X0124969Y0228150D01*
X0124147Y0227328D02*
X0124149Y0227274D01*
X0124154Y0227220D01*
X0124163Y0227166D01*
X0124175Y0227114D01*
X0124191Y0227062D01*
X0124209Y0227011D01*
X0124232Y0226962D01*
X0124257Y0226914D01*
X0124285Y0226868D01*
X0124317Y0226823D01*
X0124351Y0226781D01*
X0124388Y0226742D01*
X0124427Y0226704D01*
X0124469Y0226670D01*
X0124512Y0226638D01*
X0124558Y0226609D01*
X0124558Y0226608D02*
X0125688Y0225992D01*
X0125277Y0224450D02*
X0125196Y0224452D01*
X0125116Y0224457D01*
X0125036Y0224467D01*
X0124956Y0224480D01*
X0124877Y0224497D01*
X0124799Y0224517D01*
X0124722Y0224541D01*
X0124646Y0224569D01*
X0124572Y0224600D01*
X0124499Y0224634D01*
X0124428Y0224672D01*
X0124358Y0224713D01*
X0124291Y0224757D01*
X0124225Y0224804D01*
X0124162Y0224855D01*
X0124102Y0224908D01*
X0124044Y0224964D01*
X0125688Y0225991D02*
X0125734Y0225962D01*
X0125777Y0225930D01*
X0125819Y0225896D01*
X0125858Y0225858D01*
X0125895Y0225819D01*
X0125929Y0225777D01*
X0125961Y0225732D01*
X0125989Y0225686D01*
X0126014Y0225638D01*
X0126037Y0225589D01*
X0126055Y0225538D01*
X0126071Y0225486D01*
X0126083Y0225434D01*
X0126092Y0225380D01*
X0126097Y0225326D01*
X0126099Y0225272D01*
X0126097Y0225216D01*
X0126091Y0225160D01*
X0126082Y0225105D01*
X0126069Y0225050D01*
X0126052Y0224997D01*
X0126031Y0224945D01*
X0126007Y0224894D01*
X0125979Y0224845D01*
X0125949Y0224798D01*
X0125915Y0224753D01*
X0125878Y0224711D01*
X0125838Y0224671D01*
X0125796Y0224634D01*
X0125751Y0224600D01*
X0125704Y0224570D01*
X0125655Y0224542D01*
X0125604Y0224518D01*
X0125552Y0224497D01*
X0125499Y0224480D01*
X0125444Y0224467D01*
X0125389Y0224458D01*
X0125333Y0224452D01*
X0125277Y0224450D01*
X0125894Y0227842D02*
X0125832Y0227886D01*
X0125768Y0227927D01*
X0125702Y0227965D01*
X0125633Y0227999D01*
X0125564Y0228031D01*
X0125493Y0228058D01*
X0125420Y0228082D01*
X0125347Y0228103D01*
X0125272Y0228120D01*
X0125197Y0228133D01*
X0125121Y0228142D01*
X0125045Y0228148D01*
X0124969Y0228150D01*
X0127644Y0228150D02*
X0127644Y0224450D01*
X0128671Y0224450D01*
X0128733Y0224452D01*
X0128795Y0224457D01*
X0128856Y0224467D01*
X0128917Y0224480D01*
X0128977Y0224497D01*
X0129036Y0224517D01*
X0129093Y0224541D01*
X0129149Y0224568D01*
X0129203Y0224598D01*
X0129255Y0224632D01*
X0129305Y0224669D01*
X0129353Y0224709D01*
X0129398Y0224751D01*
X0129440Y0224796D01*
X0129480Y0224844D01*
X0129517Y0224894D01*
X0129551Y0224946D01*
X0129581Y0225000D01*
X0129608Y0225056D01*
X0129632Y0225113D01*
X0129652Y0225172D01*
X0129669Y0225232D01*
X0129682Y0225293D01*
X0129692Y0225354D01*
X0129697Y0225416D01*
X0129699Y0225478D01*
X0129699Y0227122D01*
X0129697Y0227184D01*
X0129692Y0227246D01*
X0129682Y0227307D01*
X0129669Y0227368D01*
X0129652Y0227428D01*
X0129632Y0227487D01*
X0129608Y0227544D01*
X0129581Y0227600D01*
X0129551Y0227654D01*
X0129517Y0227706D01*
X0129480Y0227756D01*
X0129440Y0227804D01*
X0129398Y0227849D01*
X0129353Y0227891D01*
X0129305Y0227931D01*
X0129255Y0227968D01*
X0129203Y0228002D01*
X0129149Y0228032D01*
X0129093Y0228059D01*
X0129036Y0228083D01*
X0128977Y0228103D01*
X0128917Y0228120D01*
X0128856Y0228133D01*
X0128795Y0228143D01*
X0128733Y0228148D01*
X0128671Y0228150D01*
X0127644Y0228150D01*
X0132391Y0228150D02*
X0131158Y0224450D01*
X0131466Y0225375D02*
X0133316Y0225375D01*
X0133625Y0224450D02*
X0132391Y0228150D01*
X0130277Y0217122D02*
X0130277Y0214656D01*
X0129044Y0215889D02*
X0131510Y0215889D01*
X0130277Y0207122D02*
X0130277Y0204656D01*
X0129044Y0205889D02*
X0131510Y0205889D01*
X0137777Y0189122D02*
X0137777Y0186656D01*
X0136544Y0187889D02*
X0139010Y0187889D01*
X0142636Y0186450D02*
X0144281Y0186450D01*
X0145756Y0186450D02*
X0145756Y0190150D01*
X0147401Y0190150D01*
X0148869Y0190150D02*
X0148869Y0186450D01*
X0149897Y0186450D01*
X0149959Y0186452D01*
X0150021Y0186457D01*
X0150082Y0186467D01*
X0150143Y0186480D01*
X0150203Y0186497D01*
X0150262Y0186517D01*
X0150319Y0186541D01*
X0150375Y0186568D01*
X0150429Y0186598D01*
X0150481Y0186632D01*
X0150531Y0186669D01*
X0150579Y0186709D01*
X0150624Y0186751D01*
X0150666Y0186796D01*
X0150706Y0186844D01*
X0150743Y0186894D01*
X0150777Y0186946D01*
X0150807Y0187000D01*
X0150834Y0187056D01*
X0150858Y0187113D01*
X0150878Y0187172D01*
X0150895Y0187232D01*
X0150908Y0187293D01*
X0150918Y0187354D01*
X0150923Y0187416D01*
X0150925Y0187478D01*
X0150925Y0189122D01*
X0150923Y0189184D01*
X0150918Y0189246D01*
X0150908Y0189307D01*
X0150895Y0189368D01*
X0150878Y0189428D01*
X0150858Y0189487D01*
X0150834Y0189544D01*
X0150807Y0189600D01*
X0150777Y0189654D01*
X0150743Y0189706D01*
X0150706Y0189756D01*
X0150666Y0189804D01*
X0150624Y0189849D01*
X0150579Y0189891D01*
X0150531Y0189931D01*
X0150481Y0189968D01*
X0150429Y0190002D01*
X0150375Y0190032D01*
X0150319Y0190059D01*
X0150262Y0190083D01*
X0150203Y0190103D01*
X0150143Y0190120D01*
X0150082Y0190133D01*
X0150021Y0190143D01*
X0149959Y0190148D01*
X0149897Y0190150D01*
X0148869Y0190150D01*
X0146989Y0188506D02*
X0145756Y0188506D01*
X0145756Y0186450D02*
X0147401Y0186450D01*
X0142636Y0186450D02*
X0142636Y0190150D01*
X0154544Y0187889D02*
X0157010Y0187889D01*
X0159044Y0205889D02*
X0161510Y0205889D01*
X0161510Y0215889D02*
X0159044Y0215889D01*
X0161099Y0225272D02*
X0161097Y0225326D01*
X0161092Y0225380D01*
X0161083Y0225434D01*
X0161071Y0225486D01*
X0161055Y0225538D01*
X0161037Y0225589D01*
X0161014Y0225638D01*
X0160989Y0225686D01*
X0160961Y0225732D01*
X0160929Y0225777D01*
X0160895Y0225819D01*
X0160858Y0225858D01*
X0160819Y0225896D01*
X0160777Y0225930D01*
X0160734Y0225962D01*
X0160688Y0225991D01*
X0160688Y0225992D02*
X0159558Y0226608D01*
X0159969Y0228150D02*
X0160045Y0228148D01*
X0160121Y0228142D01*
X0160197Y0228133D01*
X0160272Y0228120D01*
X0160347Y0228103D01*
X0160420Y0228082D01*
X0160493Y0228058D01*
X0160564Y0228031D01*
X0160633Y0227999D01*
X0160702Y0227965D01*
X0160768Y0227927D01*
X0160832Y0227886D01*
X0160894Y0227842D01*
X0159558Y0226609D02*
X0159512Y0226638D01*
X0159469Y0226670D01*
X0159427Y0226704D01*
X0159388Y0226742D01*
X0159351Y0226781D01*
X0159317Y0226823D01*
X0159285Y0226868D01*
X0159257Y0226914D01*
X0159232Y0226962D01*
X0159209Y0227011D01*
X0159191Y0227062D01*
X0159175Y0227114D01*
X0159163Y0227166D01*
X0159154Y0227220D01*
X0159149Y0227274D01*
X0159147Y0227328D01*
X0159149Y0227384D01*
X0159155Y0227440D01*
X0159164Y0227495D01*
X0159177Y0227550D01*
X0159194Y0227603D01*
X0159215Y0227655D01*
X0159239Y0227706D01*
X0159267Y0227755D01*
X0159297Y0227802D01*
X0159331Y0227847D01*
X0159368Y0227889D01*
X0159408Y0227929D01*
X0159450Y0227966D01*
X0159495Y0228000D01*
X0159542Y0228030D01*
X0159591Y0228058D01*
X0159642Y0228082D01*
X0159694Y0228103D01*
X0159747Y0228120D01*
X0159802Y0228133D01*
X0159857Y0228142D01*
X0159913Y0228148D01*
X0159969Y0228150D01*
X0159044Y0224964D02*
X0159102Y0224908D01*
X0159162Y0224855D01*
X0159225Y0224804D01*
X0159291Y0224757D01*
X0159358Y0224713D01*
X0159428Y0224672D01*
X0159499Y0224634D01*
X0159572Y0224600D01*
X0159646Y0224569D01*
X0159722Y0224541D01*
X0159799Y0224517D01*
X0159877Y0224497D01*
X0159956Y0224480D01*
X0160036Y0224467D01*
X0160116Y0224457D01*
X0160196Y0224452D01*
X0160277Y0224450D01*
X0160333Y0224452D01*
X0160389Y0224458D01*
X0160444Y0224467D01*
X0160499Y0224480D01*
X0160552Y0224497D01*
X0160604Y0224518D01*
X0160655Y0224542D01*
X0160704Y0224570D01*
X0160751Y0224600D01*
X0160796Y0224634D01*
X0160838Y0224671D01*
X0160878Y0224711D01*
X0160915Y0224753D01*
X0160949Y0224798D01*
X0160979Y0224845D01*
X0161007Y0224894D01*
X0161031Y0224945D01*
X0161052Y0224997D01*
X0161069Y0225050D01*
X0161082Y0225105D01*
X0161091Y0225160D01*
X0161097Y0225216D01*
X0161099Y0225272D01*
X0162514Y0225272D02*
X0162514Y0227328D01*
X0162516Y0227384D01*
X0162522Y0227440D01*
X0162531Y0227495D01*
X0162544Y0227550D01*
X0162561Y0227603D01*
X0162582Y0227655D01*
X0162606Y0227706D01*
X0162634Y0227755D01*
X0162664Y0227802D01*
X0162698Y0227847D01*
X0162735Y0227889D01*
X0162775Y0227929D01*
X0162817Y0227966D01*
X0162862Y0228000D01*
X0162909Y0228030D01*
X0162958Y0228058D01*
X0163009Y0228082D01*
X0163061Y0228103D01*
X0163114Y0228120D01*
X0163169Y0228133D01*
X0163224Y0228142D01*
X0163280Y0228148D01*
X0163336Y0228150D01*
X0164158Y0228150D01*
X0165651Y0228150D02*
X0165651Y0224450D01*
X0167295Y0224450D01*
X0164158Y0224450D02*
X0163336Y0224450D01*
X0163280Y0224452D01*
X0163224Y0224458D01*
X0163169Y0224467D01*
X0163114Y0224480D01*
X0163061Y0224497D01*
X0163009Y0224518D01*
X0162958Y0224542D01*
X0162909Y0224570D01*
X0162862Y0224600D01*
X0162817Y0224634D01*
X0162775Y0224671D01*
X0162735Y0224711D01*
X0162698Y0224753D01*
X0162664Y0224798D01*
X0162634Y0224845D01*
X0162606Y0224894D01*
X0162582Y0224945D01*
X0162561Y0224997D01*
X0162544Y0225050D01*
X0162531Y0225105D01*
X0162522Y0225160D01*
X0162516Y0225216D01*
X0162514Y0225272D01*
X0163576Y0234450D02*
X0164398Y0234450D01*
X0163576Y0234450D02*
X0163520Y0234452D01*
X0163464Y0234458D01*
X0163409Y0234467D01*
X0163354Y0234480D01*
X0163301Y0234497D01*
X0163249Y0234518D01*
X0163198Y0234542D01*
X0163149Y0234570D01*
X0163102Y0234600D01*
X0163057Y0234634D01*
X0163015Y0234671D01*
X0162975Y0234711D01*
X0162938Y0234753D01*
X0162904Y0234798D01*
X0162874Y0234845D01*
X0162846Y0234894D01*
X0162822Y0234945D01*
X0162801Y0234997D01*
X0162784Y0235050D01*
X0162771Y0235105D01*
X0162762Y0235160D01*
X0162756Y0235216D01*
X0162754Y0235272D01*
X0162754Y0237328D01*
X0162756Y0237384D01*
X0162762Y0237440D01*
X0162771Y0237495D01*
X0162784Y0237550D01*
X0162801Y0237603D01*
X0162822Y0237655D01*
X0162846Y0237706D01*
X0162874Y0237755D01*
X0162904Y0237802D01*
X0162938Y0237847D01*
X0162975Y0237889D01*
X0163015Y0237929D01*
X0163057Y0237966D01*
X0163102Y0238000D01*
X0163149Y0238030D01*
X0163198Y0238058D01*
X0163249Y0238082D01*
X0163301Y0238103D01*
X0163354Y0238120D01*
X0163409Y0238133D01*
X0163464Y0238142D01*
X0163520Y0238148D01*
X0163576Y0238150D01*
X0164398Y0238150D01*
X0161099Y0238150D02*
X0161099Y0234450D01*
X0159044Y0238150D01*
X0159044Y0234450D01*
X0159734Y0244450D02*
X0159734Y0248150D01*
X0157678Y0248150D02*
X0157678Y0244450D01*
X0156117Y0244450D02*
X0155295Y0244450D01*
X0155706Y0244450D02*
X0155706Y0248150D01*
X0155295Y0248150D02*
X0156117Y0248150D01*
X0157678Y0248150D02*
X0159734Y0244450D01*
X0151956Y0244450D02*
X0151134Y0246094D01*
X0150928Y0246094D02*
X0149901Y0246094D01*
X0150928Y0246094D02*
X0150991Y0246096D01*
X0151054Y0246102D01*
X0151117Y0246112D01*
X0151179Y0246125D01*
X0151240Y0246142D01*
X0151299Y0246163D01*
X0151358Y0246188D01*
X0151414Y0246216D01*
X0151469Y0246248D01*
X0151522Y0246283D01*
X0151572Y0246321D01*
X0151621Y0246362D01*
X0151666Y0246406D01*
X0151709Y0246453D01*
X0151748Y0246502D01*
X0151785Y0246554D01*
X0151818Y0246608D01*
X0151848Y0246664D01*
X0151875Y0246721D01*
X0151898Y0246780D01*
X0151917Y0246841D01*
X0151932Y0246902D01*
X0151944Y0246964D01*
X0151952Y0247027D01*
X0151956Y0247090D01*
X0151956Y0247154D01*
X0151952Y0247217D01*
X0151944Y0247280D01*
X0151932Y0247342D01*
X0151917Y0247403D01*
X0151898Y0247464D01*
X0151875Y0247523D01*
X0151848Y0247580D01*
X0151818Y0247636D01*
X0151785Y0247690D01*
X0151748Y0247742D01*
X0151709Y0247791D01*
X0151666Y0247838D01*
X0151621Y0247882D01*
X0151572Y0247923D01*
X0151522Y0247961D01*
X0151469Y0247996D01*
X0151414Y0248028D01*
X0151358Y0248056D01*
X0151299Y0248081D01*
X0151240Y0248102D01*
X0151179Y0248119D01*
X0151117Y0248132D01*
X0151054Y0248142D01*
X0150991Y0248148D01*
X0150928Y0248150D01*
X0149901Y0248150D01*
X0149901Y0244450D01*
X0148317Y0244450D02*
X0147495Y0244450D01*
X0147906Y0244450D02*
X0147906Y0248150D01*
X0147495Y0248150D02*
X0148317Y0248150D01*
X0145198Y0248150D02*
X0144170Y0248150D01*
X0144170Y0244450D01*
X0144170Y0246094D02*
X0145198Y0246094D01*
X0145261Y0246096D01*
X0145324Y0246102D01*
X0145387Y0246112D01*
X0145449Y0246125D01*
X0145510Y0246142D01*
X0145569Y0246163D01*
X0145628Y0246188D01*
X0145684Y0246216D01*
X0145739Y0246248D01*
X0145792Y0246283D01*
X0145842Y0246321D01*
X0145891Y0246362D01*
X0145936Y0246406D01*
X0145979Y0246453D01*
X0146018Y0246502D01*
X0146055Y0246554D01*
X0146088Y0246608D01*
X0146118Y0246664D01*
X0146145Y0246721D01*
X0146168Y0246780D01*
X0146187Y0246841D01*
X0146202Y0246902D01*
X0146214Y0246964D01*
X0146222Y0247027D01*
X0146226Y0247090D01*
X0146226Y0247154D01*
X0146222Y0247217D01*
X0146214Y0247280D01*
X0146202Y0247342D01*
X0146187Y0247403D01*
X0146168Y0247464D01*
X0146145Y0247523D01*
X0146118Y0247580D01*
X0146088Y0247636D01*
X0146055Y0247690D01*
X0146018Y0247742D01*
X0145979Y0247791D01*
X0145936Y0247838D01*
X0145891Y0247882D01*
X0145842Y0247923D01*
X0145792Y0247961D01*
X0145739Y0247996D01*
X0145684Y0248028D01*
X0145628Y0248056D01*
X0145569Y0248081D01*
X0145510Y0248102D01*
X0145449Y0248119D01*
X0145387Y0248132D01*
X0145324Y0248142D01*
X0145261Y0248148D01*
X0145198Y0248150D01*
X0140688Y0246917D02*
X0139866Y0244450D01*
X0139044Y0246917D01*
X0160730Y0136176D02*
X0160634Y0136131D01*
X0160536Y0136090D01*
X0160436Y0136052D01*
X0160336Y0136017D01*
X0160234Y0135986D01*
X0160131Y0135958D01*
X0160028Y0135935D01*
X0159923Y0135914D01*
X0159818Y0135898D01*
X0159713Y0135885D01*
X0159607Y0135875D01*
X0159500Y0135870D01*
X0159394Y0135868D01*
X0159394Y0137923D02*
X0159288Y0137921D01*
X0159181Y0137916D01*
X0159075Y0137906D01*
X0158970Y0137893D01*
X0158865Y0137877D01*
X0158760Y0137856D01*
X0158657Y0137833D01*
X0158554Y0137805D01*
X0158452Y0137774D01*
X0158352Y0137739D01*
X0158252Y0137701D01*
X0158154Y0137660D01*
X0158058Y0137615D01*
X0158366Y0137717D02*
X0160421Y0136073D01*
X0161244Y0136895D02*
X0161242Y0136947D01*
X0161237Y0137000D01*
X0161228Y0137051D01*
X0161215Y0137102D01*
X0161199Y0137152D01*
X0161180Y0137201D01*
X0161157Y0137248D01*
X0161131Y0137294D01*
X0161102Y0137337D01*
X0161070Y0137379D01*
X0161036Y0137418D01*
X0160998Y0137455D01*
X0160958Y0137489D01*
X0160916Y0137521D01*
X0160872Y0137549D01*
X0160826Y0137574D01*
X0160779Y0137596D01*
X0160730Y0137615D01*
X0161244Y0136895D02*
X0161242Y0136843D01*
X0161237Y0136790D01*
X0161228Y0136739D01*
X0161215Y0136688D01*
X0161199Y0136638D01*
X0161180Y0136589D01*
X0161157Y0136542D01*
X0161131Y0136496D01*
X0161102Y0136453D01*
X0161070Y0136411D01*
X0161036Y0136372D01*
X0160998Y0136335D01*
X0160958Y0136301D01*
X0160916Y0136269D01*
X0160872Y0136241D01*
X0160826Y0136216D01*
X0160779Y0136194D01*
X0160730Y0136175D01*
X0161038Y0134478D02*
X0161244Y0134478D01*
X0161244Y0134272D01*
X0161038Y0134272D01*
X0161038Y0134478D01*
X0161244Y0132883D02*
X0161244Y0130827D01*
X0161244Y0131855D02*
X0157544Y0131855D01*
X0158366Y0130827D01*
X0158777Y0129437D02*
X0161244Y0128615D01*
X0158777Y0127793D01*
X0157544Y0124723D02*
X0157544Y0122667D01*
X0157544Y0123695D02*
X0161244Y0123695D01*
X0161244Y0121385D02*
X0159599Y0120563D01*
X0159599Y0120358D02*
X0159599Y0119330D01*
X0159599Y0120358D02*
X0159597Y0120421D01*
X0159591Y0120484D01*
X0159581Y0120547D01*
X0159568Y0120609D01*
X0159551Y0120670D01*
X0159530Y0120729D01*
X0159505Y0120788D01*
X0159477Y0120844D01*
X0159445Y0120899D01*
X0159410Y0120952D01*
X0159372Y0121002D01*
X0159331Y0121051D01*
X0159287Y0121096D01*
X0159240Y0121139D01*
X0159191Y0121178D01*
X0159139Y0121215D01*
X0159085Y0121248D01*
X0159029Y0121278D01*
X0158972Y0121305D01*
X0158913Y0121328D01*
X0158852Y0121347D01*
X0158791Y0121362D01*
X0158729Y0121374D01*
X0158666Y0121382D01*
X0158603Y0121386D01*
X0158539Y0121386D01*
X0158476Y0121382D01*
X0158413Y0121374D01*
X0158351Y0121362D01*
X0158290Y0121347D01*
X0158229Y0121328D01*
X0158170Y0121305D01*
X0158113Y0121278D01*
X0158057Y0121248D01*
X0158003Y0121215D01*
X0157951Y0121178D01*
X0157902Y0121139D01*
X0157855Y0121096D01*
X0157811Y0121051D01*
X0157770Y0121002D01*
X0157732Y0120952D01*
X0157697Y0120899D01*
X0157665Y0120844D01*
X0157637Y0120788D01*
X0157612Y0120729D01*
X0157591Y0120670D01*
X0157574Y0120609D01*
X0157561Y0120547D01*
X0157551Y0120484D01*
X0157545Y0120421D01*
X0157543Y0120358D01*
X0157544Y0120358D02*
X0157544Y0119330D01*
X0161244Y0119330D01*
X0161244Y0117746D02*
X0161244Y0116924D01*
X0161244Y0117335D02*
X0157544Y0117335D01*
X0157544Y0116924D02*
X0157544Y0117746D01*
X0157544Y0115620D02*
X0161244Y0114798D01*
X0158777Y0113975D01*
X0161244Y0113153D01*
X0157544Y0112331D01*
X0157544Y0110067D02*
X0157544Y0109039D01*
X0161244Y0109039D01*
X0161244Y0110067D01*
X0161242Y0110130D01*
X0161236Y0110193D01*
X0161226Y0110256D01*
X0161213Y0110318D01*
X0161196Y0110379D01*
X0161175Y0110438D01*
X0161150Y0110497D01*
X0161122Y0110553D01*
X0161090Y0110608D01*
X0161055Y0110661D01*
X0161017Y0110711D01*
X0160976Y0110760D01*
X0160932Y0110805D01*
X0160885Y0110848D01*
X0160836Y0110887D01*
X0160784Y0110924D01*
X0160730Y0110957D01*
X0160674Y0110987D01*
X0160617Y0111014D01*
X0160558Y0111037D01*
X0160497Y0111056D01*
X0160436Y0111071D01*
X0160374Y0111083D01*
X0160311Y0111091D01*
X0160248Y0111095D01*
X0160184Y0111095D01*
X0160121Y0111091D01*
X0160058Y0111083D01*
X0159996Y0111071D01*
X0159935Y0111056D01*
X0159874Y0111037D01*
X0159815Y0111014D01*
X0159758Y0110987D01*
X0159702Y0110957D01*
X0159648Y0110924D01*
X0159596Y0110887D01*
X0159547Y0110848D01*
X0159500Y0110805D01*
X0159456Y0110760D01*
X0159415Y0110711D01*
X0159377Y0110661D01*
X0159342Y0110608D01*
X0159310Y0110553D01*
X0159282Y0110497D01*
X0159257Y0110438D01*
X0159236Y0110379D01*
X0159219Y0110318D01*
X0159206Y0110256D01*
X0159196Y0110193D01*
X0159190Y0110130D01*
X0159188Y0110067D01*
X0159188Y0109039D01*
X0159188Y0110067D02*
X0159186Y0110123D01*
X0159180Y0110179D01*
X0159171Y0110234D01*
X0159158Y0110289D01*
X0159141Y0110342D01*
X0159120Y0110394D01*
X0159096Y0110445D01*
X0159068Y0110494D01*
X0159038Y0110541D01*
X0159004Y0110586D01*
X0158967Y0110628D01*
X0158927Y0110668D01*
X0158885Y0110705D01*
X0158840Y0110739D01*
X0158793Y0110769D01*
X0158744Y0110797D01*
X0158693Y0110821D01*
X0158641Y0110842D01*
X0158588Y0110859D01*
X0158533Y0110872D01*
X0158478Y0110881D01*
X0158422Y0110887D01*
X0158366Y0110889D01*
X0158310Y0110887D01*
X0158254Y0110881D01*
X0158199Y0110872D01*
X0158144Y0110859D01*
X0158091Y0110842D01*
X0158039Y0110821D01*
X0157988Y0110797D01*
X0157939Y0110769D01*
X0157892Y0110739D01*
X0157847Y0110705D01*
X0157805Y0110668D01*
X0157765Y0110628D01*
X0157728Y0110586D01*
X0157694Y0110541D01*
X0157664Y0110494D01*
X0157636Y0110445D01*
X0157612Y0110394D01*
X0157591Y0110342D01*
X0157574Y0110289D01*
X0157561Y0110234D01*
X0157552Y0110179D01*
X0157546Y0110123D01*
X0157544Y0110067D01*
X0157544Y0107203D02*
X0157544Y0105970D01*
X0157546Y0105914D01*
X0157552Y0105858D01*
X0157561Y0105803D01*
X0157574Y0105748D01*
X0157591Y0105695D01*
X0157612Y0105642D01*
X0157636Y0105592D01*
X0157664Y0105543D01*
X0157694Y0105496D01*
X0157728Y0105451D01*
X0157765Y0105409D01*
X0157805Y0105369D01*
X0157847Y0105332D01*
X0157892Y0105298D01*
X0157939Y0105268D01*
X0157988Y0105240D01*
X0158039Y0105216D01*
X0158091Y0105195D01*
X0158144Y0105178D01*
X0158199Y0105165D01*
X0158254Y0105156D01*
X0158310Y0105150D01*
X0158366Y0105148D01*
X0160421Y0105148D01*
X0160477Y0105150D01*
X0160533Y0105156D01*
X0160588Y0105165D01*
X0160643Y0105178D01*
X0160696Y0105195D01*
X0160748Y0105216D01*
X0160799Y0105240D01*
X0160848Y0105268D01*
X0160895Y0105298D01*
X0160940Y0105332D01*
X0160982Y0105369D01*
X0161022Y0105409D01*
X0161059Y0105451D01*
X0161093Y0105496D01*
X0161123Y0105543D01*
X0161151Y0105592D01*
X0161175Y0105643D01*
X0161196Y0105695D01*
X0161213Y0105748D01*
X0161226Y0105803D01*
X0161235Y0105858D01*
X0161241Y0105914D01*
X0161243Y0105970D01*
X0161244Y0105970D02*
X0161244Y0107203D01*
X0159188Y0107203D01*
X0159188Y0106586D01*
X0161244Y0103506D02*
X0159599Y0102683D01*
X0159599Y0102478D02*
X0159599Y0101450D01*
X0159599Y0102478D02*
X0159597Y0102541D01*
X0159591Y0102604D01*
X0159581Y0102667D01*
X0159568Y0102729D01*
X0159551Y0102790D01*
X0159530Y0102849D01*
X0159505Y0102908D01*
X0159477Y0102964D01*
X0159445Y0103019D01*
X0159410Y0103072D01*
X0159372Y0103122D01*
X0159331Y0103171D01*
X0159287Y0103216D01*
X0159240Y0103259D01*
X0159191Y0103298D01*
X0159139Y0103335D01*
X0159085Y0103368D01*
X0159029Y0103398D01*
X0158972Y0103425D01*
X0158913Y0103448D01*
X0158852Y0103467D01*
X0158791Y0103482D01*
X0158729Y0103494D01*
X0158666Y0103502D01*
X0158603Y0103506D01*
X0158539Y0103506D01*
X0158476Y0103502D01*
X0158413Y0103494D01*
X0158351Y0103482D01*
X0158290Y0103467D01*
X0158229Y0103448D01*
X0158170Y0103425D01*
X0158113Y0103398D01*
X0158057Y0103368D01*
X0158003Y0103335D01*
X0157951Y0103298D01*
X0157902Y0103259D01*
X0157855Y0103216D01*
X0157811Y0103171D01*
X0157770Y0103122D01*
X0157732Y0103072D01*
X0157697Y0103019D01*
X0157665Y0102964D01*
X0157637Y0102908D01*
X0157612Y0102849D01*
X0157591Y0102790D01*
X0157574Y0102729D01*
X0157561Y0102667D01*
X0157551Y0102604D01*
X0157545Y0102541D01*
X0157543Y0102478D01*
X0157544Y0102478D02*
X0157544Y0101450D01*
X0161244Y0101450D01*
X0159044Y0092239D02*
X0162744Y0091417D01*
X0160277Y0090594D01*
X0162744Y0089772D01*
X0159044Y0088950D01*
X0159044Y0080978D02*
X0159044Y0079950D01*
X0162744Y0079950D01*
X0162744Y0080978D01*
X0162742Y0081041D01*
X0162736Y0081104D01*
X0162726Y0081167D01*
X0162713Y0081229D01*
X0162696Y0081290D01*
X0162675Y0081349D01*
X0162650Y0081408D01*
X0162622Y0081464D01*
X0162590Y0081519D01*
X0162555Y0081572D01*
X0162517Y0081622D01*
X0162476Y0081671D01*
X0162432Y0081716D01*
X0162385Y0081759D01*
X0162336Y0081798D01*
X0162284Y0081835D01*
X0162230Y0081868D01*
X0162174Y0081898D01*
X0162117Y0081925D01*
X0162058Y0081948D01*
X0161997Y0081967D01*
X0161936Y0081982D01*
X0161874Y0081994D01*
X0161811Y0082002D01*
X0161748Y0082006D01*
X0161684Y0082006D01*
X0161621Y0082002D01*
X0161558Y0081994D01*
X0161496Y0081982D01*
X0161435Y0081967D01*
X0161374Y0081948D01*
X0161315Y0081925D01*
X0161258Y0081898D01*
X0161202Y0081868D01*
X0161148Y0081835D01*
X0161096Y0081798D01*
X0161047Y0081759D01*
X0161000Y0081716D01*
X0160956Y0081671D01*
X0160915Y0081622D01*
X0160877Y0081572D01*
X0160842Y0081519D01*
X0160810Y0081464D01*
X0160782Y0081408D01*
X0160757Y0081349D01*
X0160736Y0081290D01*
X0160719Y0081229D01*
X0160706Y0081167D01*
X0160696Y0081104D01*
X0160690Y0081041D01*
X0160688Y0080978D01*
X0160688Y0079950D01*
X0160688Y0080978D02*
X0160686Y0081034D01*
X0160680Y0081090D01*
X0160671Y0081145D01*
X0160658Y0081200D01*
X0160641Y0081253D01*
X0160620Y0081305D01*
X0160596Y0081356D01*
X0160568Y0081405D01*
X0160538Y0081452D01*
X0160504Y0081497D01*
X0160467Y0081539D01*
X0160427Y0081579D01*
X0160385Y0081616D01*
X0160340Y0081650D01*
X0160293Y0081680D01*
X0160244Y0081708D01*
X0160193Y0081732D01*
X0160141Y0081753D01*
X0160088Y0081770D01*
X0160033Y0081783D01*
X0159978Y0081792D01*
X0159922Y0081798D01*
X0159866Y0081800D01*
X0159810Y0081798D01*
X0159754Y0081792D01*
X0159699Y0081783D01*
X0159644Y0081770D01*
X0159591Y0081753D01*
X0159539Y0081732D01*
X0159488Y0081708D01*
X0159439Y0081680D01*
X0159392Y0081650D01*
X0159347Y0081616D01*
X0159305Y0081579D01*
X0159265Y0081539D01*
X0159228Y0081497D01*
X0159194Y0081452D01*
X0159164Y0081405D01*
X0159136Y0081356D01*
X0159112Y0081305D01*
X0159091Y0081253D01*
X0159074Y0081200D01*
X0159061Y0081145D01*
X0159052Y0081090D01*
X0159046Y0081034D01*
X0159044Y0080978D01*
X0162744Y0072006D02*
X0161099Y0071183D01*
X0161099Y0070978D02*
X0161099Y0069950D01*
X0161099Y0070978D02*
X0161097Y0071041D01*
X0161091Y0071104D01*
X0161081Y0071167D01*
X0161068Y0071229D01*
X0161051Y0071290D01*
X0161030Y0071349D01*
X0161005Y0071408D01*
X0160977Y0071464D01*
X0160945Y0071519D01*
X0160910Y0071572D01*
X0160872Y0071622D01*
X0160831Y0071671D01*
X0160787Y0071716D01*
X0160740Y0071759D01*
X0160691Y0071798D01*
X0160639Y0071835D01*
X0160585Y0071868D01*
X0160529Y0071898D01*
X0160472Y0071925D01*
X0160413Y0071948D01*
X0160352Y0071967D01*
X0160291Y0071982D01*
X0160229Y0071994D01*
X0160166Y0072002D01*
X0160103Y0072006D01*
X0160039Y0072006D01*
X0159976Y0072002D01*
X0159913Y0071994D01*
X0159851Y0071982D01*
X0159790Y0071967D01*
X0159729Y0071948D01*
X0159670Y0071925D01*
X0159613Y0071898D01*
X0159557Y0071868D01*
X0159503Y0071835D01*
X0159451Y0071798D01*
X0159402Y0071759D01*
X0159355Y0071716D01*
X0159311Y0071671D01*
X0159270Y0071622D01*
X0159232Y0071572D01*
X0159197Y0071519D01*
X0159165Y0071464D01*
X0159137Y0071408D01*
X0159112Y0071349D01*
X0159091Y0071290D01*
X0159074Y0071229D01*
X0159061Y0071167D01*
X0159051Y0071104D01*
X0159045Y0071041D01*
X0159043Y0070978D01*
X0159044Y0070978D02*
X0159044Y0069950D01*
X0162744Y0069950D01*
X0163244Y0061006D02*
X0161188Y0061006D01*
X0161188Y0060389D01*
X0160366Y0058950D02*
X0160310Y0058952D01*
X0160254Y0058958D01*
X0160199Y0058967D01*
X0160144Y0058980D01*
X0160091Y0058997D01*
X0160039Y0059018D01*
X0159988Y0059042D01*
X0159939Y0059070D01*
X0159892Y0059100D01*
X0159847Y0059134D01*
X0159805Y0059171D01*
X0159765Y0059211D01*
X0159728Y0059253D01*
X0159694Y0059298D01*
X0159664Y0059345D01*
X0159636Y0059394D01*
X0159612Y0059444D01*
X0159591Y0059497D01*
X0159574Y0059550D01*
X0159561Y0059605D01*
X0159552Y0059660D01*
X0159546Y0059716D01*
X0159544Y0059772D01*
X0159544Y0061006D01*
X0160366Y0058950D02*
X0162421Y0058950D01*
X0162477Y0058952D01*
X0162533Y0058958D01*
X0162588Y0058967D01*
X0162643Y0058980D01*
X0162696Y0058997D01*
X0162748Y0059018D01*
X0162799Y0059042D01*
X0162848Y0059070D01*
X0162895Y0059100D01*
X0162940Y0059134D01*
X0162982Y0059171D01*
X0163022Y0059211D01*
X0163059Y0059253D01*
X0163093Y0059298D01*
X0163123Y0059345D01*
X0163151Y0059394D01*
X0163175Y0059445D01*
X0163196Y0059497D01*
X0163213Y0059550D01*
X0163226Y0059605D01*
X0163235Y0059660D01*
X0163241Y0059716D01*
X0163243Y0059772D01*
X0163244Y0059772D02*
X0163244Y0061006D01*
X0161805Y0054417D02*
X0161805Y0051950D01*
X0163038Y0053183D02*
X0160571Y0053183D01*
X0159510Y0020889D02*
X0157044Y0020889D01*
X0118538Y0020183D02*
X0116071Y0020183D01*
X0117305Y0018950D02*
X0117305Y0021417D01*
X0095783Y0016657D02*
X0095738Y0016753D01*
X0095697Y0016851D01*
X0095659Y0016951D01*
X0095624Y0017051D01*
X0095593Y0017153D01*
X0095565Y0017256D01*
X0095542Y0017359D01*
X0095521Y0017464D01*
X0095505Y0017569D01*
X0095492Y0017674D01*
X0095482Y0017780D01*
X0095477Y0017887D01*
X0095475Y0017993D01*
X0097530Y0017993D02*
X0097528Y0018099D01*
X0097523Y0018206D01*
X0097513Y0018312D01*
X0097500Y0018417D01*
X0097484Y0018522D01*
X0097463Y0018627D01*
X0097440Y0018730D01*
X0097412Y0018833D01*
X0097381Y0018935D01*
X0097346Y0019035D01*
X0097308Y0019135D01*
X0097267Y0019233D01*
X0097222Y0019329D01*
X0097325Y0019021D02*
X0095680Y0016965D01*
X0096503Y0016142D02*
X0096555Y0016144D01*
X0096608Y0016149D01*
X0096659Y0016158D01*
X0096710Y0016171D01*
X0096760Y0016187D01*
X0096809Y0016206D01*
X0096856Y0016229D01*
X0096902Y0016255D01*
X0096945Y0016284D01*
X0096987Y0016316D01*
X0097026Y0016350D01*
X0097063Y0016388D01*
X0097097Y0016428D01*
X0097129Y0016470D01*
X0097157Y0016514D01*
X0097182Y0016560D01*
X0097204Y0016607D01*
X0097223Y0016656D01*
X0096503Y0016142D02*
X0096451Y0016144D01*
X0096398Y0016149D01*
X0096347Y0016158D01*
X0096296Y0016171D01*
X0096246Y0016187D01*
X0096197Y0016206D01*
X0096150Y0016229D01*
X0096104Y0016255D01*
X0096061Y0016284D01*
X0096019Y0016316D01*
X0095980Y0016350D01*
X0095943Y0016388D01*
X0095909Y0016428D01*
X0095877Y0016470D01*
X0095849Y0016514D01*
X0095824Y0016560D01*
X0095802Y0016607D01*
X0095783Y0016656D01*
X0097222Y0016657D02*
X0097267Y0016753D01*
X0097308Y0016851D01*
X0097346Y0016951D01*
X0097381Y0017051D01*
X0097412Y0017153D01*
X0097440Y0017256D01*
X0097463Y0017359D01*
X0097484Y0017464D01*
X0097500Y0017569D01*
X0097513Y0017674D01*
X0097523Y0017780D01*
X0097528Y0017887D01*
X0097530Y0017993D01*
X0095475Y0017993D02*
X0095477Y0018099D01*
X0095482Y0018206D01*
X0095492Y0018312D01*
X0095505Y0018417D01*
X0095521Y0018522D01*
X0095542Y0018627D01*
X0095565Y0018730D01*
X0095593Y0018833D01*
X0095624Y0018935D01*
X0095659Y0019035D01*
X0095697Y0019135D01*
X0095738Y0019233D01*
X0095783Y0019329D01*
X0096503Y0019843D02*
X0096555Y0019841D01*
X0096608Y0019836D01*
X0096659Y0019827D01*
X0096710Y0019814D01*
X0096760Y0019798D01*
X0096809Y0019779D01*
X0096856Y0019756D01*
X0096902Y0019730D01*
X0096945Y0019701D01*
X0096987Y0019669D01*
X0097026Y0019635D01*
X0097063Y0019597D01*
X0097097Y0019557D01*
X0097129Y0019515D01*
X0097157Y0019471D01*
X0097182Y0019425D01*
X0097204Y0019378D01*
X0097223Y0019329D01*
X0096503Y0019843D02*
X0096451Y0019841D01*
X0096398Y0019836D01*
X0096347Y0019827D01*
X0096296Y0019814D01*
X0096246Y0019798D01*
X0096197Y0019779D01*
X0096150Y0019756D01*
X0096104Y0019730D01*
X0096061Y0019701D01*
X0096019Y0019669D01*
X0095980Y0019635D01*
X0095943Y0019597D01*
X0095909Y0019557D01*
X0095877Y0019515D01*
X0095849Y0019471D01*
X0095824Y0019425D01*
X0095802Y0019378D01*
X0095783Y0019329D01*
X0093519Y0019842D02*
X0093438Y0019840D01*
X0093358Y0019834D01*
X0093278Y0019824D01*
X0093198Y0019810D01*
X0093120Y0019793D01*
X0093042Y0019771D01*
X0092965Y0019746D01*
X0092890Y0019717D01*
X0092816Y0019684D01*
X0092744Y0019648D01*
X0092674Y0019608D01*
X0092606Y0019565D01*
X0092540Y0019518D01*
X0092476Y0019469D01*
X0092415Y0019416D01*
X0092357Y0019360D01*
X0092301Y0019302D01*
X0092248Y0019241D01*
X0092199Y0019177D01*
X0092152Y0019111D01*
X0092109Y0019043D01*
X0092069Y0018973D01*
X0092033Y0018901D01*
X0092000Y0018827D01*
X0091971Y0018752D01*
X0091946Y0018675D01*
X0091924Y0018597D01*
X0091907Y0018519D01*
X0091893Y0018439D01*
X0091883Y0018359D01*
X0091877Y0018279D01*
X0091875Y0018198D01*
X0091875Y0017171D01*
X0091875Y0018198D02*
X0093108Y0018198D01*
X0093164Y0018196D01*
X0093220Y0018190D01*
X0093275Y0018181D01*
X0093330Y0018168D01*
X0093383Y0018151D01*
X0093435Y0018130D01*
X0093486Y0018106D01*
X0093535Y0018078D01*
X0093582Y0018048D01*
X0093627Y0018014D01*
X0093669Y0017977D01*
X0093709Y0017937D01*
X0093746Y0017895D01*
X0093780Y0017850D01*
X0093810Y0017803D01*
X0093838Y0017754D01*
X0093862Y0017703D01*
X0093883Y0017651D01*
X0093900Y0017598D01*
X0093913Y0017543D01*
X0093922Y0017488D01*
X0093928Y0017432D01*
X0093930Y0017376D01*
X0093930Y0017171D01*
X0093931Y0017171D02*
X0093929Y0017108D01*
X0093923Y0017045D01*
X0093913Y0016982D01*
X0093900Y0016920D01*
X0093883Y0016859D01*
X0093862Y0016800D01*
X0093837Y0016741D01*
X0093809Y0016685D01*
X0093777Y0016630D01*
X0093742Y0016577D01*
X0093704Y0016527D01*
X0093663Y0016478D01*
X0093619Y0016433D01*
X0093572Y0016390D01*
X0093523Y0016351D01*
X0093471Y0016314D01*
X0093417Y0016281D01*
X0093361Y0016251D01*
X0093304Y0016224D01*
X0093245Y0016201D01*
X0093184Y0016182D01*
X0093123Y0016167D01*
X0093061Y0016155D01*
X0092998Y0016147D01*
X0092935Y0016143D01*
X0092871Y0016143D01*
X0092808Y0016147D01*
X0092745Y0016155D01*
X0092683Y0016167D01*
X0092622Y0016182D01*
X0092561Y0016201D01*
X0092502Y0016224D01*
X0092445Y0016251D01*
X0092389Y0016281D01*
X0092335Y0016314D01*
X0092283Y0016351D01*
X0092234Y0016390D01*
X0092187Y0016433D01*
X0092143Y0016478D01*
X0092102Y0016527D01*
X0092064Y0016577D01*
X0092029Y0016630D01*
X0091997Y0016685D01*
X0091969Y0016741D01*
X0091944Y0016800D01*
X0091923Y0016859D01*
X0091906Y0016920D01*
X0091893Y0016982D01*
X0091883Y0017045D01*
X0091877Y0017108D01*
X0091875Y0017171D01*
X0089303Y0016143D02*
X0089366Y0016145D01*
X0089429Y0016151D01*
X0089492Y0016161D01*
X0089554Y0016174D01*
X0089615Y0016191D01*
X0089674Y0016212D01*
X0089733Y0016237D01*
X0089789Y0016265D01*
X0089844Y0016297D01*
X0089897Y0016332D01*
X0089947Y0016370D01*
X0089996Y0016411D01*
X0090041Y0016455D01*
X0090084Y0016502D01*
X0090123Y0016551D01*
X0090160Y0016603D01*
X0090193Y0016657D01*
X0090223Y0016713D01*
X0090250Y0016770D01*
X0090273Y0016829D01*
X0090292Y0016890D01*
X0090307Y0016951D01*
X0090319Y0017013D01*
X0090327Y0017076D01*
X0090331Y0017139D01*
X0090331Y0017203D01*
X0090327Y0017266D01*
X0090319Y0017329D01*
X0090307Y0017391D01*
X0090292Y0017452D01*
X0090273Y0017513D01*
X0090250Y0017572D01*
X0090223Y0017629D01*
X0090193Y0017685D01*
X0090160Y0017739D01*
X0090123Y0017791D01*
X0090084Y0017840D01*
X0090041Y0017887D01*
X0089996Y0017931D01*
X0089947Y0017972D01*
X0089897Y0018010D01*
X0089844Y0018045D01*
X0089789Y0018077D01*
X0089733Y0018105D01*
X0089674Y0018130D01*
X0089615Y0018151D01*
X0089554Y0018168D01*
X0089492Y0018181D01*
X0089429Y0018191D01*
X0089366Y0018197D01*
X0089303Y0018199D01*
X0089508Y0018198D02*
X0088686Y0018198D01*
X0089508Y0018199D02*
X0089564Y0018201D01*
X0089620Y0018207D01*
X0089675Y0018216D01*
X0089730Y0018229D01*
X0089783Y0018246D01*
X0089835Y0018267D01*
X0089886Y0018291D01*
X0089935Y0018319D01*
X0089982Y0018349D01*
X0090027Y0018383D01*
X0090069Y0018420D01*
X0090109Y0018460D01*
X0090146Y0018502D01*
X0090180Y0018547D01*
X0090210Y0018594D01*
X0090238Y0018643D01*
X0090262Y0018694D01*
X0090283Y0018746D01*
X0090300Y0018799D01*
X0090313Y0018854D01*
X0090322Y0018909D01*
X0090328Y0018965D01*
X0090330Y0019021D01*
X0090328Y0019077D01*
X0090322Y0019133D01*
X0090313Y0019188D01*
X0090300Y0019243D01*
X0090283Y0019296D01*
X0090262Y0019348D01*
X0090238Y0019399D01*
X0090210Y0019448D01*
X0090180Y0019495D01*
X0090146Y0019540D01*
X0090109Y0019582D01*
X0090069Y0019622D01*
X0090027Y0019659D01*
X0089982Y0019693D01*
X0089935Y0019723D01*
X0089886Y0019751D01*
X0089835Y0019775D01*
X0089783Y0019796D01*
X0089730Y0019813D01*
X0089675Y0019826D01*
X0089620Y0019835D01*
X0089564Y0019841D01*
X0089508Y0019843D01*
X0088275Y0019843D01*
X0086696Y0017582D02*
X0084229Y0017582D01*
X0082754Y0016143D02*
X0081932Y0016143D01*
X0082343Y0016143D02*
X0082343Y0019843D01*
X0081932Y0019843D02*
X0082754Y0019843D01*
X0080371Y0019843D02*
X0080371Y0016143D01*
X0078315Y0019843D01*
X0078315Y0016143D01*
X0076754Y0016143D02*
X0075932Y0016143D01*
X0076343Y0016143D02*
X0076343Y0019843D01*
X0075932Y0019843D02*
X0076754Y0019843D01*
X0074336Y0019843D02*
X0074336Y0016143D01*
X0073103Y0017787D02*
X0074336Y0019843D01*
X0073103Y0017787D02*
X0071869Y0019843D01*
X0071869Y0016143D01*
X0070136Y0017582D02*
X0067669Y0017582D01*
X0066091Y0019843D02*
X0065063Y0016143D01*
X0060743Y0016657D02*
X0060698Y0016753D01*
X0060657Y0016851D01*
X0060619Y0016951D01*
X0060584Y0017051D01*
X0060553Y0017153D01*
X0060525Y0017256D01*
X0060502Y0017359D01*
X0060481Y0017464D01*
X0060465Y0017569D01*
X0060452Y0017674D01*
X0060442Y0017780D01*
X0060437Y0017887D01*
X0060435Y0017993D01*
X0062490Y0017993D02*
X0062488Y0018099D01*
X0062483Y0018206D01*
X0062473Y0018312D01*
X0062460Y0018417D01*
X0062444Y0018522D01*
X0062423Y0018627D01*
X0062400Y0018730D01*
X0062372Y0018833D01*
X0062341Y0018935D01*
X0062306Y0019035D01*
X0062268Y0019135D01*
X0062227Y0019233D01*
X0062182Y0019329D01*
X0062285Y0019021D02*
X0060641Y0016965D01*
X0061463Y0016142D02*
X0061515Y0016144D01*
X0061568Y0016149D01*
X0061619Y0016158D01*
X0061670Y0016171D01*
X0061720Y0016187D01*
X0061769Y0016206D01*
X0061816Y0016229D01*
X0061862Y0016255D01*
X0061905Y0016284D01*
X0061947Y0016316D01*
X0061986Y0016350D01*
X0062023Y0016388D01*
X0062057Y0016428D01*
X0062089Y0016470D01*
X0062117Y0016514D01*
X0062142Y0016560D01*
X0062164Y0016607D01*
X0062183Y0016656D01*
X0061463Y0016142D02*
X0061411Y0016144D01*
X0061358Y0016149D01*
X0061307Y0016158D01*
X0061256Y0016171D01*
X0061206Y0016187D01*
X0061157Y0016206D01*
X0061110Y0016229D01*
X0061064Y0016255D01*
X0061021Y0016284D01*
X0060979Y0016316D01*
X0060940Y0016350D01*
X0060903Y0016388D01*
X0060869Y0016428D01*
X0060837Y0016470D01*
X0060809Y0016514D01*
X0060784Y0016560D01*
X0060762Y0016607D01*
X0060743Y0016656D01*
X0062182Y0016657D02*
X0062227Y0016753D01*
X0062268Y0016851D01*
X0062306Y0016951D01*
X0062341Y0017051D01*
X0062372Y0017153D01*
X0062400Y0017256D01*
X0062423Y0017359D01*
X0062444Y0017464D01*
X0062460Y0017569D01*
X0062473Y0017674D01*
X0062483Y0017780D01*
X0062488Y0017887D01*
X0062490Y0017993D01*
X0060435Y0017993D02*
X0060437Y0018099D01*
X0060442Y0018206D01*
X0060452Y0018312D01*
X0060465Y0018417D01*
X0060481Y0018522D01*
X0060502Y0018627D01*
X0060525Y0018730D01*
X0060553Y0018833D01*
X0060584Y0018935D01*
X0060619Y0019035D01*
X0060657Y0019135D01*
X0060698Y0019233D01*
X0060743Y0019329D01*
X0061463Y0019843D02*
X0061515Y0019841D01*
X0061568Y0019836D01*
X0061619Y0019827D01*
X0061670Y0019814D01*
X0061720Y0019798D01*
X0061769Y0019779D01*
X0061816Y0019756D01*
X0061862Y0019730D01*
X0061905Y0019701D01*
X0061947Y0019669D01*
X0061986Y0019635D01*
X0062023Y0019597D01*
X0062057Y0019557D01*
X0062089Y0019515D01*
X0062117Y0019471D01*
X0062142Y0019425D01*
X0062164Y0019378D01*
X0062183Y0019329D01*
X0061463Y0019843D02*
X0061411Y0019841D01*
X0061358Y0019836D01*
X0061307Y0019827D01*
X0061256Y0019814D01*
X0061206Y0019798D01*
X0061157Y0019779D01*
X0061110Y0019756D01*
X0061064Y0019730D01*
X0061021Y0019701D01*
X0060979Y0019669D01*
X0060940Y0019635D01*
X0060903Y0019597D01*
X0060869Y0019557D01*
X0060837Y0019515D01*
X0060809Y0019471D01*
X0060784Y0019425D01*
X0060762Y0019378D01*
X0060743Y0019329D01*
X0058068Y0019843D02*
X0058124Y0019841D01*
X0058180Y0019835D01*
X0058235Y0019826D01*
X0058290Y0019813D01*
X0058343Y0019796D01*
X0058395Y0019775D01*
X0058446Y0019751D01*
X0058495Y0019723D01*
X0058542Y0019693D01*
X0058587Y0019659D01*
X0058629Y0019622D01*
X0058669Y0019582D01*
X0058706Y0019540D01*
X0058740Y0019495D01*
X0058770Y0019448D01*
X0058798Y0019399D01*
X0058822Y0019348D01*
X0058843Y0019296D01*
X0058860Y0019243D01*
X0058873Y0019188D01*
X0058882Y0019133D01*
X0058888Y0019077D01*
X0058890Y0019021D01*
X0058888Y0018965D01*
X0058882Y0018909D01*
X0058873Y0018854D01*
X0058860Y0018799D01*
X0058843Y0018746D01*
X0058822Y0018694D01*
X0058798Y0018643D01*
X0058770Y0018594D01*
X0058740Y0018547D01*
X0058706Y0018502D01*
X0058669Y0018460D01*
X0058629Y0018420D01*
X0058587Y0018383D01*
X0058542Y0018349D01*
X0058495Y0018319D01*
X0058446Y0018291D01*
X0058395Y0018267D01*
X0058343Y0018246D01*
X0058290Y0018229D01*
X0058235Y0018216D01*
X0058180Y0018207D01*
X0058124Y0018201D01*
X0058068Y0018199D01*
X0058068Y0018198D02*
X0057246Y0018198D01*
X0057863Y0018199D02*
X0057926Y0018197D01*
X0057989Y0018191D01*
X0058052Y0018181D01*
X0058114Y0018168D01*
X0058175Y0018151D01*
X0058234Y0018130D01*
X0058293Y0018105D01*
X0058349Y0018077D01*
X0058404Y0018045D01*
X0058457Y0018010D01*
X0058507Y0017972D01*
X0058556Y0017931D01*
X0058601Y0017887D01*
X0058644Y0017840D01*
X0058683Y0017791D01*
X0058720Y0017739D01*
X0058753Y0017685D01*
X0058783Y0017629D01*
X0058810Y0017572D01*
X0058833Y0017513D01*
X0058852Y0017452D01*
X0058867Y0017391D01*
X0058879Y0017329D01*
X0058887Y0017266D01*
X0058891Y0017203D01*
X0058891Y0017139D01*
X0058887Y0017076D01*
X0058879Y0017013D01*
X0058867Y0016951D01*
X0058852Y0016890D01*
X0058833Y0016829D01*
X0058810Y0016770D01*
X0058783Y0016713D01*
X0058753Y0016657D01*
X0058720Y0016603D01*
X0058683Y0016551D01*
X0058644Y0016502D01*
X0058601Y0016455D01*
X0058556Y0016411D01*
X0058507Y0016370D01*
X0058457Y0016332D01*
X0058404Y0016297D01*
X0058349Y0016265D01*
X0058293Y0016237D01*
X0058234Y0016212D01*
X0058175Y0016191D01*
X0058114Y0016174D01*
X0058052Y0016161D01*
X0057989Y0016151D01*
X0057926Y0016145D01*
X0057863Y0016143D01*
X0056835Y0016143D01*
X0055291Y0016143D02*
X0053235Y0016143D01*
X0054982Y0018198D01*
X0054366Y0019843D02*
X0054298Y0019841D01*
X0054230Y0019835D01*
X0054163Y0019826D01*
X0054097Y0019812D01*
X0054031Y0019795D01*
X0053966Y0019774D01*
X0053903Y0019749D01*
X0053841Y0019721D01*
X0053781Y0019689D01*
X0053723Y0019654D01*
X0053667Y0019616D01*
X0053614Y0019574D01*
X0053562Y0019530D01*
X0053514Y0019482D01*
X0053468Y0019432D01*
X0053425Y0019380D01*
X0053385Y0019325D01*
X0053348Y0019268D01*
X0053315Y0019209D01*
X0053285Y0019148D01*
X0053259Y0019085D01*
X0053236Y0019021D01*
X0054983Y0018198D02*
X0055026Y0018242D01*
X0055067Y0018289D01*
X0055104Y0018338D01*
X0055139Y0018389D01*
X0055170Y0018443D01*
X0055198Y0018498D01*
X0055222Y0018555D01*
X0055243Y0018613D01*
X0055260Y0018673D01*
X0055274Y0018733D01*
X0055283Y0018794D01*
X0055289Y0018856D01*
X0055291Y0018918D01*
X0055289Y0018976D01*
X0055284Y0019034D01*
X0055275Y0019091D01*
X0055262Y0019148D01*
X0055246Y0019204D01*
X0055226Y0019259D01*
X0055203Y0019312D01*
X0055177Y0019364D01*
X0055147Y0019414D01*
X0055114Y0019462D01*
X0055079Y0019508D01*
X0055040Y0019551D01*
X0054999Y0019592D01*
X0054956Y0019631D01*
X0054910Y0019666D01*
X0054862Y0019699D01*
X0054812Y0019729D01*
X0054760Y0019755D01*
X0054707Y0019778D01*
X0054652Y0019798D01*
X0054596Y0019814D01*
X0054539Y0019827D01*
X0054482Y0019836D01*
X0054424Y0019841D01*
X0054366Y0019843D01*
X0056835Y0019843D02*
X0058068Y0019843D01*
X0064035Y0019843D02*
X0066091Y0019843D01*
X0064035Y0019843D02*
X0064035Y0019432D01*
X0050834Y0019843D02*
X0049807Y0019843D01*
X0049807Y0016143D01*
X0049807Y0017787D02*
X0050834Y0017787D01*
X0050897Y0017789D01*
X0050960Y0017795D01*
X0051023Y0017805D01*
X0051085Y0017818D01*
X0051146Y0017835D01*
X0051205Y0017856D01*
X0051264Y0017881D01*
X0051320Y0017909D01*
X0051375Y0017941D01*
X0051428Y0017976D01*
X0051478Y0018014D01*
X0051527Y0018055D01*
X0051572Y0018099D01*
X0051615Y0018146D01*
X0051654Y0018195D01*
X0051691Y0018247D01*
X0051724Y0018301D01*
X0051754Y0018357D01*
X0051781Y0018414D01*
X0051804Y0018473D01*
X0051823Y0018534D01*
X0051838Y0018595D01*
X0051850Y0018657D01*
X0051858Y0018720D01*
X0051862Y0018783D01*
X0051862Y0018847D01*
X0051858Y0018910D01*
X0051850Y0018973D01*
X0051838Y0019035D01*
X0051823Y0019096D01*
X0051804Y0019157D01*
X0051781Y0019216D01*
X0051754Y0019273D01*
X0051724Y0019329D01*
X0051691Y0019383D01*
X0051654Y0019435D01*
X0051615Y0019484D01*
X0051572Y0019531D01*
X0051527Y0019575D01*
X0051478Y0019616D01*
X0051428Y0019654D01*
X0051375Y0019689D01*
X0051320Y0019721D01*
X0051264Y0019749D01*
X0051205Y0019774D01*
X0051146Y0019795D01*
X0051085Y0019812D01*
X0051023Y0019825D01*
X0050960Y0019835D01*
X0050897Y0019841D01*
X0050834Y0019843D01*
X0047936Y0019843D02*
X0047936Y0016143D01*
X0046703Y0017787D02*
X0047936Y0019843D01*
X0046703Y0017787D02*
X0045470Y0019843D01*
X0045470Y0016143D01*
X0088275Y0016143D02*
X0089303Y0016143D01*
X0151544Y0101450D02*
X0155244Y0103506D01*
X0151544Y0103506D01*
X0151544Y0105342D02*
X0151544Y0106369D01*
X0151546Y0106425D01*
X0151552Y0106481D01*
X0151561Y0106536D01*
X0151574Y0106591D01*
X0151591Y0106644D01*
X0151612Y0106696D01*
X0151636Y0106747D01*
X0151664Y0106796D01*
X0151694Y0106843D01*
X0151728Y0106888D01*
X0151765Y0106930D01*
X0151805Y0106970D01*
X0151847Y0107007D01*
X0151892Y0107041D01*
X0151939Y0107071D01*
X0151988Y0107099D01*
X0152039Y0107123D01*
X0152091Y0107144D01*
X0152144Y0107161D01*
X0152199Y0107174D01*
X0152254Y0107183D01*
X0152310Y0107189D01*
X0152366Y0107191D01*
X0152422Y0107189D01*
X0152478Y0107183D01*
X0152533Y0107174D01*
X0152588Y0107161D01*
X0152641Y0107144D01*
X0152693Y0107123D01*
X0152744Y0107099D01*
X0152793Y0107071D01*
X0152840Y0107041D01*
X0152885Y0107007D01*
X0152927Y0106970D01*
X0152967Y0106930D01*
X0153004Y0106888D01*
X0153038Y0106843D01*
X0153068Y0106796D01*
X0153096Y0106747D01*
X0153120Y0106696D01*
X0153141Y0106644D01*
X0153158Y0106591D01*
X0153171Y0106536D01*
X0153180Y0106481D01*
X0153186Y0106425D01*
X0153188Y0106369D01*
X0153188Y0105342D01*
X0153188Y0106369D02*
X0153190Y0106432D01*
X0153196Y0106495D01*
X0153206Y0106558D01*
X0153219Y0106620D01*
X0153236Y0106681D01*
X0153257Y0106740D01*
X0153282Y0106799D01*
X0153310Y0106855D01*
X0153342Y0106910D01*
X0153377Y0106963D01*
X0153415Y0107013D01*
X0153456Y0107062D01*
X0153500Y0107107D01*
X0153547Y0107150D01*
X0153596Y0107189D01*
X0153648Y0107226D01*
X0153702Y0107259D01*
X0153758Y0107289D01*
X0153815Y0107316D01*
X0153874Y0107339D01*
X0153935Y0107358D01*
X0153996Y0107373D01*
X0154058Y0107385D01*
X0154121Y0107393D01*
X0154184Y0107397D01*
X0154248Y0107397D01*
X0154311Y0107393D01*
X0154374Y0107385D01*
X0154436Y0107373D01*
X0154497Y0107358D01*
X0154558Y0107339D01*
X0154617Y0107316D01*
X0154674Y0107289D01*
X0154730Y0107259D01*
X0154784Y0107226D01*
X0154836Y0107189D01*
X0154885Y0107150D01*
X0154932Y0107107D01*
X0154976Y0107062D01*
X0155017Y0107013D01*
X0155055Y0106963D01*
X0155090Y0106910D01*
X0155122Y0106855D01*
X0155150Y0106799D01*
X0155175Y0106740D01*
X0155196Y0106681D01*
X0155213Y0106620D01*
X0155226Y0106558D01*
X0155236Y0106495D01*
X0155242Y0106432D01*
X0155244Y0106369D01*
X0155244Y0105342D01*
X0151544Y0105342D01*
X0151544Y0101450D02*
X0155244Y0101450D01*
X0155244Y0110690D02*
X0153188Y0112437D01*
X0151544Y0111821D02*
X0151546Y0111753D01*
X0151552Y0111685D01*
X0151561Y0111618D01*
X0151575Y0111552D01*
X0151592Y0111486D01*
X0151613Y0111421D01*
X0151638Y0111358D01*
X0151666Y0111296D01*
X0151698Y0111236D01*
X0151733Y0111178D01*
X0151771Y0111122D01*
X0151813Y0111068D01*
X0151857Y0111017D01*
X0151905Y0110969D01*
X0151955Y0110923D01*
X0152007Y0110880D01*
X0152062Y0110840D01*
X0152119Y0110803D01*
X0152178Y0110770D01*
X0152239Y0110740D01*
X0152302Y0110714D01*
X0152366Y0110691D01*
X0153189Y0112438D02*
X0153145Y0112481D01*
X0153098Y0112522D01*
X0153049Y0112559D01*
X0152998Y0112594D01*
X0152944Y0112625D01*
X0152889Y0112653D01*
X0152832Y0112677D01*
X0152774Y0112698D01*
X0152714Y0112715D01*
X0152654Y0112729D01*
X0152593Y0112738D01*
X0152531Y0112744D01*
X0152469Y0112746D01*
X0152411Y0112744D01*
X0152353Y0112739D01*
X0152296Y0112730D01*
X0152239Y0112717D01*
X0152183Y0112701D01*
X0152128Y0112681D01*
X0152075Y0112658D01*
X0152023Y0112632D01*
X0151973Y0112602D01*
X0151925Y0112569D01*
X0151879Y0112534D01*
X0151836Y0112495D01*
X0151795Y0112454D01*
X0151756Y0112411D01*
X0151721Y0112365D01*
X0151688Y0112317D01*
X0151658Y0112267D01*
X0151632Y0112215D01*
X0151609Y0112162D01*
X0151589Y0112107D01*
X0151573Y0112051D01*
X0151560Y0111994D01*
X0151551Y0111937D01*
X0151546Y0111879D01*
X0151544Y0111821D01*
X0153394Y0116345D02*
X0153500Y0116343D01*
X0153607Y0116338D01*
X0153713Y0116328D01*
X0153818Y0116315D01*
X0153923Y0116299D01*
X0154028Y0116278D01*
X0154131Y0116255D01*
X0154234Y0116227D01*
X0154336Y0116196D01*
X0154436Y0116161D01*
X0154536Y0116123D01*
X0154634Y0116082D01*
X0154730Y0116037D01*
X0154730Y0116038D02*
X0154779Y0116019D01*
X0154826Y0115997D01*
X0154872Y0115972D01*
X0154916Y0115944D01*
X0154958Y0115912D01*
X0154998Y0115878D01*
X0155036Y0115841D01*
X0155070Y0115802D01*
X0155102Y0115760D01*
X0155131Y0115717D01*
X0155157Y0115671D01*
X0155180Y0115624D01*
X0155199Y0115575D01*
X0155215Y0115525D01*
X0155228Y0115474D01*
X0155237Y0115423D01*
X0155242Y0115370D01*
X0155244Y0115318D01*
X0155242Y0115266D01*
X0155237Y0115213D01*
X0155228Y0115162D01*
X0155215Y0115111D01*
X0155199Y0115061D01*
X0155180Y0115012D01*
X0155157Y0114965D01*
X0155131Y0114919D01*
X0155102Y0114876D01*
X0155070Y0114834D01*
X0155036Y0114795D01*
X0154998Y0114758D01*
X0154958Y0114724D01*
X0154916Y0114692D01*
X0154872Y0114664D01*
X0154826Y0114639D01*
X0154779Y0114617D01*
X0154730Y0114598D01*
X0154421Y0114495D02*
X0152366Y0116140D01*
X0152057Y0116038D02*
X0152008Y0116019D01*
X0151961Y0115997D01*
X0151915Y0115972D01*
X0151871Y0115944D01*
X0151829Y0115912D01*
X0151789Y0115878D01*
X0151751Y0115841D01*
X0151717Y0115802D01*
X0151685Y0115760D01*
X0151656Y0115717D01*
X0151630Y0115671D01*
X0151607Y0115624D01*
X0151588Y0115575D01*
X0151572Y0115525D01*
X0151559Y0115474D01*
X0151550Y0115423D01*
X0151545Y0115370D01*
X0151543Y0115318D01*
X0151545Y0115266D01*
X0151550Y0115213D01*
X0151559Y0115162D01*
X0151572Y0115111D01*
X0151588Y0115061D01*
X0151607Y0115012D01*
X0151630Y0114965D01*
X0151656Y0114919D01*
X0151685Y0114876D01*
X0151717Y0114834D01*
X0151751Y0114795D01*
X0151789Y0114758D01*
X0151829Y0114724D01*
X0151871Y0114692D01*
X0151915Y0114664D01*
X0151961Y0114639D01*
X0152008Y0114617D01*
X0152057Y0114598D01*
X0152058Y0116037D02*
X0152154Y0116082D01*
X0152252Y0116123D01*
X0152352Y0116161D01*
X0152452Y0116196D01*
X0152554Y0116227D01*
X0152657Y0116255D01*
X0152760Y0116278D01*
X0152865Y0116299D01*
X0152970Y0116315D01*
X0153075Y0116328D01*
X0153181Y0116338D01*
X0153288Y0116343D01*
X0153394Y0116345D01*
X0153394Y0114290D02*
X0153288Y0114292D01*
X0153181Y0114297D01*
X0153075Y0114307D01*
X0152970Y0114320D01*
X0152865Y0114336D01*
X0152760Y0114357D01*
X0152657Y0114380D01*
X0152554Y0114408D01*
X0152452Y0114439D01*
X0152352Y0114474D01*
X0152252Y0114512D01*
X0152154Y0114553D01*
X0152058Y0114598D01*
X0153394Y0114290D02*
X0153500Y0114292D01*
X0153607Y0114297D01*
X0153713Y0114307D01*
X0153818Y0114320D01*
X0153923Y0114336D01*
X0154028Y0114357D01*
X0154131Y0114380D01*
X0154234Y0114408D01*
X0154336Y0114439D01*
X0154436Y0114474D01*
X0154536Y0114512D01*
X0154634Y0114553D01*
X0154730Y0114598D01*
X0155244Y0112746D02*
X0155244Y0110690D01*
X0155244Y0117890D02*
X0155244Y0119945D01*
X0155244Y0118918D02*
X0151544Y0118918D01*
X0152366Y0117890D01*
X0152366Y0121696D02*
X0152422Y0121698D01*
X0152478Y0121704D01*
X0152533Y0121713D01*
X0152588Y0121726D01*
X0152641Y0121743D01*
X0152693Y0121764D01*
X0152744Y0121788D01*
X0152793Y0121816D01*
X0152840Y0121846D01*
X0152885Y0121880D01*
X0152927Y0121917D01*
X0152967Y0121957D01*
X0153004Y0121999D01*
X0153038Y0122044D01*
X0153068Y0122091D01*
X0153096Y0122140D01*
X0153120Y0122191D01*
X0153141Y0122243D01*
X0153158Y0122296D01*
X0153171Y0122351D01*
X0153180Y0122406D01*
X0153186Y0122462D01*
X0153188Y0122518D01*
X0153186Y0122574D01*
X0153180Y0122630D01*
X0153171Y0122685D01*
X0153158Y0122740D01*
X0153141Y0122793D01*
X0153120Y0122845D01*
X0153096Y0122896D01*
X0153068Y0122945D01*
X0153038Y0122992D01*
X0153004Y0123037D01*
X0152967Y0123079D01*
X0152927Y0123119D01*
X0152885Y0123156D01*
X0152840Y0123190D01*
X0152793Y0123220D01*
X0152744Y0123248D01*
X0152693Y0123272D01*
X0152641Y0123293D01*
X0152588Y0123310D01*
X0152533Y0123323D01*
X0152478Y0123332D01*
X0152422Y0123338D01*
X0152366Y0123340D01*
X0152310Y0123338D01*
X0152254Y0123332D01*
X0152199Y0123323D01*
X0152144Y0123310D01*
X0152091Y0123293D01*
X0152039Y0123272D01*
X0151988Y0123248D01*
X0151939Y0123220D01*
X0151892Y0123190D01*
X0151847Y0123156D01*
X0151805Y0123119D01*
X0151765Y0123079D01*
X0151728Y0123037D01*
X0151694Y0122992D01*
X0151664Y0122945D01*
X0151636Y0122896D01*
X0151612Y0122845D01*
X0151591Y0122793D01*
X0151574Y0122740D01*
X0151561Y0122685D01*
X0151552Y0122630D01*
X0151546Y0122574D01*
X0151544Y0122518D01*
X0151546Y0122462D01*
X0151552Y0122406D01*
X0151561Y0122351D01*
X0151574Y0122296D01*
X0151591Y0122243D01*
X0151612Y0122191D01*
X0151636Y0122140D01*
X0151664Y0122091D01*
X0151694Y0122044D01*
X0151728Y0121999D01*
X0151765Y0121957D01*
X0151805Y0121917D01*
X0151847Y0121880D01*
X0151892Y0121846D01*
X0151939Y0121816D01*
X0151988Y0121788D01*
X0152039Y0121764D01*
X0152091Y0121743D01*
X0152144Y0121726D01*
X0152199Y0121713D01*
X0152254Y0121704D01*
X0152310Y0121698D01*
X0152366Y0121696D01*
X0154216Y0121490D02*
X0154279Y0121492D01*
X0154342Y0121498D01*
X0154405Y0121508D01*
X0154467Y0121521D01*
X0154528Y0121538D01*
X0154587Y0121559D01*
X0154646Y0121584D01*
X0154702Y0121612D01*
X0154757Y0121644D01*
X0154810Y0121679D01*
X0154860Y0121717D01*
X0154909Y0121758D01*
X0154954Y0121802D01*
X0154997Y0121849D01*
X0155036Y0121898D01*
X0155073Y0121950D01*
X0155106Y0122004D01*
X0155136Y0122060D01*
X0155163Y0122117D01*
X0155186Y0122176D01*
X0155205Y0122237D01*
X0155220Y0122298D01*
X0155232Y0122360D01*
X0155240Y0122423D01*
X0155244Y0122486D01*
X0155244Y0122550D01*
X0155240Y0122613D01*
X0155232Y0122676D01*
X0155220Y0122738D01*
X0155205Y0122799D01*
X0155186Y0122860D01*
X0155163Y0122919D01*
X0155136Y0122976D01*
X0155106Y0123032D01*
X0155073Y0123086D01*
X0155036Y0123138D01*
X0154997Y0123187D01*
X0154954Y0123234D01*
X0154909Y0123278D01*
X0154860Y0123319D01*
X0154810Y0123357D01*
X0154757Y0123392D01*
X0154702Y0123424D01*
X0154646Y0123452D01*
X0154587Y0123477D01*
X0154528Y0123498D01*
X0154467Y0123515D01*
X0154405Y0123528D01*
X0154342Y0123538D01*
X0154279Y0123544D01*
X0154216Y0123546D01*
X0154153Y0123544D01*
X0154090Y0123538D01*
X0154027Y0123528D01*
X0153965Y0123515D01*
X0153904Y0123498D01*
X0153845Y0123477D01*
X0153786Y0123452D01*
X0153730Y0123424D01*
X0153675Y0123392D01*
X0153622Y0123357D01*
X0153572Y0123319D01*
X0153523Y0123278D01*
X0153478Y0123234D01*
X0153435Y0123187D01*
X0153396Y0123138D01*
X0153359Y0123086D01*
X0153326Y0123032D01*
X0153296Y0122976D01*
X0153269Y0122919D01*
X0153246Y0122860D01*
X0153227Y0122799D01*
X0153212Y0122738D01*
X0153200Y0122676D01*
X0153192Y0122613D01*
X0153188Y0122550D01*
X0153188Y0122486D01*
X0153192Y0122423D01*
X0153200Y0122360D01*
X0153212Y0122298D01*
X0153227Y0122237D01*
X0153246Y0122176D01*
X0153269Y0122117D01*
X0153296Y0122060D01*
X0153326Y0122004D01*
X0153359Y0121950D01*
X0153396Y0121898D01*
X0153435Y0121849D01*
X0153478Y0121802D01*
X0153523Y0121758D01*
X0153572Y0121717D01*
X0153622Y0121679D01*
X0153675Y0121644D01*
X0153730Y0121612D01*
X0153786Y0121584D01*
X0153845Y0121559D01*
X0153904Y0121538D01*
X0153965Y0121521D01*
X0154027Y0121508D01*
X0154090Y0121498D01*
X0154153Y0121492D01*
X0154216Y0121490D01*
X0159394Y0137923D02*
X0159500Y0137921D01*
X0159607Y0137916D01*
X0159713Y0137906D01*
X0159818Y0137893D01*
X0159923Y0137877D01*
X0160028Y0137856D01*
X0160131Y0137833D01*
X0160234Y0137805D01*
X0160336Y0137774D01*
X0160436Y0137739D01*
X0160536Y0137701D01*
X0160634Y0137660D01*
X0160730Y0137615D01*
X0159394Y0135868D02*
X0159288Y0135870D01*
X0159181Y0135875D01*
X0159075Y0135885D01*
X0158970Y0135898D01*
X0158865Y0135914D01*
X0158760Y0135935D01*
X0158657Y0135958D01*
X0158554Y0135986D01*
X0158452Y0136017D01*
X0158352Y0136052D01*
X0158252Y0136090D01*
X0158154Y0136131D01*
X0158058Y0136176D01*
X0157543Y0136895D02*
X0157545Y0136947D01*
X0157550Y0137000D01*
X0157559Y0137051D01*
X0157572Y0137102D01*
X0157588Y0137152D01*
X0157607Y0137201D01*
X0157630Y0137248D01*
X0157656Y0137294D01*
X0157685Y0137337D01*
X0157717Y0137379D01*
X0157751Y0137418D01*
X0157789Y0137455D01*
X0157829Y0137489D01*
X0157871Y0137521D01*
X0157915Y0137549D01*
X0157961Y0137574D01*
X0158008Y0137596D01*
X0158057Y0137615D01*
X0157543Y0136895D02*
X0157545Y0136843D01*
X0157550Y0136790D01*
X0157559Y0136739D01*
X0157572Y0136688D01*
X0157588Y0136638D01*
X0157607Y0136589D01*
X0157630Y0136542D01*
X0157656Y0136496D01*
X0157685Y0136453D01*
X0157717Y0136411D01*
X0157751Y0136372D01*
X0157789Y0136335D01*
X0157829Y0136301D01*
X0157871Y0136269D01*
X0157915Y0136241D01*
X0157961Y0136216D01*
X0158008Y0136194D01*
X0158057Y0136175D01*
D12*
X0156846Y0142300D02*
X0155267Y0142300D01*
X0154640Y0147800D02*
X0138148Y0147800D01*
X0137521Y0142300D02*
X0135941Y0142300D01*
X0132394Y0138550D02*
X0132394Y0134050D01*
X0131144Y0134050D02*
X0133644Y0134050D01*
X0131144Y0137550D02*
X0132394Y0138550D01*
X0128789Y0135050D02*
X0129789Y0134050D01*
X0129289Y0135300D02*
X0129289Y0137300D01*
X0129287Y0137369D01*
X0129281Y0137438D01*
X0129272Y0137506D01*
X0129259Y0137573D01*
X0129242Y0137640D01*
X0129221Y0137706D01*
X0129197Y0137770D01*
X0129169Y0137833D01*
X0129138Y0137895D01*
X0129104Y0137955D01*
X0129066Y0138012D01*
X0129025Y0138068D01*
X0128982Y0138121D01*
X0128935Y0138172D01*
X0128886Y0138220D01*
X0128834Y0138265D01*
X0128779Y0138307D01*
X0128723Y0138346D01*
X0128664Y0138383D01*
X0128603Y0138415D01*
X0128541Y0138445D01*
X0128477Y0138471D01*
X0128412Y0138493D01*
X0128346Y0138512D01*
X0128279Y0138527D01*
X0128211Y0138538D01*
X0128142Y0138546D01*
X0128073Y0138550D01*
X0128005Y0138550D01*
X0127936Y0138546D01*
X0127867Y0138538D01*
X0127799Y0138527D01*
X0127732Y0138512D01*
X0127666Y0138493D01*
X0127601Y0138471D01*
X0127537Y0138445D01*
X0127475Y0138415D01*
X0127414Y0138383D01*
X0127355Y0138346D01*
X0127299Y0138307D01*
X0127244Y0138265D01*
X0127192Y0138220D01*
X0127143Y0138172D01*
X0127096Y0138121D01*
X0127053Y0138068D01*
X0127012Y0138012D01*
X0126974Y0137955D01*
X0126940Y0137895D01*
X0126909Y0137833D01*
X0126881Y0137770D01*
X0126857Y0137706D01*
X0126836Y0137640D01*
X0126819Y0137573D01*
X0126806Y0137506D01*
X0126797Y0137438D01*
X0126791Y0137369D01*
X0126789Y0137300D01*
X0126789Y0135300D01*
X0126791Y0135231D01*
X0126797Y0135162D01*
X0126806Y0135094D01*
X0126819Y0135027D01*
X0126836Y0134960D01*
X0126857Y0134894D01*
X0126881Y0134830D01*
X0126909Y0134767D01*
X0126940Y0134705D01*
X0126974Y0134645D01*
X0127012Y0134588D01*
X0127053Y0134532D01*
X0127096Y0134479D01*
X0127143Y0134428D01*
X0127192Y0134380D01*
X0127244Y0134335D01*
X0127299Y0134293D01*
X0127355Y0134254D01*
X0127414Y0134217D01*
X0127475Y0134185D01*
X0127537Y0134155D01*
X0127601Y0134129D01*
X0127666Y0134107D01*
X0127732Y0134088D01*
X0127799Y0134073D01*
X0127867Y0134062D01*
X0127936Y0134054D01*
X0128005Y0134050D01*
X0128073Y0134050D01*
X0128142Y0134054D01*
X0128211Y0134062D01*
X0128279Y0134073D01*
X0128346Y0134088D01*
X0128412Y0134107D01*
X0128477Y0134129D01*
X0128541Y0134155D01*
X0128603Y0134185D01*
X0128664Y0134217D01*
X0128723Y0134254D01*
X0128779Y0134293D01*
X0128834Y0134335D01*
X0128886Y0134380D01*
X0128935Y0134428D01*
X0128982Y0134479D01*
X0129025Y0134532D01*
X0129066Y0134588D01*
X0129104Y0134645D01*
X0129138Y0134705D01*
X0129169Y0134767D01*
X0129197Y0134830D01*
X0129221Y0134894D01*
X0129242Y0134960D01*
X0129259Y0135027D01*
X0129272Y0135094D01*
X0129281Y0135162D01*
X0129287Y0135231D01*
X0129289Y0135300D01*
X0135694Y0118400D02*
X0135694Y0104200D01*
X0117094Y0104200D01*
X0117094Y0118400D01*
X0135694Y0118400D01*
X0137394Y0119050D02*
X0141894Y0118050D01*
X0138894Y0117050D01*
X0141894Y0116050D01*
X0137394Y0115050D01*
X0140144Y0091550D02*
X0140144Y0089050D01*
X0142144Y0089050D01*
X0142144Y0090550D01*
X0142146Y0090610D01*
X0142151Y0090671D01*
X0142160Y0090730D01*
X0142173Y0090789D01*
X0142189Y0090848D01*
X0142209Y0090905D01*
X0142232Y0090960D01*
X0142259Y0091015D01*
X0142288Y0091067D01*
X0142321Y0091118D01*
X0142357Y0091167D01*
X0142395Y0091213D01*
X0142437Y0091257D01*
X0142481Y0091299D01*
X0142527Y0091337D01*
X0142576Y0091373D01*
X0142627Y0091406D01*
X0142679Y0091435D01*
X0142734Y0091462D01*
X0142789Y0091485D01*
X0142846Y0091505D01*
X0142905Y0091521D01*
X0142964Y0091534D01*
X0143023Y0091543D01*
X0143084Y0091548D01*
X0143144Y0091550D01*
X0143644Y0091550D01*
X0143704Y0091548D01*
X0143765Y0091543D01*
X0143824Y0091534D01*
X0143883Y0091521D01*
X0143942Y0091505D01*
X0143999Y0091485D01*
X0144054Y0091462D01*
X0144109Y0091435D01*
X0144161Y0091406D01*
X0144212Y0091373D01*
X0144261Y0091337D01*
X0144307Y0091299D01*
X0144351Y0091257D01*
X0144393Y0091213D01*
X0144431Y0091167D01*
X0144467Y0091118D01*
X0144500Y0091067D01*
X0144529Y0091015D01*
X0144556Y0090960D01*
X0144579Y0090905D01*
X0144599Y0090848D01*
X0144615Y0090789D01*
X0144628Y0090730D01*
X0144637Y0090671D01*
X0144642Y0090610D01*
X0144644Y0090550D01*
X0144644Y0089050D01*
X0144644Y0057900D02*
X0144644Y0055400D01*
X0142144Y0057525D01*
X0140144Y0056775D02*
X0140146Y0056702D01*
X0140151Y0056630D01*
X0140160Y0056558D01*
X0140173Y0056486D01*
X0140189Y0056415D01*
X0140209Y0056345D01*
X0140233Y0056277D01*
X0140259Y0056209D01*
X0140290Y0056143D01*
X0140323Y0056078D01*
X0140360Y0056016D01*
X0140399Y0055955D01*
X0140442Y0055896D01*
X0140488Y0055839D01*
X0140536Y0055785D01*
X0140587Y0055734D01*
X0140641Y0055684D01*
X0140697Y0055638D01*
X0140755Y0055595D01*
X0140816Y0055554D01*
X0140878Y0055517D01*
X0140942Y0055483D01*
X0141008Y0055452D01*
X0141075Y0055424D01*
X0141144Y0055400D01*
X0142144Y0057525D02*
X0142098Y0057571D01*
X0142049Y0057615D01*
X0141998Y0057655D01*
X0141945Y0057693D01*
X0141890Y0057728D01*
X0141833Y0057760D01*
X0141775Y0057789D01*
X0141715Y0057815D01*
X0141653Y0057837D01*
X0141591Y0057856D01*
X0141528Y0057872D01*
X0141464Y0057884D01*
X0141399Y0057893D01*
X0141334Y0057898D01*
X0141269Y0057900D01*
X0141204Y0057898D01*
X0141138Y0057892D01*
X0141074Y0057883D01*
X0141010Y0057870D01*
X0140946Y0057853D01*
X0140884Y0057832D01*
X0140823Y0057808D01*
X0140764Y0057780D01*
X0140707Y0057749D01*
X0140651Y0057715D01*
X0140597Y0057677D01*
X0140546Y0057637D01*
X0140497Y0057593D01*
X0140451Y0057547D01*
X0140407Y0057498D01*
X0140367Y0057447D01*
X0140329Y0057393D01*
X0140295Y0057338D01*
X0140264Y0057280D01*
X0140236Y0057221D01*
X0140212Y0057160D01*
X0140191Y0057098D01*
X0140174Y0057034D01*
X0140161Y0056970D01*
X0140152Y0056906D01*
X0140146Y0056840D01*
X0140144Y0056775D01*
X0140144Y0053650D02*
X0144644Y0052150D01*
X0140144Y0050650D01*
X0142019Y0047175D02*
X0141986Y0047123D01*
X0141950Y0047072D01*
X0141911Y0047024D01*
X0141869Y0046979D01*
X0141824Y0046936D01*
X0141776Y0046896D01*
X0141727Y0046859D01*
X0141675Y0046825D01*
X0141621Y0046794D01*
X0141565Y0046766D01*
X0141508Y0046742D01*
X0141449Y0046722D01*
X0141390Y0046705D01*
X0141329Y0046692D01*
X0141268Y0046683D01*
X0141206Y0046677D01*
X0141144Y0046675D01*
X0141084Y0046677D01*
X0141023Y0046682D01*
X0140964Y0046691D01*
X0140905Y0046704D01*
X0140846Y0046720D01*
X0140789Y0046740D01*
X0140734Y0046763D01*
X0140679Y0046790D01*
X0140627Y0046819D01*
X0140576Y0046852D01*
X0140527Y0046888D01*
X0140481Y0046926D01*
X0140437Y0046968D01*
X0140395Y0047012D01*
X0140357Y0047058D01*
X0140321Y0047107D01*
X0140288Y0047158D01*
X0140259Y0047210D01*
X0140232Y0047265D01*
X0140209Y0047320D01*
X0140189Y0047377D01*
X0140173Y0047436D01*
X0140160Y0047495D01*
X0140151Y0047554D01*
X0140146Y0047615D01*
X0140144Y0047675D01*
X0140146Y0047755D01*
X0140151Y0047836D01*
X0140160Y0047916D01*
X0140172Y0047995D01*
X0140187Y0048074D01*
X0140206Y0048152D01*
X0140228Y0048230D01*
X0140253Y0048306D01*
X0140282Y0048381D01*
X0140314Y0048455D01*
X0140349Y0048527D01*
X0140387Y0048598D01*
X0140428Y0048667D01*
X0140472Y0048735D01*
X0140519Y0048800D01*
X0144019Y0046550D02*
X0144080Y0046613D01*
X0144138Y0046678D01*
X0144194Y0046746D01*
X0144247Y0046817D01*
X0144296Y0046889D01*
X0144343Y0046963D01*
X0144387Y0047039D01*
X0144427Y0047117D01*
X0144464Y0047197D01*
X0144498Y0047278D01*
X0144528Y0047360D01*
X0144555Y0047444D01*
X0144579Y0047529D01*
X0144599Y0047614D01*
X0144615Y0047700D01*
X0144628Y0047787D01*
X0144637Y0047875D01*
X0144642Y0047962D01*
X0144644Y0048050D01*
X0144642Y0048110D01*
X0144637Y0048171D01*
X0144628Y0048230D01*
X0144615Y0048289D01*
X0144599Y0048348D01*
X0144579Y0048405D01*
X0144556Y0048460D01*
X0144529Y0048515D01*
X0144500Y0048567D01*
X0144467Y0048618D01*
X0144431Y0048667D01*
X0144393Y0048713D01*
X0144351Y0048757D01*
X0144307Y0048799D01*
X0144261Y0048837D01*
X0144212Y0048873D01*
X0144161Y0048906D01*
X0144109Y0048935D01*
X0144054Y0048962D01*
X0143999Y0048985D01*
X0143942Y0049005D01*
X0143883Y0049021D01*
X0143824Y0049034D01*
X0143765Y0049043D01*
X0143704Y0049048D01*
X0143644Y0049050D01*
X0142769Y0048550D02*
X0142019Y0047175D01*
X0142769Y0048550D02*
X0142802Y0048602D01*
X0142838Y0048653D01*
X0142877Y0048701D01*
X0142919Y0048746D01*
X0142964Y0048789D01*
X0143012Y0048829D01*
X0143061Y0048866D01*
X0143113Y0048900D01*
X0143167Y0048931D01*
X0143223Y0048959D01*
X0143280Y0048983D01*
X0143339Y0049003D01*
X0143398Y0049020D01*
X0143459Y0049033D01*
X0143520Y0049042D01*
X0143582Y0049048D01*
X0143644Y0049050D01*
X0150173Y0034686D02*
X0122614Y0034686D01*
X0122614Y0007914D01*
X0150173Y0007914D01*
X0150173Y0034686D01*
X0159144Y0049050D02*
X0158144Y0050300D01*
X0162644Y0050300D01*
X0162644Y0049050D02*
X0162644Y0051550D01*
X0111894Y0111550D02*
X0107394Y0111550D01*
X0107394Y0112800D01*
X0107396Y0112862D01*
X0107402Y0112923D01*
X0107411Y0112984D01*
X0107424Y0113044D01*
X0107441Y0113103D01*
X0107462Y0113161D01*
X0107486Y0113218D01*
X0107513Y0113273D01*
X0107544Y0113326D01*
X0107578Y0113378D01*
X0107615Y0113427D01*
X0107655Y0113474D01*
X0107698Y0113518D01*
X0107743Y0113559D01*
X0107791Y0113598D01*
X0107842Y0113634D01*
X0107894Y0113666D01*
X0107948Y0113695D01*
X0108004Y0113721D01*
X0108062Y0113743D01*
X0108120Y0113762D01*
X0108180Y0113777D01*
X0108241Y0113788D01*
X0108302Y0113796D01*
X0108363Y0113800D01*
X0108425Y0113800D01*
X0108486Y0113796D01*
X0108547Y0113788D01*
X0108608Y0113777D01*
X0108668Y0113762D01*
X0108726Y0113743D01*
X0108784Y0113721D01*
X0108840Y0113695D01*
X0108894Y0113666D01*
X0108946Y0113634D01*
X0108997Y0113598D01*
X0109045Y0113559D01*
X0109090Y0113518D01*
X0109133Y0113474D01*
X0109173Y0113427D01*
X0109210Y0113378D01*
X0109244Y0113326D01*
X0109275Y0113273D01*
X0109302Y0113218D01*
X0109326Y0113161D01*
X0109347Y0113103D01*
X0109364Y0113044D01*
X0109377Y0112984D01*
X0109386Y0112923D01*
X0109392Y0112862D01*
X0109394Y0112800D01*
X0109394Y0111550D01*
X0109394Y0112800D02*
X0109396Y0112869D01*
X0109402Y0112938D01*
X0109411Y0113006D01*
X0109424Y0113073D01*
X0109441Y0113140D01*
X0109462Y0113206D01*
X0109486Y0113270D01*
X0109514Y0113333D01*
X0109545Y0113395D01*
X0109579Y0113455D01*
X0109617Y0113512D01*
X0109658Y0113568D01*
X0109701Y0113621D01*
X0109748Y0113672D01*
X0109797Y0113720D01*
X0109849Y0113765D01*
X0109904Y0113807D01*
X0109960Y0113846D01*
X0110019Y0113883D01*
X0110080Y0113915D01*
X0110142Y0113945D01*
X0110206Y0113971D01*
X0110271Y0113993D01*
X0110337Y0114012D01*
X0110404Y0114027D01*
X0110472Y0114038D01*
X0110541Y0114046D01*
X0110610Y0114050D01*
X0110678Y0114050D01*
X0110747Y0114046D01*
X0110816Y0114038D01*
X0110884Y0114027D01*
X0110951Y0114012D01*
X0111017Y0113993D01*
X0111082Y0113971D01*
X0111146Y0113945D01*
X0111208Y0113915D01*
X0111269Y0113883D01*
X0111328Y0113846D01*
X0111384Y0113807D01*
X0111439Y0113765D01*
X0111491Y0113720D01*
X0111540Y0113672D01*
X0111587Y0113621D01*
X0111630Y0113568D01*
X0111671Y0113512D01*
X0111709Y0113455D01*
X0111743Y0113395D01*
X0111774Y0113333D01*
X0111802Y0113270D01*
X0111826Y0113206D01*
X0111847Y0113140D01*
X0111864Y0113073D01*
X0111877Y0113006D01*
X0111886Y0112938D01*
X0111892Y0112869D01*
X0111894Y0112800D01*
X0111894Y0111550D01*
X0105694Y0113400D02*
X0105694Y0099200D01*
X0087094Y0099200D01*
X0087094Y0113400D01*
X0105694Y0113400D01*
X0096394Y0146300D02*
X0096394Y0210080D01*
X0001512Y0210080D01*
X0001512Y0146300D01*
X0096394Y0146300D01*
X0081894Y0109050D02*
X0079894Y0108050D01*
X0079894Y0107800D02*
X0079894Y0106550D01*
X0079894Y0107800D02*
X0079892Y0107869D01*
X0079886Y0107938D01*
X0079877Y0108006D01*
X0079864Y0108073D01*
X0079847Y0108140D01*
X0079826Y0108206D01*
X0079802Y0108270D01*
X0079774Y0108333D01*
X0079743Y0108395D01*
X0079709Y0108455D01*
X0079671Y0108512D01*
X0079630Y0108568D01*
X0079587Y0108621D01*
X0079540Y0108672D01*
X0079491Y0108720D01*
X0079439Y0108765D01*
X0079384Y0108807D01*
X0079328Y0108846D01*
X0079269Y0108883D01*
X0079208Y0108915D01*
X0079146Y0108945D01*
X0079082Y0108971D01*
X0079017Y0108993D01*
X0078951Y0109012D01*
X0078884Y0109027D01*
X0078816Y0109038D01*
X0078747Y0109046D01*
X0078678Y0109050D01*
X0078610Y0109050D01*
X0078541Y0109046D01*
X0078472Y0109038D01*
X0078404Y0109027D01*
X0078337Y0109012D01*
X0078271Y0108993D01*
X0078206Y0108971D01*
X0078142Y0108945D01*
X0078080Y0108915D01*
X0078019Y0108883D01*
X0077960Y0108846D01*
X0077904Y0108807D01*
X0077849Y0108765D01*
X0077797Y0108720D01*
X0077748Y0108672D01*
X0077701Y0108621D01*
X0077658Y0108568D01*
X0077617Y0108512D01*
X0077579Y0108455D01*
X0077545Y0108395D01*
X0077514Y0108333D01*
X0077486Y0108270D01*
X0077462Y0108206D01*
X0077441Y0108140D01*
X0077424Y0108073D01*
X0077411Y0108006D01*
X0077402Y0107938D01*
X0077396Y0107869D01*
X0077394Y0107800D01*
X0077394Y0106550D01*
X0081894Y0106550D01*
X0075694Y0108400D02*
X0075694Y0094200D01*
X0057094Y0094200D01*
X0057094Y0108400D01*
X0075694Y0108400D01*
X0051894Y0104050D02*
X0051894Y0102550D01*
X0051892Y0102490D01*
X0051887Y0102429D01*
X0051878Y0102370D01*
X0051865Y0102311D01*
X0051849Y0102252D01*
X0051829Y0102195D01*
X0051806Y0102140D01*
X0051779Y0102085D01*
X0051750Y0102033D01*
X0051717Y0101982D01*
X0051681Y0101933D01*
X0051643Y0101887D01*
X0051601Y0101843D01*
X0051557Y0101801D01*
X0051511Y0101763D01*
X0051462Y0101727D01*
X0051411Y0101694D01*
X0051359Y0101665D01*
X0051304Y0101638D01*
X0051249Y0101615D01*
X0051192Y0101595D01*
X0051133Y0101579D01*
X0051074Y0101566D01*
X0051015Y0101557D01*
X0050954Y0101552D01*
X0050894Y0101550D01*
X0048394Y0101550D01*
X0048334Y0101552D01*
X0048273Y0101557D01*
X0048214Y0101566D01*
X0048155Y0101579D01*
X0048096Y0101595D01*
X0048039Y0101615D01*
X0047984Y0101638D01*
X0047929Y0101665D01*
X0047877Y0101694D01*
X0047826Y0101727D01*
X0047777Y0101763D01*
X0047731Y0101801D01*
X0047687Y0101843D01*
X0047645Y0101887D01*
X0047607Y0101933D01*
X0047571Y0101982D01*
X0047538Y0102033D01*
X0047509Y0102085D01*
X0047482Y0102140D01*
X0047459Y0102195D01*
X0047439Y0102252D01*
X0047423Y0102311D01*
X0047410Y0102370D01*
X0047401Y0102429D01*
X0047396Y0102490D01*
X0047394Y0102550D01*
X0047394Y0104050D01*
X0045694Y0103400D02*
X0045694Y0089200D01*
X0027094Y0089200D01*
X0027094Y0103400D01*
X0045694Y0103400D01*
X0049394Y0103300D02*
X0049394Y0104050D01*
X0051894Y0104050D01*
X0036894Y0055394D02*
X0105398Y0055394D01*
X0105398Y0011300D01*
X0036894Y0011300D01*
X0036894Y0055394D01*
X0021144Y0057550D02*
X0018644Y0057550D01*
X0020769Y0060050D01*
X0020019Y0062050D02*
X0019946Y0062048D01*
X0019874Y0062043D01*
X0019802Y0062034D01*
X0019730Y0062021D01*
X0019659Y0062005D01*
X0019589Y0061985D01*
X0019521Y0061961D01*
X0019453Y0061935D01*
X0019387Y0061904D01*
X0019322Y0061871D01*
X0019260Y0061834D01*
X0019199Y0061795D01*
X0019140Y0061752D01*
X0019083Y0061706D01*
X0019029Y0061658D01*
X0018978Y0061607D01*
X0018928Y0061553D01*
X0018882Y0061497D01*
X0018839Y0061439D01*
X0018798Y0061378D01*
X0018761Y0061316D01*
X0018727Y0061252D01*
X0018696Y0061186D01*
X0018668Y0061119D01*
X0018644Y0061050D01*
X0020768Y0060050D02*
X0020814Y0060096D01*
X0020858Y0060145D01*
X0020898Y0060196D01*
X0020936Y0060249D01*
X0020971Y0060304D01*
X0021003Y0060361D01*
X0021032Y0060419D01*
X0021058Y0060479D01*
X0021080Y0060541D01*
X0021099Y0060603D01*
X0021115Y0060666D01*
X0021127Y0060730D01*
X0021136Y0060795D01*
X0021141Y0060860D01*
X0021143Y0060925D01*
X0021144Y0060925D02*
X0021142Y0060990D01*
X0021136Y0061056D01*
X0021127Y0061120D01*
X0021114Y0061184D01*
X0021097Y0061248D01*
X0021076Y0061310D01*
X0021052Y0061371D01*
X0021024Y0061430D01*
X0020993Y0061488D01*
X0020959Y0061543D01*
X0020921Y0061597D01*
X0020881Y0061648D01*
X0020837Y0061697D01*
X0020791Y0061743D01*
X0020742Y0061787D01*
X0020691Y0061827D01*
X0020637Y0061865D01*
X0020582Y0061899D01*
X0020524Y0061930D01*
X0020465Y0061958D01*
X0020404Y0061982D01*
X0020342Y0062003D01*
X0020278Y0062020D01*
X0020214Y0062033D01*
X0020150Y0062042D01*
X0020084Y0062048D01*
X0020019Y0062050D01*
X0016879Y0062050D02*
X0015879Y0062050D01*
X0015819Y0062048D01*
X0015758Y0062043D01*
X0015699Y0062034D01*
X0015640Y0062021D01*
X0015581Y0062005D01*
X0015524Y0061985D01*
X0015469Y0061962D01*
X0015414Y0061935D01*
X0015362Y0061906D01*
X0015311Y0061873D01*
X0015262Y0061837D01*
X0015216Y0061799D01*
X0015172Y0061757D01*
X0015130Y0061713D01*
X0015092Y0061667D01*
X0015056Y0061618D01*
X0015023Y0061567D01*
X0014994Y0061515D01*
X0014967Y0061460D01*
X0014944Y0061405D01*
X0014924Y0061348D01*
X0014908Y0061289D01*
X0014895Y0061230D01*
X0014886Y0061171D01*
X0014881Y0061110D01*
X0014879Y0061050D01*
X0014879Y0058550D01*
X0014881Y0058490D01*
X0014886Y0058429D01*
X0014895Y0058370D01*
X0014908Y0058311D01*
X0014924Y0058252D01*
X0014944Y0058195D01*
X0014967Y0058140D01*
X0014994Y0058085D01*
X0015023Y0058033D01*
X0015056Y0057982D01*
X0015092Y0057933D01*
X0015130Y0057887D01*
X0015172Y0057843D01*
X0015216Y0057801D01*
X0015262Y0057763D01*
X0015311Y0057727D01*
X0015362Y0057694D01*
X0015414Y0057665D01*
X0015469Y0057638D01*
X0015524Y0057615D01*
X0015581Y0057595D01*
X0015640Y0057579D01*
X0015699Y0057566D01*
X0015758Y0057557D01*
X0015819Y0057552D01*
X0015879Y0057550D01*
X0016879Y0057550D01*
X0130144Y0191550D02*
X0130144Y0192550D01*
X0130144Y0192050D02*
X0134644Y0192050D01*
X0134644Y0191550D02*
X0134644Y0192550D01*
X0133394Y0194400D02*
X0131394Y0194400D01*
X0131325Y0194402D01*
X0131256Y0194408D01*
X0131188Y0194417D01*
X0131121Y0194430D01*
X0131054Y0194447D01*
X0130988Y0194468D01*
X0130924Y0194492D01*
X0130861Y0194520D01*
X0130799Y0194551D01*
X0130739Y0194585D01*
X0130682Y0194623D01*
X0130626Y0194664D01*
X0130573Y0194707D01*
X0130522Y0194754D01*
X0130474Y0194803D01*
X0130429Y0194855D01*
X0130387Y0194910D01*
X0130348Y0194966D01*
X0130311Y0195025D01*
X0130279Y0195086D01*
X0130249Y0195148D01*
X0130223Y0195212D01*
X0130201Y0195277D01*
X0130182Y0195343D01*
X0130167Y0195410D01*
X0130156Y0195478D01*
X0130148Y0195547D01*
X0130144Y0195616D01*
X0130144Y0195684D01*
X0130148Y0195753D01*
X0130156Y0195822D01*
X0130167Y0195890D01*
X0130182Y0195957D01*
X0130201Y0196023D01*
X0130223Y0196088D01*
X0130249Y0196152D01*
X0130279Y0196214D01*
X0130311Y0196275D01*
X0130348Y0196334D01*
X0130387Y0196390D01*
X0130429Y0196445D01*
X0130474Y0196497D01*
X0130522Y0196546D01*
X0130573Y0196593D01*
X0130626Y0196636D01*
X0130682Y0196677D01*
X0130739Y0196715D01*
X0130799Y0196749D01*
X0130861Y0196780D01*
X0130924Y0196808D01*
X0130988Y0196832D01*
X0131054Y0196853D01*
X0131121Y0196870D01*
X0131188Y0196883D01*
X0131256Y0196892D01*
X0131325Y0196898D01*
X0131394Y0196900D01*
X0133394Y0196900D01*
X0133463Y0196898D01*
X0133532Y0196892D01*
X0133600Y0196883D01*
X0133667Y0196870D01*
X0133734Y0196853D01*
X0133800Y0196832D01*
X0133864Y0196808D01*
X0133927Y0196780D01*
X0133989Y0196749D01*
X0134049Y0196715D01*
X0134106Y0196677D01*
X0134162Y0196636D01*
X0134215Y0196593D01*
X0134266Y0196546D01*
X0134314Y0196497D01*
X0134359Y0196445D01*
X0134401Y0196390D01*
X0134440Y0196334D01*
X0134477Y0196275D01*
X0134509Y0196214D01*
X0134539Y0196152D01*
X0134565Y0196088D01*
X0134587Y0196023D01*
X0134606Y0195957D01*
X0134621Y0195890D01*
X0134632Y0195822D01*
X0134640Y0195753D01*
X0134644Y0195684D01*
X0134644Y0195616D01*
X0134640Y0195547D01*
X0134632Y0195478D01*
X0134621Y0195410D01*
X0134606Y0195343D01*
X0134587Y0195277D01*
X0134565Y0195212D01*
X0134539Y0195148D01*
X0134509Y0195086D01*
X0134477Y0195025D01*
X0134440Y0194966D01*
X0134401Y0194910D01*
X0134359Y0194855D01*
X0134314Y0194803D01*
X0134266Y0194754D01*
X0134215Y0194707D01*
X0134162Y0194664D01*
X0134106Y0194623D01*
X0134049Y0194585D01*
X0133989Y0194551D01*
X0133927Y0194520D01*
X0133864Y0194492D01*
X0133800Y0194468D01*
X0133734Y0194447D01*
X0133667Y0194430D01*
X0133600Y0194417D01*
X0133532Y0194408D01*
X0133463Y0194402D01*
X0133394Y0194400D01*
X0158144Y0195800D02*
X0162644Y0195800D01*
X0162644Y0194550D02*
X0162644Y0197050D01*
X0159144Y0194550D02*
X0158144Y0195800D01*
X0147394Y0157550D02*
X0146144Y0156550D01*
X0147394Y0157550D02*
X0147394Y0153050D01*
X0146144Y0153050D02*
X0148644Y0153050D01*
X0143794Y0154925D02*
X0142419Y0155675D01*
X0142919Y0157550D02*
X0142999Y0157548D01*
X0143080Y0157543D01*
X0143160Y0157534D01*
X0143239Y0157522D01*
X0143318Y0157507D01*
X0143396Y0157488D01*
X0143474Y0157466D01*
X0143550Y0157441D01*
X0143625Y0157412D01*
X0143699Y0157380D01*
X0143771Y0157345D01*
X0143842Y0157307D01*
X0143911Y0157266D01*
X0143979Y0157222D01*
X0144044Y0157175D01*
X0142418Y0155675D02*
X0142366Y0155708D01*
X0142315Y0155744D01*
X0142267Y0155783D01*
X0142222Y0155825D01*
X0142179Y0155870D01*
X0142139Y0155918D01*
X0142102Y0155967D01*
X0142068Y0156019D01*
X0142037Y0156073D01*
X0142009Y0156129D01*
X0141985Y0156186D01*
X0141965Y0156245D01*
X0141948Y0156304D01*
X0141935Y0156365D01*
X0141926Y0156426D01*
X0141920Y0156488D01*
X0141918Y0156550D01*
X0141919Y0156550D02*
X0141921Y0156610D01*
X0141926Y0156671D01*
X0141935Y0156730D01*
X0141948Y0156789D01*
X0141964Y0156848D01*
X0141984Y0156905D01*
X0142007Y0156960D01*
X0142034Y0157015D01*
X0142063Y0157067D01*
X0142096Y0157118D01*
X0142132Y0157167D01*
X0142170Y0157213D01*
X0142212Y0157257D01*
X0142256Y0157299D01*
X0142302Y0157337D01*
X0142351Y0157373D01*
X0142402Y0157406D01*
X0142454Y0157435D01*
X0142509Y0157462D01*
X0142564Y0157485D01*
X0142621Y0157505D01*
X0142680Y0157521D01*
X0142739Y0157534D01*
X0142798Y0157543D01*
X0142859Y0157548D01*
X0142919Y0157550D01*
X0141794Y0153675D02*
X0141857Y0153614D01*
X0141922Y0153556D01*
X0141990Y0153500D01*
X0142061Y0153447D01*
X0142133Y0153398D01*
X0142207Y0153351D01*
X0142283Y0153307D01*
X0142361Y0153267D01*
X0142441Y0153230D01*
X0142522Y0153196D01*
X0142604Y0153166D01*
X0142688Y0153139D01*
X0142773Y0153115D01*
X0142858Y0153095D01*
X0142944Y0153079D01*
X0143031Y0153066D01*
X0143119Y0153057D01*
X0143206Y0153052D01*
X0143294Y0153050D01*
X0143354Y0153052D01*
X0143415Y0153057D01*
X0143474Y0153066D01*
X0143533Y0153079D01*
X0143592Y0153095D01*
X0143649Y0153115D01*
X0143704Y0153138D01*
X0143759Y0153165D01*
X0143811Y0153194D01*
X0143862Y0153227D01*
X0143911Y0153263D01*
X0143957Y0153301D01*
X0144001Y0153343D01*
X0144043Y0153387D01*
X0144081Y0153433D01*
X0144117Y0153482D01*
X0144150Y0153533D01*
X0144179Y0153585D01*
X0144206Y0153640D01*
X0144229Y0153695D01*
X0144249Y0153752D01*
X0144265Y0153811D01*
X0144278Y0153870D01*
X0144287Y0153929D01*
X0144292Y0153990D01*
X0144294Y0154050D01*
X0144292Y0154112D01*
X0144286Y0154174D01*
X0144277Y0154235D01*
X0144264Y0154296D01*
X0144247Y0154355D01*
X0144227Y0154414D01*
X0144203Y0154471D01*
X0144175Y0154527D01*
X0144144Y0154581D01*
X0144110Y0154633D01*
X0144073Y0154682D01*
X0144033Y0154730D01*
X0143990Y0154775D01*
X0143945Y0154817D01*
X0143897Y0154856D01*
X0143846Y0154892D01*
X0143794Y0154925D01*
X0145267Y0142300D02*
X0147521Y0142300D01*
X0154640Y0147800D02*
X0154793Y0147601D01*
X0154941Y0147399D01*
X0155084Y0147194D01*
X0155222Y0146985D01*
X0155355Y0146773D01*
X0155483Y0146558D01*
X0155605Y0146340D01*
X0155723Y0146119D01*
X0155835Y0145895D01*
X0155942Y0145669D01*
X0156043Y0145440D01*
X0156139Y0145209D01*
X0156230Y0144975D01*
X0156315Y0144740D01*
X0156394Y0144502D01*
X0156467Y0144263D01*
X0156535Y0144022D01*
X0156597Y0143780D01*
X0156653Y0143536D01*
X0156704Y0143290D01*
X0156748Y0143044D01*
X0156787Y0142797D01*
X0156819Y0142549D01*
X0156846Y0142300D01*
X0156868Y0142045D01*
X0156883Y0141789D01*
X0156891Y0141533D01*
X0156894Y0141276D01*
X0156890Y0141020D01*
X0156880Y0140764D01*
X0156864Y0140508D01*
X0156842Y0140253D01*
X0156813Y0139998D01*
X0156778Y0139744D01*
X0156737Y0139491D01*
X0156690Y0139239D01*
X0156636Y0138989D01*
X0156577Y0138740D01*
X0156511Y0138492D01*
X0156440Y0138246D01*
X0156362Y0138001D01*
X0156279Y0137759D01*
X0156190Y0137519D01*
X0156094Y0137281D01*
X0155993Y0137045D01*
X0155887Y0136812D01*
X0155774Y0136582D01*
X0155656Y0136354D01*
X0155533Y0136130D01*
X0155404Y0135908D01*
X0155270Y0135690D01*
X0155130Y0135475D01*
X0154985Y0135264D01*
X0154835Y0135056D01*
X0154681Y0134852D01*
X0154521Y0134651D01*
X0154356Y0134455D01*
X0154187Y0134263D01*
X0154012Y0134074D01*
X0153834Y0133891D01*
X0153651Y0133711D01*
X0153463Y0133536D01*
X0153272Y0133366D01*
X0153076Y0133201D01*
X0152876Y0133040D01*
X0152673Y0132884D01*
X0152466Y0132734D01*
X0152255Y0132588D01*
X0152040Y0132447D01*
X0151823Y0132312D01*
X0151602Y0132182D01*
X0151378Y0132058D01*
X0151151Y0131939D01*
X0150921Y0131826D01*
X0150688Y0131718D01*
X0150453Y0131616D01*
X0150215Y0131520D01*
X0149976Y0131430D01*
X0149734Y0131345D01*
X0149490Y0131267D01*
X0143298Y0131267D02*
X0143056Y0131345D01*
X0142816Y0131429D01*
X0142578Y0131518D01*
X0142342Y0131613D01*
X0142108Y0131715D01*
X0141877Y0131821D01*
X0141649Y0131934D01*
X0141423Y0132051D01*
X0141200Y0132174D01*
X0140981Y0132303D01*
X0140764Y0132437D01*
X0140551Y0132576D01*
X0140341Y0132720D01*
X0140135Y0132869D01*
X0139933Y0133023D01*
X0139734Y0133182D01*
X0139539Y0133346D01*
X0139348Y0133515D01*
X0139162Y0133688D01*
X0138979Y0133865D01*
X0138801Y0134047D01*
X0138628Y0134233D01*
X0138459Y0134424D01*
X0138295Y0134618D01*
X0138135Y0134816D01*
X0137980Y0135018D01*
X0137831Y0135224D01*
X0137686Y0135433D01*
X0137546Y0135646D01*
X0137412Y0135862D01*
X0137283Y0136082D01*
X0137159Y0136304D01*
X0137040Y0136529D01*
X0136928Y0136757D01*
X0136820Y0136988D01*
X0136719Y0137221D01*
X0136623Y0137457D01*
X0136532Y0137695D01*
X0136448Y0137935D01*
X0136369Y0138177D01*
X0136296Y0138421D01*
X0136230Y0138667D01*
X0136169Y0138914D01*
X0136114Y0139162D01*
X0136065Y0139412D01*
X0136022Y0139663D01*
X0135986Y0139915D01*
X0135955Y0140167D01*
X0135931Y0140421D01*
X0135913Y0140674D01*
X0135901Y0140929D01*
X0135895Y0141183D01*
X0135895Y0141438D01*
X0135901Y0141692D01*
X0135914Y0141946D01*
X0135933Y0142200D01*
X0135958Y0142453D01*
X0135989Y0142706D01*
X0136026Y0142958D01*
X0136069Y0143208D01*
X0136118Y0143458D01*
X0136174Y0143707D01*
X0136235Y0143954D01*
X0136302Y0144199D01*
X0136375Y0144443D01*
X0136454Y0144685D01*
X0136539Y0144924D01*
X0136630Y0145162D01*
X0136727Y0145398D01*
X0136829Y0145631D01*
X0136937Y0145861D01*
X0137050Y0146089D01*
X0137169Y0146314D01*
X0137293Y0146536D01*
X0137423Y0146755D01*
X0137557Y0146971D01*
X0137697Y0147184D01*
X0137843Y0147393D01*
X0137993Y0147598D01*
X0138148Y0147800D01*
X0134644Y0234550D02*
X0134644Y0237050D01*
X0134644Y0235800D02*
X0130144Y0235800D01*
X0131144Y0234550D01*
X0132394Y0241550D02*
X0132514Y0241548D01*
X0132634Y0241542D01*
X0132754Y0241532D01*
X0132873Y0241519D01*
X0132992Y0241501D01*
X0133110Y0241480D01*
X0133228Y0241455D01*
X0133344Y0241426D01*
X0133460Y0241393D01*
X0133574Y0241357D01*
X0133688Y0241317D01*
X0133800Y0241273D01*
X0133910Y0241226D01*
X0134019Y0241175D01*
X0134075Y0241154D01*
X0134130Y0241128D01*
X0134184Y0241100D01*
X0134235Y0241068D01*
X0134284Y0241033D01*
X0134330Y0240994D01*
X0134374Y0240953D01*
X0134416Y0240909D01*
X0134454Y0240862D01*
X0134489Y0240813D01*
X0134521Y0240761D01*
X0134549Y0240708D01*
X0134574Y0240653D01*
X0134595Y0240597D01*
X0134613Y0240539D01*
X0134626Y0240480D01*
X0134636Y0240420D01*
X0134642Y0240360D01*
X0134644Y0240300D01*
X0134642Y0240240D01*
X0134636Y0240180D01*
X0134626Y0240120D01*
X0134613Y0240061D01*
X0134595Y0240003D01*
X0134574Y0239947D01*
X0134549Y0239892D01*
X0134521Y0239839D01*
X0134489Y0239787D01*
X0134454Y0239738D01*
X0134416Y0239691D01*
X0134374Y0239647D01*
X0134330Y0239606D01*
X0134284Y0239567D01*
X0134235Y0239532D01*
X0134184Y0239500D01*
X0134130Y0239472D01*
X0134075Y0239446D01*
X0134019Y0239425D01*
X0133644Y0239300D02*
X0131144Y0241300D01*
X0130769Y0241175D02*
X0130713Y0241154D01*
X0130658Y0241128D01*
X0130604Y0241100D01*
X0130553Y0241068D01*
X0130504Y0241033D01*
X0130458Y0240994D01*
X0130414Y0240953D01*
X0130372Y0240909D01*
X0130334Y0240862D01*
X0130299Y0240813D01*
X0130267Y0240761D01*
X0130239Y0240708D01*
X0130214Y0240653D01*
X0130193Y0240597D01*
X0130175Y0240539D01*
X0130162Y0240480D01*
X0130152Y0240420D01*
X0130146Y0240360D01*
X0130144Y0240300D01*
X0130146Y0240240D01*
X0130152Y0240180D01*
X0130162Y0240120D01*
X0130175Y0240061D01*
X0130193Y0240003D01*
X0130214Y0239947D01*
X0130239Y0239892D01*
X0130267Y0239839D01*
X0130299Y0239787D01*
X0130334Y0239738D01*
X0130372Y0239691D01*
X0130414Y0239647D01*
X0130458Y0239606D01*
X0130504Y0239567D01*
X0130553Y0239532D01*
X0130604Y0239500D01*
X0130658Y0239472D01*
X0130713Y0239446D01*
X0130769Y0239425D01*
X0130769Y0241175D02*
X0130878Y0241226D01*
X0130988Y0241273D01*
X0131100Y0241317D01*
X0131214Y0241357D01*
X0131328Y0241393D01*
X0131444Y0241426D01*
X0131560Y0241455D01*
X0131678Y0241480D01*
X0131796Y0241501D01*
X0131915Y0241519D01*
X0132034Y0241532D01*
X0132154Y0241542D01*
X0132274Y0241548D01*
X0132394Y0241550D01*
X0132394Y0239050D02*
X0132514Y0239052D01*
X0132634Y0239058D01*
X0132754Y0239068D01*
X0132873Y0239081D01*
X0132992Y0239099D01*
X0133110Y0239120D01*
X0133228Y0239145D01*
X0133344Y0239174D01*
X0133460Y0239207D01*
X0133574Y0239243D01*
X0133688Y0239283D01*
X0133800Y0239327D01*
X0133910Y0239374D01*
X0134019Y0239425D01*
X0132394Y0239050D02*
X0132274Y0239052D01*
X0132154Y0239058D01*
X0132034Y0239068D01*
X0131915Y0239081D01*
X0131796Y0239099D01*
X0131678Y0239120D01*
X0131560Y0239145D01*
X0131444Y0239174D01*
X0131328Y0239207D01*
X0131214Y0239243D01*
X0131100Y0239283D01*
X0130988Y0239327D01*
X0130878Y0239374D01*
X0130769Y0239425D01*
X0127908Y0250550D02*
X0125408Y0250550D01*
X0126658Y0250550D02*
X0126658Y0255050D01*
X0125408Y0254050D01*
X0123644Y0255050D02*
X0122644Y0255050D01*
X0122584Y0255048D01*
X0122523Y0255043D01*
X0122464Y0255034D01*
X0122405Y0255021D01*
X0122346Y0255005D01*
X0122289Y0254985D01*
X0122234Y0254962D01*
X0122179Y0254935D01*
X0122127Y0254906D01*
X0122076Y0254873D01*
X0122027Y0254837D01*
X0121981Y0254799D01*
X0121937Y0254757D01*
X0121895Y0254713D01*
X0121857Y0254667D01*
X0121821Y0254618D01*
X0121788Y0254567D01*
X0121759Y0254515D01*
X0121732Y0254460D01*
X0121709Y0254405D01*
X0121689Y0254348D01*
X0121673Y0254289D01*
X0121660Y0254230D01*
X0121651Y0254171D01*
X0121646Y0254110D01*
X0121644Y0254050D01*
X0121644Y0251550D01*
X0121646Y0251490D01*
X0121651Y0251429D01*
X0121660Y0251370D01*
X0121673Y0251311D01*
X0121689Y0251252D01*
X0121709Y0251195D01*
X0121732Y0251140D01*
X0121759Y0251085D01*
X0121788Y0251033D01*
X0121821Y0250982D01*
X0121857Y0250933D01*
X0121895Y0250887D01*
X0121937Y0250843D01*
X0121981Y0250801D01*
X0122027Y0250763D01*
X0122076Y0250727D01*
X0122127Y0250694D01*
X0122179Y0250665D01*
X0122234Y0250638D01*
X0122289Y0250615D01*
X0122346Y0250595D01*
X0122405Y0250579D01*
X0122464Y0250566D01*
X0122523Y0250557D01*
X0122584Y0250552D01*
X0122644Y0250550D01*
X0123644Y0250550D01*
X0085644Y0244050D02*
X0083144Y0244050D01*
X0084394Y0244050D02*
X0084394Y0248550D01*
X0083144Y0247550D01*
X0079144Y0239550D02*
X0079144Y0235050D01*
X0081144Y0235050D01*
X0077234Y0235050D02*
X0075734Y0239550D01*
X0074234Y0235050D01*
X0074609Y0236175D02*
X0076859Y0236175D01*
X0072634Y0235050D02*
X0071634Y0235050D01*
X0072134Y0235050D02*
X0072134Y0239550D01*
X0071634Y0239550D02*
X0072634Y0239550D01*
X0068816Y0237050D02*
X0069816Y0235050D01*
X0068566Y0237050D02*
X0067316Y0237050D01*
X0068566Y0237050D02*
X0068635Y0237052D01*
X0068704Y0237058D01*
X0068772Y0237067D01*
X0068839Y0237080D01*
X0068906Y0237097D01*
X0068972Y0237118D01*
X0069036Y0237142D01*
X0069099Y0237170D01*
X0069161Y0237201D01*
X0069221Y0237235D01*
X0069278Y0237273D01*
X0069334Y0237314D01*
X0069387Y0237357D01*
X0069438Y0237404D01*
X0069486Y0237453D01*
X0069531Y0237505D01*
X0069573Y0237560D01*
X0069612Y0237616D01*
X0069649Y0237675D01*
X0069681Y0237736D01*
X0069711Y0237798D01*
X0069737Y0237862D01*
X0069759Y0237927D01*
X0069778Y0237993D01*
X0069793Y0238060D01*
X0069804Y0238128D01*
X0069812Y0238197D01*
X0069816Y0238266D01*
X0069816Y0238334D01*
X0069812Y0238403D01*
X0069804Y0238472D01*
X0069793Y0238540D01*
X0069778Y0238607D01*
X0069759Y0238673D01*
X0069737Y0238738D01*
X0069711Y0238802D01*
X0069681Y0238864D01*
X0069649Y0238925D01*
X0069612Y0238984D01*
X0069573Y0239040D01*
X0069531Y0239095D01*
X0069486Y0239147D01*
X0069438Y0239196D01*
X0069387Y0239243D01*
X0069334Y0239286D01*
X0069278Y0239327D01*
X0069221Y0239365D01*
X0069161Y0239399D01*
X0069099Y0239430D01*
X0069036Y0239458D01*
X0068972Y0239482D01*
X0068906Y0239503D01*
X0068839Y0239520D01*
X0068772Y0239533D01*
X0068704Y0239542D01*
X0068635Y0239548D01*
X0068566Y0239550D01*
X0067316Y0239550D01*
X0067316Y0235050D01*
X0065394Y0235050D02*
X0063394Y0235050D01*
X0063394Y0239550D01*
X0065394Y0239550D01*
X0064894Y0237550D02*
X0063394Y0237550D01*
X0060884Y0236925D02*
X0059509Y0237675D01*
X0060009Y0239550D02*
X0060089Y0239548D01*
X0060170Y0239543D01*
X0060250Y0239534D01*
X0060329Y0239522D01*
X0060408Y0239507D01*
X0060486Y0239488D01*
X0060564Y0239466D01*
X0060640Y0239441D01*
X0060715Y0239412D01*
X0060789Y0239380D01*
X0060861Y0239345D01*
X0060932Y0239307D01*
X0061001Y0239266D01*
X0061069Y0239222D01*
X0061134Y0239175D01*
X0059508Y0237675D02*
X0059456Y0237708D01*
X0059405Y0237744D01*
X0059357Y0237783D01*
X0059312Y0237825D01*
X0059269Y0237870D01*
X0059229Y0237918D01*
X0059192Y0237967D01*
X0059158Y0238019D01*
X0059127Y0238073D01*
X0059099Y0238129D01*
X0059075Y0238186D01*
X0059055Y0238245D01*
X0059038Y0238304D01*
X0059025Y0238365D01*
X0059016Y0238426D01*
X0059010Y0238488D01*
X0059008Y0238550D01*
X0059009Y0238550D02*
X0059011Y0238610D01*
X0059016Y0238671D01*
X0059025Y0238730D01*
X0059038Y0238789D01*
X0059054Y0238848D01*
X0059074Y0238905D01*
X0059097Y0238960D01*
X0059124Y0239015D01*
X0059153Y0239067D01*
X0059186Y0239118D01*
X0059222Y0239167D01*
X0059260Y0239213D01*
X0059302Y0239257D01*
X0059346Y0239299D01*
X0059392Y0239337D01*
X0059441Y0239373D01*
X0059492Y0239406D01*
X0059544Y0239435D01*
X0059599Y0239462D01*
X0059654Y0239485D01*
X0059711Y0239505D01*
X0059770Y0239521D01*
X0059829Y0239534D01*
X0059888Y0239543D01*
X0059949Y0239548D01*
X0060009Y0239550D01*
X0058884Y0235674D02*
X0058947Y0235613D01*
X0059012Y0235555D01*
X0059080Y0235499D01*
X0059151Y0235446D01*
X0059223Y0235397D01*
X0059297Y0235350D01*
X0059373Y0235306D01*
X0059451Y0235266D01*
X0059531Y0235229D01*
X0059612Y0235195D01*
X0059694Y0235165D01*
X0059778Y0235138D01*
X0059863Y0235114D01*
X0059948Y0235094D01*
X0060034Y0235078D01*
X0060121Y0235065D01*
X0060209Y0235056D01*
X0060296Y0235051D01*
X0060384Y0235049D01*
X0060384Y0235050D02*
X0060444Y0235052D01*
X0060505Y0235057D01*
X0060564Y0235066D01*
X0060623Y0235079D01*
X0060682Y0235095D01*
X0060739Y0235115D01*
X0060794Y0235138D01*
X0060849Y0235165D01*
X0060901Y0235194D01*
X0060952Y0235227D01*
X0061001Y0235263D01*
X0061047Y0235301D01*
X0061091Y0235343D01*
X0061133Y0235387D01*
X0061171Y0235433D01*
X0061207Y0235482D01*
X0061240Y0235533D01*
X0061269Y0235585D01*
X0061296Y0235640D01*
X0061319Y0235695D01*
X0061339Y0235752D01*
X0061355Y0235811D01*
X0061368Y0235870D01*
X0061377Y0235929D01*
X0061382Y0235990D01*
X0061384Y0236050D01*
X0061382Y0236112D01*
X0061376Y0236174D01*
X0061367Y0236235D01*
X0061354Y0236296D01*
X0061337Y0236355D01*
X0061317Y0236414D01*
X0061293Y0236471D01*
X0061265Y0236527D01*
X0061234Y0236581D01*
X0061200Y0236633D01*
X0061163Y0236682D01*
X0061123Y0236730D01*
X0061080Y0236775D01*
X0061035Y0236817D01*
X0060987Y0236856D01*
X0060936Y0236892D01*
X0060884Y0236925D01*
X0040144Y0245050D02*
X0037644Y0245050D01*
X0038644Y0248550D01*
X0039394Y0246050D02*
X0039394Y0244050D01*
D13*
X0102094Y0111200D02*
X0102096Y0111275D01*
X0102102Y0111349D01*
X0102112Y0111423D01*
X0102126Y0111496D01*
X0102143Y0111568D01*
X0102165Y0111640D01*
X0102190Y0111710D01*
X0102219Y0111778D01*
X0102252Y0111846D01*
X0102288Y0111911D01*
X0102327Y0111974D01*
X0102370Y0112035D01*
X0102416Y0112094D01*
X0102465Y0112150D01*
X0102517Y0112203D01*
X0102572Y0112254D01*
X0102629Y0112301D01*
X0102689Y0112346D01*
X0102751Y0112387D01*
X0102816Y0112425D01*
X0102882Y0112459D01*
X0102950Y0112490D01*
X0103019Y0112517D01*
X0103090Y0112540D01*
X0103162Y0112560D01*
X0103235Y0112576D01*
X0103308Y0112588D01*
X0103382Y0112596D01*
X0103457Y0112600D01*
X0103531Y0112600D01*
X0103606Y0112596D01*
X0103680Y0112588D01*
X0103753Y0112576D01*
X0103826Y0112560D01*
X0103898Y0112540D01*
X0103969Y0112517D01*
X0104038Y0112490D01*
X0104106Y0112459D01*
X0104172Y0112425D01*
X0104237Y0112387D01*
X0104299Y0112346D01*
X0104359Y0112301D01*
X0104416Y0112254D01*
X0104471Y0112203D01*
X0104523Y0112150D01*
X0104572Y0112094D01*
X0104618Y0112035D01*
X0104661Y0111974D01*
X0104700Y0111911D01*
X0104736Y0111846D01*
X0104769Y0111778D01*
X0104798Y0111710D01*
X0104823Y0111640D01*
X0104845Y0111568D01*
X0104862Y0111496D01*
X0104876Y0111423D01*
X0104886Y0111349D01*
X0104892Y0111275D01*
X0104894Y0111200D01*
X0104892Y0111125D01*
X0104886Y0111051D01*
X0104876Y0110977D01*
X0104862Y0110904D01*
X0104845Y0110832D01*
X0104823Y0110760D01*
X0104798Y0110690D01*
X0104769Y0110622D01*
X0104736Y0110554D01*
X0104700Y0110489D01*
X0104661Y0110426D01*
X0104618Y0110365D01*
X0104572Y0110306D01*
X0104523Y0110250D01*
X0104471Y0110197D01*
X0104416Y0110146D01*
X0104359Y0110099D01*
X0104299Y0110054D01*
X0104237Y0110013D01*
X0104172Y0109975D01*
X0104106Y0109941D01*
X0104038Y0109910D01*
X0103969Y0109883D01*
X0103898Y0109860D01*
X0103826Y0109840D01*
X0103753Y0109824D01*
X0103680Y0109812D01*
X0103606Y0109804D01*
X0103531Y0109800D01*
X0103457Y0109800D01*
X0103382Y0109804D01*
X0103308Y0109812D01*
X0103235Y0109824D01*
X0103162Y0109840D01*
X0103090Y0109860D01*
X0103019Y0109883D01*
X0102950Y0109910D01*
X0102882Y0109941D01*
X0102816Y0109975D01*
X0102751Y0110013D01*
X0102689Y0110054D01*
X0102629Y0110099D01*
X0102572Y0110146D01*
X0102517Y0110197D01*
X0102465Y0110250D01*
X0102416Y0110306D01*
X0102370Y0110365D01*
X0102327Y0110426D01*
X0102288Y0110489D01*
X0102252Y0110554D01*
X0102219Y0110622D01*
X0102190Y0110690D01*
X0102165Y0110760D01*
X0102143Y0110832D01*
X0102126Y0110904D01*
X0102112Y0110977D01*
X0102102Y0111051D01*
X0102096Y0111125D01*
X0102094Y0111200D01*
X0072094Y0106200D02*
X0072096Y0106275D01*
X0072102Y0106349D01*
X0072112Y0106423D01*
X0072126Y0106496D01*
X0072143Y0106568D01*
X0072165Y0106640D01*
X0072190Y0106710D01*
X0072219Y0106778D01*
X0072252Y0106846D01*
X0072288Y0106911D01*
X0072327Y0106974D01*
X0072370Y0107035D01*
X0072416Y0107094D01*
X0072465Y0107150D01*
X0072517Y0107203D01*
X0072572Y0107254D01*
X0072629Y0107301D01*
X0072689Y0107346D01*
X0072751Y0107387D01*
X0072816Y0107425D01*
X0072882Y0107459D01*
X0072950Y0107490D01*
X0073019Y0107517D01*
X0073090Y0107540D01*
X0073162Y0107560D01*
X0073235Y0107576D01*
X0073308Y0107588D01*
X0073382Y0107596D01*
X0073457Y0107600D01*
X0073531Y0107600D01*
X0073606Y0107596D01*
X0073680Y0107588D01*
X0073753Y0107576D01*
X0073826Y0107560D01*
X0073898Y0107540D01*
X0073969Y0107517D01*
X0074038Y0107490D01*
X0074106Y0107459D01*
X0074172Y0107425D01*
X0074237Y0107387D01*
X0074299Y0107346D01*
X0074359Y0107301D01*
X0074416Y0107254D01*
X0074471Y0107203D01*
X0074523Y0107150D01*
X0074572Y0107094D01*
X0074618Y0107035D01*
X0074661Y0106974D01*
X0074700Y0106911D01*
X0074736Y0106846D01*
X0074769Y0106778D01*
X0074798Y0106710D01*
X0074823Y0106640D01*
X0074845Y0106568D01*
X0074862Y0106496D01*
X0074876Y0106423D01*
X0074886Y0106349D01*
X0074892Y0106275D01*
X0074894Y0106200D01*
X0074892Y0106125D01*
X0074886Y0106051D01*
X0074876Y0105977D01*
X0074862Y0105904D01*
X0074845Y0105832D01*
X0074823Y0105760D01*
X0074798Y0105690D01*
X0074769Y0105622D01*
X0074736Y0105554D01*
X0074700Y0105489D01*
X0074661Y0105426D01*
X0074618Y0105365D01*
X0074572Y0105306D01*
X0074523Y0105250D01*
X0074471Y0105197D01*
X0074416Y0105146D01*
X0074359Y0105099D01*
X0074299Y0105054D01*
X0074237Y0105013D01*
X0074172Y0104975D01*
X0074106Y0104941D01*
X0074038Y0104910D01*
X0073969Y0104883D01*
X0073898Y0104860D01*
X0073826Y0104840D01*
X0073753Y0104824D01*
X0073680Y0104812D01*
X0073606Y0104804D01*
X0073531Y0104800D01*
X0073457Y0104800D01*
X0073382Y0104804D01*
X0073308Y0104812D01*
X0073235Y0104824D01*
X0073162Y0104840D01*
X0073090Y0104860D01*
X0073019Y0104883D01*
X0072950Y0104910D01*
X0072882Y0104941D01*
X0072816Y0104975D01*
X0072751Y0105013D01*
X0072689Y0105054D01*
X0072629Y0105099D01*
X0072572Y0105146D01*
X0072517Y0105197D01*
X0072465Y0105250D01*
X0072416Y0105306D01*
X0072370Y0105365D01*
X0072327Y0105426D01*
X0072288Y0105489D01*
X0072252Y0105554D01*
X0072219Y0105622D01*
X0072190Y0105690D01*
X0072165Y0105760D01*
X0072143Y0105832D01*
X0072126Y0105904D01*
X0072112Y0105977D01*
X0072102Y0106051D01*
X0072096Y0106125D01*
X0072094Y0106200D01*
X0042094Y0101200D02*
X0042096Y0101275D01*
X0042102Y0101349D01*
X0042112Y0101423D01*
X0042126Y0101496D01*
X0042143Y0101568D01*
X0042165Y0101640D01*
X0042190Y0101710D01*
X0042219Y0101778D01*
X0042252Y0101846D01*
X0042288Y0101911D01*
X0042327Y0101974D01*
X0042370Y0102035D01*
X0042416Y0102094D01*
X0042465Y0102150D01*
X0042517Y0102203D01*
X0042572Y0102254D01*
X0042629Y0102301D01*
X0042689Y0102346D01*
X0042751Y0102387D01*
X0042816Y0102425D01*
X0042882Y0102459D01*
X0042950Y0102490D01*
X0043019Y0102517D01*
X0043090Y0102540D01*
X0043162Y0102560D01*
X0043235Y0102576D01*
X0043308Y0102588D01*
X0043382Y0102596D01*
X0043457Y0102600D01*
X0043531Y0102600D01*
X0043606Y0102596D01*
X0043680Y0102588D01*
X0043753Y0102576D01*
X0043826Y0102560D01*
X0043898Y0102540D01*
X0043969Y0102517D01*
X0044038Y0102490D01*
X0044106Y0102459D01*
X0044172Y0102425D01*
X0044237Y0102387D01*
X0044299Y0102346D01*
X0044359Y0102301D01*
X0044416Y0102254D01*
X0044471Y0102203D01*
X0044523Y0102150D01*
X0044572Y0102094D01*
X0044618Y0102035D01*
X0044661Y0101974D01*
X0044700Y0101911D01*
X0044736Y0101846D01*
X0044769Y0101778D01*
X0044798Y0101710D01*
X0044823Y0101640D01*
X0044845Y0101568D01*
X0044862Y0101496D01*
X0044876Y0101423D01*
X0044886Y0101349D01*
X0044892Y0101275D01*
X0044894Y0101200D01*
X0044892Y0101125D01*
X0044886Y0101051D01*
X0044876Y0100977D01*
X0044862Y0100904D01*
X0044845Y0100832D01*
X0044823Y0100760D01*
X0044798Y0100690D01*
X0044769Y0100622D01*
X0044736Y0100554D01*
X0044700Y0100489D01*
X0044661Y0100426D01*
X0044618Y0100365D01*
X0044572Y0100306D01*
X0044523Y0100250D01*
X0044471Y0100197D01*
X0044416Y0100146D01*
X0044359Y0100099D01*
X0044299Y0100054D01*
X0044237Y0100013D01*
X0044172Y0099975D01*
X0044106Y0099941D01*
X0044038Y0099910D01*
X0043969Y0099883D01*
X0043898Y0099860D01*
X0043826Y0099840D01*
X0043753Y0099824D01*
X0043680Y0099812D01*
X0043606Y0099804D01*
X0043531Y0099800D01*
X0043457Y0099800D01*
X0043382Y0099804D01*
X0043308Y0099812D01*
X0043235Y0099824D01*
X0043162Y0099840D01*
X0043090Y0099860D01*
X0043019Y0099883D01*
X0042950Y0099910D01*
X0042882Y0099941D01*
X0042816Y0099975D01*
X0042751Y0100013D01*
X0042689Y0100054D01*
X0042629Y0100099D01*
X0042572Y0100146D01*
X0042517Y0100197D01*
X0042465Y0100250D01*
X0042416Y0100306D01*
X0042370Y0100365D01*
X0042327Y0100426D01*
X0042288Y0100489D01*
X0042252Y0100554D01*
X0042219Y0100622D01*
X0042190Y0100690D01*
X0042165Y0100760D01*
X0042143Y0100832D01*
X0042126Y0100904D01*
X0042112Y0100977D01*
X0042102Y0101051D01*
X0042096Y0101125D01*
X0042094Y0101200D01*
X0131894Y0160300D02*
X0131894Y0161300D01*
X0141894Y0161300D01*
X0141894Y0160300D01*
X0141894Y0183300D02*
X0132394Y0183300D01*
X0132394Y0184300D01*
X0141894Y0184300D02*
X0141894Y0183300D01*
X0132094Y0116200D02*
X0132096Y0116275D01*
X0132102Y0116349D01*
X0132112Y0116423D01*
X0132126Y0116496D01*
X0132143Y0116568D01*
X0132165Y0116640D01*
X0132190Y0116710D01*
X0132219Y0116778D01*
X0132252Y0116846D01*
X0132288Y0116911D01*
X0132327Y0116974D01*
X0132370Y0117035D01*
X0132416Y0117094D01*
X0132465Y0117150D01*
X0132517Y0117203D01*
X0132572Y0117254D01*
X0132629Y0117301D01*
X0132689Y0117346D01*
X0132751Y0117387D01*
X0132816Y0117425D01*
X0132882Y0117459D01*
X0132950Y0117490D01*
X0133019Y0117517D01*
X0133090Y0117540D01*
X0133162Y0117560D01*
X0133235Y0117576D01*
X0133308Y0117588D01*
X0133382Y0117596D01*
X0133457Y0117600D01*
X0133531Y0117600D01*
X0133606Y0117596D01*
X0133680Y0117588D01*
X0133753Y0117576D01*
X0133826Y0117560D01*
X0133898Y0117540D01*
X0133969Y0117517D01*
X0134038Y0117490D01*
X0134106Y0117459D01*
X0134172Y0117425D01*
X0134237Y0117387D01*
X0134299Y0117346D01*
X0134359Y0117301D01*
X0134416Y0117254D01*
X0134471Y0117203D01*
X0134523Y0117150D01*
X0134572Y0117094D01*
X0134618Y0117035D01*
X0134661Y0116974D01*
X0134700Y0116911D01*
X0134736Y0116846D01*
X0134769Y0116778D01*
X0134798Y0116710D01*
X0134823Y0116640D01*
X0134845Y0116568D01*
X0134862Y0116496D01*
X0134876Y0116423D01*
X0134886Y0116349D01*
X0134892Y0116275D01*
X0134894Y0116200D01*
X0134892Y0116125D01*
X0134886Y0116051D01*
X0134876Y0115977D01*
X0134862Y0115904D01*
X0134845Y0115832D01*
X0134823Y0115760D01*
X0134798Y0115690D01*
X0134769Y0115622D01*
X0134736Y0115554D01*
X0134700Y0115489D01*
X0134661Y0115426D01*
X0134618Y0115365D01*
X0134572Y0115306D01*
X0134523Y0115250D01*
X0134471Y0115197D01*
X0134416Y0115146D01*
X0134359Y0115099D01*
X0134299Y0115054D01*
X0134237Y0115013D01*
X0134172Y0114975D01*
X0134106Y0114941D01*
X0134038Y0114910D01*
X0133969Y0114883D01*
X0133898Y0114860D01*
X0133826Y0114840D01*
X0133753Y0114824D01*
X0133680Y0114812D01*
X0133606Y0114804D01*
X0133531Y0114800D01*
X0133457Y0114800D01*
X0133382Y0114804D01*
X0133308Y0114812D01*
X0133235Y0114824D01*
X0133162Y0114840D01*
X0133090Y0114860D01*
X0133019Y0114883D01*
X0132950Y0114910D01*
X0132882Y0114941D01*
X0132816Y0114975D01*
X0132751Y0115013D01*
X0132689Y0115054D01*
X0132629Y0115099D01*
X0132572Y0115146D01*
X0132517Y0115197D01*
X0132465Y0115250D01*
X0132416Y0115306D01*
X0132370Y0115365D01*
X0132327Y0115426D01*
X0132288Y0115489D01*
X0132252Y0115554D01*
X0132219Y0115622D01*
X0132190Y0115690D01*
X0132165Y0115760D01*
X0132143Y0115832D01*
X0132126Y0115904D01*
X0132112Y0115977D01*
X0132102Y0116051D01*
X0132096Y0116125D01*
X0132094Y0116200D01*
D14*
X0131894Y0107900D02*
X0131950Y0107898D01*
X0132005Y0107892D01*
X0132060Y0107883D01*
X0132115Y0107869D01*
X0132168Y0107852D01*
X0132219Y0107831D01*
X0132270Y0107806D01*
X0132318Y0107778D01*
X0132364Y0107747D01*
X0132408Y0107713D01*
X0132450Y0107675D01*
X0132489Y0107635D01*
X0132524Y0107593D01*
X0132557Y0107547D01*
X0132587Y0107500D01*
X0132613Y0107451D01*
X0132636Y0107400D01*
X0132655Y0107347D01*
X0132670Y0107294D01*
X0132682Y0107239D01*
X0132690Y0107184D01*
X0132694Y0107128D01*
X0132694Y0107072D01*
X0132690Y0107016D01*
X0132682Y0106961D01*
X0132670Y0106906D01*
X0132655Y0106853D01*
X0132636Y0106800D01*
X0132613Y0106749D01*
X0132587Y0106700D01*
X0132557Y0106653D01*
X0132524Y0106607D01*
X0132489Y0106565D01*
X0132450Y0106525D01*
X0132408Y0106487D01*
X0132364Y0106453D01*
X0132318Y0106422D01*
X0132270Y0106394D01*
X0132219Y0106369D01*
X0132168Y0106348D01*
X0132115Y0106331D01*
X0132060Y0106317D01*
X0132005Y0106308D01*
X0131950Y0106302D01*
X0131894Y0106300D01*
X0131838Y0106302D01*
X0131783Y0106308D01*
X0131728Y0106317D01*
X0131673Y0106331D01*
X0131620Y0106348D01*
X0131569Y0106369D01*
X0131518Y0106394D01*
X0131470Y0106422D01*
X0131424Y0106453D01*
X0131380Y0106487D01*
X0131338Y0106525D01*
X0131299Y0106565D01*
X0131264Y0106607D01*
X0131231Y0106653D01*
X0131201Y0106700D01*
X0131175Y0106749D01*
X0131152Y0106800D01*
X0131133Y0106853D01*
X0131118Y0106906D01*
X0131106Y0106961D01*
X0131098Y0107016D01*
X0131094Y0107072D01*
X0131094Y0107128D01*
X0131098Y0107184D01*
X0131106Y0107239D01*
X0131118Y0107294D01*
X0131133Y0107347D01*
X0131152Y0107400D01*
X0131175Y0107451D01*
X0131201Y0107500D01*
X0131231Y0107547D01*
X0131264Y0107593D01*
X0131299Y0107635D01*
X0131338Y0107675D01*
X0131380Y0107713D01*
X0131424Y0107747D01*
X0131470Y0107778D01*
X0131518Y0107806D01*
X0131569Y0107831D01*
X0131620Y0107852D01*
X0131673Y0107869D01*
X0131728Y0107883D01*
X0131783Y0107892D01*
X0131838Y0107898D01*
X0131894Y0107900D01*
X0133694Y0108100D02*
X0133756Y0108098D01*
X0133817Y0108092D01*
X0133878Y0108083D01*
X0133938Y0108070D01*
X0133997Y0108053D01*
X0134055Y0108032D01*
X0134112Y0108008D01*
X0134167Y0107981D01*
X0134220Y0107950D01*
X0134272Y0107916D01*
X0134321Y0107879D01*
X0134368Y0107839D01*
X0134412Y0107796D01*
X0134453Y0107751D01*
X0134492Y0107703D01*
X0134528Y0107652D01*
X0134560Y0107600D01*
X0134589Y0107546D01*
X0134615Y0107490D01*
X0134637Y0107432D01*
X0134656Y0107374D01*
X0134671Y0107314D01*
X0134682Y0107253D01*
X0134690Y0107192D01*
X0134694Y0107131D01*
X0134694Y0107069D01*
X0134690Y0107008D01*
X0134682Y0106947D01*
X0134671Y0106886D01*
X0134656Y0106826D01*
X0134637Y0106768D01*
X0134615Y0106710D01*
X0134589Y0106654D01*
X0134560Y0106600D01*
X0134528Y0106548D01*
X0134492Y0106497D01*
X0134453Y0106449D01*
X0134412Y0106404D01*
X0134368Y0106361D01*
X0134321Y0106321D01*
X0134272Y0106284D01*
X0134220Y0106250D01*
X0134167Y0106219D01*
X0134112Y0106192D01*
X0134055Y0106168D01*
X0133997Y0106147D01*
X0133938Y0106130D01*
X0133878Y0106117D01*
X0133817Y0106108D01*
X0133756Y0106102D01*
X0133694Y0106100D01*
X0133632Y0106102D01*
X0133571Y0106108D01*
X0133510Y0106117D01*
X0133450Y0106130D01*
X0133391Y0106147D01*
X0133333Y0106168D01*
X0133276Y0106192D01*
X0133221Y0106219D01*
X0133168Y0106250D01*
X0133116Y0106284D01*
X0133067Y0106321D01*
X0133020Y0106361D01*
X0132976Y0106404D01*
X0132935Y0106449D01*
X0132896Y0106497D01*
X0132860Y0106548D01*
X0132828Y0106600D01*
X0132799Y0106654D01*
X0132773Y0106710D01*
X0132751Y0106768D01*
X0132732Y0106826D01*
X0132717Y0106886D01*
X0132706Y0106947D01*
X0132698Y0107008D01*
X0132694Y0107069D01*
X0132694Y0107131D01*
X0132698Y0107192D01*
X0132706Y0107253D01*
X0132717Y0107314D01*
X0132732Y0107374D01*
X0132751Y0107432D01*
X0132773Y0107490D01*
X0132799Y0107546D01*
X0132828Y0107600D01*
X0132860Y0107652D01*
X0132896Y0107703D01*
X0132935Y0107751D01*
X0132976Y0107796D01*
X0133020Y0107839D01*
X0133067Y0107879D01*
X0133116Y0107916D01*
X0133168Y0107950D01*
X0133221Y0107981D01*
X0133276Y0108008D01*
X0133333Y0108032D01*
X0133391Y0108053D01*
X0133450Y0108070D01*
X0133510Y0108083D01*
X0133571Y0108092D01*
X0133632Y0108098D01*
X0133694Y0108100D01*
X0108694Y0149000D02*
X0104094Y0149000D01*
X0104094Y0150278D01*
X0104093Y0150278D02*
X0104095Y0150348D01*
X0104101Y0150419D01*
X0104110Y0150488D01*
X0104124Y0150557D01*
X0104141Y0150626D01*
X0104162Y0150693D01*
X0104187Y0150759D01*
X0104215Y0150823D01*
X0104247Y0150886D01*
X0104282Y0150947D01*
X0104321Y0151006D01*
X0104362Y0151063D01*
X0104407Y0151117D01*
X0104455Y0151169D01*
X0104505Y0151218D01*
X0104559Y0151265D01*
X0104614Y0151308D01*
X0104672Y0151348D01*
X0104732Y0151385D01*
X0104794Y0151418D01*
X0104858Y0151448D01*
X0104923Y0151475D01*
X0104989Y0151498D01*
X0105057Y0151517D01*
X0105126Y0151532D01*
X0105195Y0151544D01*
X0105265Y0151552D01*
X0105336Y0151556D01*
X0105406Y0151556D01*
X0105477Y0151552D01*
X0105547Y0151544D01*
X0105616Y0151532D01*
X0105685Y0151517D01*
X0105753Y0151498D01*
X0105819Y0151475D01*
X0105884Y0151448D01*
X0105948Y0151418D01*
X0106010Y0151385D01*
X0106070Y0151348D01*
X0106128Y0151308D01*
X0106183Y0151265D01*
X0106237Y0151218D01*
X0106287Y0151169D01*
X0106335Y0151117D01*
X0106380Y0151063D01*
X0106421Y0151006D01*
X0106460Y0150947D01*
X0106495Y0150886D01*
X0106527Y0150823D01*
X0106555Y0150759D01*
X0106580Y0150693D01*
X0106601Y0150626D01*
X0106618Y0150557D01*
X0106632Y0150488D01*
X0106641Y0150419D01*
X0106647Y0150348D01*
X0106649Y0150278D01*
X0106649Y0149000D01*
X0106649Y0150533D02*
X0108694Y0151556D01*
X0108694Y0153471D02*
X0108694Y0155004D01*
X0108693Y0155004D02*
X0108691Y0155066D01*
X0108686Y0155127D01*
X0108676Y0155188D01*
X0108663Y0155249D01*
X0108647Y0155308D01*
X0108627Y0155366D01*
X0108603Y0155423D01*
X0108576Y0155479D01*
X0108546Y0155533D01*
X0108512Y0155585D01*
X0108476Y0155634D01*
X0108436Y0155682D01*
X0108394Y0155727D01*
X0108349Y0155769D01*
X0108301Y0155809D01*
X0108252Y0155845D01*
X0108200Y0155879D01*
X0108146Y0155909D01*
X0108090Y0155936D01*
X0108033Y0155960D01*
X0107975Y0155980D01*
X0107916Y0155996D01*
X0107855Y0156009D01*
X0107794Y0156019D01*
X0107733Y0156024D01*
X0107671Y0156026D01*
X0107671Y0156027D02*
X0107160Y0156027D01*
X0107160Y0156026D02*
X0107098Y0156024D01*
X0107037Y0156019D01*
X0106976Y0156009D01*
X0106915Y0155996D01*
X0106856Y0155980D01*
X0106798Y0155960D01*
X0106741Y0155936D01*
X0106685Y0155909D01*
X0106631Y0155879D01*
X0106579Y0155845D01*
X0106530Y0155809D01*
X0106482Y0155769D01*
X0106437Y0155727D01*
X0106395Y0155682D01*
X0106355Y0155634D01*
X0106319Y0155585D01*
X0106285Y0155533D01*
X0106255Y0155479D01*
X0106228Y0155423D01*
X0106204Y0155366D01*
X0106184Y0155308D01*
X0106168Y0155249D01*
X0106155Y0155188D01*
X0106145Y0155127D01*
X0106140Y0155066D01*
X0106138Y0155004D01*
X0106138Y0153471D01*
X0104094Y0153471D01*
X0104094Y0156027D01*
X0091649Y0133600D02*
X0090371Y0133600D01*
X0090301Y0133598D01*
X0090230Y0133592D01*
X0090161Y0133583D01*
X0090092Y0133569D01*
X0090023Y0133552D01*
X0089956Y0133531D01*
X0089890Y0133506D01*
X0089826Y0133478D01*
X0089763Y0133446D01*
X0089702Y0133411D01*
X0089643Y0133372D01*
X0089586Y0133331D01*
X0089532Y0133286D01*
X0089480Y0133238D01*
X0089431Y0133188D01*
X0089384Y0133134D01*
X0089341Y0133079D01*
X0089301Y0133021D01*
X0089264Y0132961D01*
X0089231Y0132899D01*
X0089201Y0132835D01*
X0089174Y0132770D01*
X0089151Y0132704D01*
X0089132Y0132636D01*
X0089117Y0132567D01*
X0089105Y0132498D01*
X0089097Y0132428D01*
X0089093Y0132357D01*
X0089093Y0132287D01*
X0089097Y0132216D01*
X0089105Y0132146D01*
X0089117Y0132077D01*
X0089132Y0132008D01*
X0089151Y0131940D01*
X0089174Y0131874D01*
X0089201Y0131809D01*
X0089231Y0131745D01*
X0089264Y0131683D01*
X0089301Y0131623D01*
X0089341Y0131565D01*
X0089384Y0131510D01*
X0089431Y0131456D01*
X0089480Y0131406D01*
X0089532Y0131358D01*
X0089586Y0131313D01*
X0089643Y0131272D01*
X0089702Y0131233D01*
X0089763Y0131198D01*
X0089826Y0131166D01*
X0089890Y0131138D01*
X0089956Y0131113D01*
X0090023Y0131092D01*
X0090092Y0131075D01*
X0090161Y0131061D01*
X0090230Y0131052D01*
X0090301Y0131046D01*
X0090371Y0131044D01*
X0090627Y0131044D01*
X0090627Y0131045D02*
X0090689Y0131047D01*
X0090750Y0131052D01*
X0090811Y0131062D01*
X0090872Y0131075D01*
X0090931Y0131091D01*
X0090989Y0131111D01*
X0091046Y0131135D01*
X0091102Y0131162D01*
X0091156Y0131192D01*
X0091208Y0131226D01*
X0091257Y0131262D01*
X0091305Y0131302D01*
X0091350Y0131344D01*
X0091392Y0131389D01*
X0091432Y0131437D01*
X0091468Y0131486D01*
X0091502Y0131538D01*
X0091532Y0131592D01*
X0091559Y0131648D01*
X0091583Y0131705D01*
X0091603Y0131763D01*
X0091619Y0131822D01*
X0091632Y0131883D01*
X0091642Y0131944D01*
X0091647Y0132005D01*
X0091649Y0132067D01*
X0091649Y0133600D01*
X0091738Y0133598D01*
X0091827Y0133592D01*
X0091916Y0133583D01*
X0092004Y0133569D01*
X0092091Y0133552D01*
X0092178Y0133530D01*
X0092264Y0133505D01*
X0092348Y0133477D01*
X0092431Y0133444D01*
X0092513Y0133408D01*
X0092593Y0133369D01*
X0092671Y0133326D01*
X0092747Y0133280D01*
X0092821Y0133230D01*
X0092893Y0133178D01*
X0092963Y0133122D01*
X0093030Y0133063D01*
X0093094Y0133001D01*
X0093156Y0132937D01*
X0093215Y0132870D01*
X0093271Y0132800D01*
X0093323Y0132728D01*
X0093373Y0132654D01*
X0093419Y0132578D01*
X0093462Y0132500D01*
X0093501Y0132420D01*
X0093537Y0132338D01*
X0093570Y0132255D01*
X0093598Y0132171D01*
X0093623Y0132085D01*
X0093645Y0131998D01*
X0093662Y0131911D01*
X0093676Y0131823D01*
X0093685Y0131734D01*
X0093691Y0131645D01*
X0093693Y0131556D01*
X0093694Y0129129D02*
X0091649Y0128107D01*
X0091649Y0127851D02*
X0091649Y0126573D01*
X0091649Y0127851D02*
X0091647Y0127921D01*
X0091641Y0127992D01*
X0091632Y0128061D01*
X0091618Y0128130D01*
X0091601Y0128199D01*
X0091580Y0128266D01*
X0091555Y0128332D01*
X0091527Y0128396D01*
X0091495Y0128459D01*
X0091460Y0128520D01*
X0091421Y0128579D01*
X0091380Y0128636D01*
X0091335Y0128690D01*
X0091287Y0128742D01*
X0091237Y0128791D01*
X0091183Y0128838D01*
X0091128Y0128881D01*
X0091070Y0128921D01*
X0091010Y0128958D01*
X0090948Y0128991D01*
X0090884Y0129021D01*
X0090819Y0129048D01*
X0090753Y0129071D01*
X0090685Y0129090D01*
X0090616Y0129105D01*
X0090547Y0129117D01*
X0090477Y0129125D01*
X0090406Y0129129D01*
X0090336Y0129129D01*
X0090265Y0129125D01*
X0090195Y0129117D01*
X0090126Y0129105D01*
X0090057Y0129090D01*
X0089989Y0129071D01*
X0089923Y0129048D01*
X0089858Y0129021D01*
X0089794Y0128991D01*
X0089732Y0128958D01*
X0089672Y0128921D01*
X0089614Y0128881D01*
X0089559Y0128838D01*
X0089505Y0128791D01*
X0089455Y0128742D01*
X0089407Y0128690D01*
X0089362Y0128636D01*
X0089321Y0128579D01*
X0089282Y0128520D01*
X0089247Y0128459D01*
X0089215Y0128396D01*
X0089187Y0128332D01*
X0089162Y0128266D01*
X0089141Y0128199D01*
X0089124Y0128130D01*
X0089110Y0128061D01*
X0089101Y0127992D01*
X0089095Y0127921D01*
X0089093Y0127851D01*
X0089094Y0127851D02*
X0089094Y0126573D01*
X0093694Y0126573D01*
X0083694Y0126573D02*
X0079094Y0126573D01*
X0079094Y0127851D01*
X0079093Y0127851D02*
X0079095Y0127921D01*
X0079101Y0127992D01*
X0079110Y0128061D01*
X0079124Y0128130D01*
X0079141Y0128199D01*
X0079162Y0128266D01*
X0079187Y0128332D01*
X0079215Y0128396D01*
X0079247Y0128459D01*
X0079282Y0128520D01*
X0079321Y0128579D01*
X0079362Y0128636D01*
X0079407Y0128690D01*
X0079455Y0128742D01*
X0079505Y0128791D01*
X0079559Y0128838D01*
X0079614Y0128881D01*
X0079672Y0128921D01*
X0079732Y0128958D01*
X0079794Y0128991D01*
X0079858Y0129021D01*
X0079923Y0129048D01*
X0079989Y0129071D01*
X0080057Y0129090D01*
X0080126Y0129105D01*
X0080195Y0129117D01*
X0080265Y0129125D01*
X0080336Y0129129D01*
X0080406Y0129129D01*
X0080477Y0129125D01*
X0080547Y0129117D01*
X0080616Y0129105D01*
X0080685Y0129090D01*
X0080753Y0129071D01*
X0080819Y0129048D01*
X0080884Y0129021D01*
X0080948Y0128991D01*
X0081010Y0128958D01*
X0081070Y0128921D01*
X0081128Y0128881D01*
X0081183Y0128838D01*
X0081237Y0128791D01*
X0081287Y0128742D01*
X0081335Y0128690D01*
X0081380Y0128636D01*
X0081421Y0128579D01*
X0081460Y0128520D01*
X0081495Y0128459D01*
X0081527Y0128396D01*
X0081555Y0128332D01*
X0081580Y0128266D01*
X0081601Y0128199D01*
X0081618Y0128130D01*
X0081632Y0128061D01*
X0081641Y0127992D01*
X0081647Y0127921D01*
X0081649Y0127851D01*
X0081649Y0126573D01*
X0081649Y0128107D02*
X0083694Y0129129D01*
X0082416Y0131044D02*
X0082486Y0131046D01*
X0082557Y0131052D01*
X0082626Y0131061D01*
X0082695Y0131075D01*
X0082764Y0131092D01*
X0082831Y0131113D01*
X0082897Y0131138D01*
X0082961Y0131166D01*
X0083024Y0131198D01*
X0083085Y0131233D01*
X0083144Y0131272D01*
X0083201Y0131313D01*
X0083255Y0131358D01*
X0083307Y0131406D01*
X0083356Y0131456D01*
X0083403Y0131510D01*
X0083446Y0131565D01*
X0083486Y0131623D01*
X0083523Y0131683D01*
X0083556Y0131745D01*
X0083586Y0131809D01*
X0083613Y0131874D01*
X0083636Y0131940D01*
X0083655Y0132008D01*
X0083670Y0132077D01*
X0083682Y0132146D01*
X0083690Y0132216D01*
X0083694Y0132287D01*
X0083694Y0132357D01*
X0083690Y0132428D01*
X0083682Y0132498D01*
X0083670Y0132567D01*
X0083655Y0132636D01*
X0083636Y0132704D01*
X0083613Y0132770D01*
X0083586Y0132835D01*
X0083556Y0132899D01*
X0083523Y0132961D01*
X0083486Y0133021D01*
X0083446Y0133079D01*
X0083403Y0133134D01*
X0083356Y0133188D01*
X0083307Y0133238D01*
X0083255Y0133286D01*
X0083201Y0133331D01*
X0083144Y0133372D01*
X0083085Y0133411D01*
X0083024Y0133446D01*
X0082961Y0133478D01*
X0082897Y0133506D01*
X0082831Y0133531D01*
X0082764Y0133552D01*
X0082695Y0133569D01*
X0082626Y0133583D01*
X0082557Y0133592D01*
X0082486Y0133598D01*
X0082416Y0133600D01*
X0082346Y0133598D01*
X0082275Y0133592D01*
X0082206Y0133583D01*
X0082137Y0133569D01*
X0082068Y0133552D01*
X0082001Y0133531D01*
X0081935Y0133506D01*
X0081871Y0133478D01*
X0081808Y0133446D01*
X0081747Y0133411D01*
X0081688Y0133372D01*
X0081631Y0133331D01*
X0081577Y0133286D01*
X0081525Y0133238D01*
X0081476Y0133188D01*
X0081429Y0133134D01*
X0081386Y0133079D01*
X0081346Y0133021D01*
X0081309Y0132961D01*
X0081276Y0132899D01*
X0081246Y0132835D01*
X0081219Y0132770D01*
X0081196Y0132704D01*
X0081177Y0132636D01*
X0081162Y0132567D01*
X0081150Y0132498D01*
X0081142Y0132428D01*
X0081138Y0132357D01*
X0081138Y0132287D01*
X0081142Y0132216D01*
X0081150Y0132146D01*
X0081162Y0132077D01*
X0081177Y0132008D01*
X0081196Y0131940D01*
X0081219Y0131874D01*
X0081246Y0131809D01*
X0081276Y0131745D01*
X0081309Y0131683D01*
X0081346Y0131623D01*
X0081386Y0131565D01*
X0081429Y0131510D01*
X0081476Y0131456D01*
X0081525Y0131406D01*
X0081577Y0131358D01*
X0081631Y0131313D01*
X0081688Y0131272D01*
X0081747Y0131233D01*
X0081808Y0131198D01*
X0081871Y0131166D01*
X0081935Y0131138D01*
X0082001Y0131113D01*
X0082068Y0131092D01*
X0082137Y0131075D01*
X0082206Y0131061D01*
X0082275Y0131052D01*
X0082346Y0131046D01*
X0082416Y0131044D01*
X0080116Y0131300D02*
X0080179Y0131302D01*
X0080242Y0131308D01*
X0080304Y0131317D01*
X0080365Y0131331D01*
X0080426Y0131348D01*
X0080485Y0131369D01*
X0080543Y0131394D01*
X0080600Y0131422D01*
X0080654Y0131453D01*
X0080706Y0131488D01*
X0080757Y0131526D01*
X0080805Y0131567D01*
X0080850Y0131611D01*
X0080892Y0131657D01*
X0080932Y0131706D01*
X0080968Y0131757D01*
X0081001Y0131811D01*
X0081031Y0131866D01*
X0081057Y0131924D01*
X0081080Y0131982D01*
X0081099Y0132042D01*
X0081114Y0132103D01*
X0081126Y0132165D01*
X0081134Y0132228D01*
X0081138Y0132291D01*
X0081138Y0132353D01*
X0081134Y0132416D01*
X0081126Y0132479D01*
X0081114Y0132541D01*
X0081099Y0132602D01*
X0081080Y0132662D01*
X0081057Y0132720D01*
X0081031Y0132778D01*
X0081001Y0132833D01*
X0080968Y0132887D01*
X0080932Y0132938D01*
X0080892Y0132987D01*
X0080850Y0133033D01*
X0080805Y0133077D01*
X0080757Y0133118D01*
X0080706Y0133156D01*
X0080654Y0133191D01*
X0080600Y0133222D01*
X0080543Y0133250D01*
X0080485Y0133275D01*
X0080426Y0133296D01*
X0080365Y0133313D01*
X0080304Y0133327D01*
X0080242Y0133336D01*
X0080179Y0133342D01*
X0080116Y0133344D01*
X0080053Y0133342D01*
X0079990Y0133336D01*
X0079928Y0133327D01*
X0079867Y0133313D01*
X0079806Y0133296D01*
X0079747Y0133275D01*
X0079689Y0133250D01*
X0079632Y0133222D01*
X0079578Y0133191D01*
X0079526Y0133156D01*
X0079475Y0133118D01*
X0079427Y0133077D01*
X0079382Y0133033D01*
X0079340Y0132987D01*
X0079300Y0132938D01*
X0079264Y0132887D01*
X0079231Y0132833D01*
X0079201Y0132778D01*
X0079175Y0132720D01*
X0079152Y0132662D01*
X0079133Y0132602D01*
X0079118Y0132541D01*
X0079106Y0132479D01*
X0079098Y0132416D01*
X0079094Y0132353D01*
X0079094Y0132291D01*
X0079098Y0132228D01*
X0079106Y0132165D01*
X0079118Y0132103D01*
X0079133Y0132042D01*
X0079152Y0131982D01*
X0079175Y0131924D01*
X0079201Y0131866D01*
X0079231Y0131811D01*
X0079264Y0131757D01*
X0079300Y0131706D01*
X0079340Y0131657D01*
X0079382Y0131611D01*
X0079427Y0131567D01*
X0079475Y0131526D01*
X0079526Y0131488D01*
X0079578Y0131453D01*
X0079632Y0131422D01*
X0079689Y0131394D01*
X0079747Y0131369D01*
X0079806Y0131348D01*
X0079867Y0131331D01*
X0079928Y0131317D01*
X0079990Y0131308D01*
X0080053Y0131302D01*
X0080116Y0131300D01*
X0073694Y0132322D02*
X0069094Y0133600D01*
X0069094Y0131044D01*
X0069605Y0131044D01*
X0069094Y0127851D02*
X0069094Y0126573D01*
X0073694Y0126573D01*
X0071649Y0126573D02*
X0071649Y0127851D01*
X0071649Y0128107D02*
X0073694Y0129129D01*
X0071649Y0127851D02*
X0071647Y0127921D01*
X0071641Y0127992D01*
X0071632Y0128061D01*
X0071618Y0128130D01*
X0071601Y0128199D01*
X0071580Y0128266D01*
X0071555Y0128332D01*
X0071527Y0128396D01*
X0071495Y0128459D01*
X0071460Y0128520D01*
X0071421Y0128579D01*
X0071380Y0128636D01*
X0071335Y0128690D01*
X0071287Y0128742D01*
X0071237Y0128791D01*
X0071183Y0128838D01*
X0071128Y0128881D01*
X0071070Y0128921D01*
X0071010Y0128958D01*
X0070948Y0128991D01*
X0070884Y0129021D01*
X0070819Y0129048D01*
X0070753Y0129071D01*
X0070685Y0129090D01*
X0070616Y0129105D01*
X0070547Y0129117D01*
X0070477Y0129125D01*
X0070406Y0129129D01*
X0070336Y0129129D01*
X0070265Y0129125D01*
X0070195Y0129117D01*
X0070126Y0129105D01*
X0070057Y0129090D01*
X0069989Y0129071D01*
X0069923Y0129048D01*
X0069858Y0129021D01*
X0069794Y0128991D01*
X0069732Y0128958D01*
X0069672Y0128921D01*
X0069614Y0128881D01*
X0069559Y0128838D01*
X0069505Y0128791D01*
X0069455Y0128742D01*
X0069407Y0128690D01*
X0069362Y0128636D01*
X0069321Y0128579D01*
X0069282Y0128520D01*
X0069247Y0128459D01*
X0069215Y0128396D01*
X0069187Y0128332D01*
X0069162Y0128266D01*
X0069141Y0128199D01*
X0069124Y0128130D01*
X0069110Y0128061D01*
X0069101Y0127992D01*
X0069095Y0127921D01*
X0069093Y0127851D01*
X0063694Y0126573D02*
X0059094Y0126573D01*
X0059094Y0127851D01*
X0059093Y0127851D02*
X0059095Y0127921D01*
X0059101Y0127992D01*
X0059110Y0128061D01*
X0059124Y0128130D01*
X0059141Y0128199D01*
X0059162Y0128266D01*
X0059187Y0128332D01*
X0059215Y0128396D01*
X0059247Y0128459D01*
X0059282Y0128520D01*
X0059321Y0128579D01*
X0059362Y0128636D01*
X0059407Y0128690D01*
X0059455Y0128742D01*
X0059505Y0128791D01*
X0059559Y0128838D01*
X0059614Y0128881D01*
X0059672Y0128921D01*
X0059732Y0128958D01*
X0059794Y0128991D01*
X0059858Y0129021D01*
X0059923Y0129048D01*
X0059989Y0129071D01*
X0060057Y0129090D01*
X0060126Y0129105D01*
X0060195Y0129117D01*
X0060265Y0129125D01*
X0060336Y0129129D01*
X0060406Y0129129D01*
X0060477Y0129125D01*
X0060547Y0129117D01*
X0060616Y0129105D01*
X0060685Y0129090D01*
X0060753Y0129071D01*
X0060819Y0129048D01*
X0060884Y0129021D01*
X0060948Y0128991D01*
X0061010Y0128958D01*
X0061070Y0128921D01*
X0061128Y0128881D01*
X0061183Y0128838D01*
X0061237Y0128791D01*
X0061287Y0128742D01*
X0061335Y0128690D01*
X0061380Y0128636D01*
X0061421Y0128579D01*
X0061460Y0128520D01*
X0061495Y0128459D01*
X0061527Y0128396D01*
X0061555Y0128332D01*
X0061580Y0128266D01*
X0061601Y0128199D01*
X0061618Y0128130D01*
X0061632Y0128061D01*
X0061641Y0127992D01*
X0061647Y0127921D01*
X0061649Y0127851D01*
X0061649Y0126573D01*
X0061649Y0128107D02*
X0063694Y0129129D01*
X0062416Y0131044D02*
X0061138Y0131044D01*
X0061138Y0132578D01*
X0061138Y0131045D02*
X0061049Y0131047D01*
X0060960Y0131053D01*
X0060871Y0131062D01*
X0060783Y0131076D01*
X0060696Y0131093D01*
X0060609Y0131115D01*
X0060523Y0131140D01*
X0060439Y0131168D01*
X0060356Y0131201D01*
X0060274Y0131237D01*
X0060194Y0131276D01*
X0060116Y0131319D01*
X0060040Y0131365D01*
X0059966Y0131415D01*
X0059894Y0131467D01*
X0059824Y0131523D01*
X0059757Y0131582D01*
X0059693Y0131644D01*
X0059631Y0131708D01*
X0059572Y0131775D01*
X0059516Y0131845D01*
X0059464Y0131917D01*
X0059414Y0131991D01*
X0059368Y0132067D01*
X0059325Y0132145D01*
X0059286Y0132225D01*
X0059250Y0132307D01*
X0059217Y0132390D01*
X0059189Y0132474D01*
X0059164Y0132560D01*
X0059142Y0132647D01*
X0059125Y0132734D01*
X0059111Y0132822D01*
X0059102Y0132911D01*
X0059096Y0133000D01*
X0059094Y0133089D01*
X0062160Y0133600D02*
X0062416Y0133600D01*
X0062160Y0133600D02*
X0062098Y0133598D01*
X0062037Y0133593D01*
X0061976Y0133583D01*
X0061915Y0133570D01*
X0061856Y0133554D01*
X0061798Y0133534D01*
X0061741Y0133510D01*
X0061685Y0133483D01*
X0061631Y0133453D01*
X0061579Y0133419D01*
X0061530Y0133383D01*
X0061482Y0133343D01*
X0061437Y0133301D01*
X0061395Y0133256D01*
X0061355Y0133208D01*
X0061319Y0133159D01*
X0061285Y0133107D01*
X0061255Y0133053D01*
X0061228Y0132997D01*
X0061204Y0132940D01*
X0061184Y0132882D01*
X0061168Y0132823D01*
X0061155Y0132762D01*
X0061145Y0132701D01*
X0061140Y0132640D01*
X0061138Y0132578D01*
X0062416Y0133600D02*
X0062486Y0133598D01*
X0062557Y0133592D01*
X0062626Y0133583D01*
X0062695Y0133569D01*
X0062764Y0133552D01*
X0062831Y0133531D01*
X0062897Y0133506D01*
X0062961Y0133478D01*
X0063024Y0133446D01*
X0063085Y0133411D01*
X0063144Y0133372D01*
X0063201Y0133331D01*
X0063255Y0133286D01*
X0063307Y0133238D01*
X0063356Y0133188D01*
X0063403Y0133134D01*
X0063446Y0133079D01*
X0063486Y0133021D01*
X0063523Y0132961D01*
X0063556Y0132899D01*
X0063586Y0132835D01*
X0063613Y0132770D01*
X0063636Y0132704D01*
X0063655Y0132636D01*
X0063670Y0132567D01*
X0063682Y0132498D01*
X0063690Y0132428D01*
X0063694Y0132357D01*
X0063694Y0132287D01*
X0063690Y0132216D01*
X0063682Y0132146D01*
X0063670Y0132077D01*
X0063655Y0132008D01*
X0063636Y0131940D01*
X0063613Y0131874D01*
X0063586Y0131809D01*
X0063556Y0131745D01*
X0063523Y0131683D01*
X0063486Y0131623D01*
X0063446Y0131565D01*
X0063403Y0131510D01*
X0063356Y0131456D01*
X0063307Y0131406D01*
X0063255Y0131358D01*
X0063201Y0131313D01*
X0063144Y0131272D01*
X0063085Y0131233D01*
X0063024Y0131198D01*
X0062961Y0131166D01*
X0062897Y0131138D01*
X0062831Y0131113D01*
X0062764Y0131092D01*
X0062695Y0131075D01*
X0062626Y0131061D01*
X0062557Y0131052D01*
X0062486Y0131046D01*
X0062416Y0131044D01*
X0043694Y0131556D02*
X0041649Y0130533D01*
X0041649Y0130278D02*
X0041649Y0129000D01*
X0041649Y0130278D02*
X0041647Y0130348D01*
X0041641Y0130419D01*
X0041632Y0130488D01*
X0041618Y0130557D01*
X0041601Y0130626D01*
X0041580Y0130693D01*
X0041555Y0130759D01*
X0041527Y0130823D01*
X0041495Y0130886D01*
X0041460Y0130947D01*
X0041421Y0131006D01*
X0041380Y0131063D01*
X0041335Y0131117D01*
X0041287Y0131169D01*
X0041237Y0131218D01*
X0041183Y0131265D01*
X0041128Y0131308D01*
X0041070Y0131348D01*
X0041010Y0131385D01*
X0040948Y0131418D01*
X0040884Y0131448D01*
X0040819Y0131475D01*
X0040753Y0131498D01*
X0040685Y0131517D01*
X0040616Y0131532D01*
X0040547Y0131544D01*
X0040477Y0131552D01*
X0040406Y0131556D01*
X0040336Y0131556D01*
X0040265Y0131552D01*
X0040195Y0131544D01*
X0040126Y0131532D01*
X0040057Y0131517D01*
X0039989Y0131498D01*
X0039923Y0131475D01*
X0039858Y0131448D01*
X0039794Y0131418D01*
X0039732Y0131385D01*
X0039672Y0131348D01*
X0039614Y0131308D01*
X0039559Y0131265D01*
X0039505Y0131218D01*
X0039455Y0131169D01*
X0039407Y0131117D01*
X0039362Y0131063D01*
X0039321Y0131006D01*
X0039282Y0130947D01*
X0039247Y0130886D01*
X0039215Y0130823D01*
X0039187Y0130759D01*
X0039162Y0130693D01*
X0039141Y0130626D01*
X0039124Y0130557D01*
X0039110Y0130488D01*
X0039101Y0130419D01*
X0039095Y0130348D01*
X0039093Y0130278D01*
X0039094Y0130278D02*
X0039094Y0129000D01*
X0043694Y0129000D01*
X0043694Y0133471D02*
X0043694Y0136027D01*
X0043694Y0134749D02*
X0039094Y0134749D01*
X0040116Y0133471D01*
X0040116Y0137971D02*
X0039094Y0139249D01*
X0043694Y0139249D01*
X0043694Y0137971D02*
X0043694Y0140527D01*
X0047854Y0166185D02*
X0047854Y0168229D01*
X0047854Y0166185D02*
X0052454Y0166185D01*
X0052454Y0168229D01*
X0050537Y0171821D02*
X0050571Y0171875D01*
X0050608Y0171926D01*
X0050648Y0171975D01*
X0050691Y0172022D01*
X0050737Y0172065D01*
X0050785Y0172106D01*
X0050836Y0172144D01*
X0050889Y0172179D01*
X0050944Y0172211D01*
X0051001Y0172239D01*
X0051059Y0172263D01*
X0051119Y0172284D01*
X0051180Y0172301D01*
X0051242Y0172315D01*
X0051305Y0172324D01*
X0051368Y0172330D01*
X0051431Y0172332D01*
X0051431Y0172331D02*
X0051493Y0172329D01*
X0051554Y0172324D01*
X0051615Y0172314D01*
X0051676Y0172301D01*
X0051735Y0172285D01*
X0051793Y0172265D01*
X0051850Y0172241D01*
X0051906Y0172214D01*
X0051960Y0172184D01*
X0052012Y0172150D01*
X0052061Y0172114D01*
X0052109Y0172074D01*
X0052154Y0172032D01*
X0052196Y0171987D01*
X0052236Y0171939D01*
X0052272Y0171890D01*
X0052306Y0171838D01*
X0052336Y0171784D01*
X0052363Y0171728D01*
X0052387Y0171671D01*
X0052407Y0171613D01*
X0052423Y0171554D01*
X0052436Y0171493D01*
X0052446Y0171432D01*
X0052451Y0171371D01*
X0052453Y0171309D01*
X0050537Y0171821D02*
X0049770Y0170415D01*
X0047853Y0170926D02*
X0047855Y0171008D01*
X0047860Y0171090D01*
X0047869Y0171172D01*
X0047881Y0171253D01*
X0047897Y0171334D01*
X0047916Y0171414D01*
X0047939Y0171493D01*
X0047965Y0171571D01*
X0047994Y0171648D01*
X0048027Y0171723D01*
X0048063Y0171797D01*
X0048101Y0171870D01*
X0048143Y0171941D01*
X0048188Y0172009D01*
X0048236Y0172076D01*
X0049770Y0170415D02*
X0049736Y0170361D01*
X0049699Y0170310D01*
X0049659Y0170261D01*
X0049616Y0170214D01*
X0049570Y0170171D01*
X0049522Y0170130D01*
X0049471Y0170092D01*
X0049418Y0170057D01*
X0049363Y0170025D01*
X0049306Y0169997D01*
X0049248Y0169973D01*
X0049188Y0169952D01*
X0049127Y0169935D01*
X0049065Y0169921D01*
X0049002Y0169912D01*
X0048939Y0169906D01*
X0048876Y0169904D01*
X0048814Y0169906D01*
X0048753Y0169911D01*
X0048692Y0169921D01*
X0048631Y0169934D01*
X0048572Y0169950D01*
X0048514Y0169970D01*
X0048457Y0169994D01*
X0048401Y0170021D01*
X0048347Y0170051D01*
X0048295Y0170085D01*
X0048246Y0170121D01*
X0048198Y0170161D01*
X0048153Y0170203D01*
X0048111Y0170248D01*
X0048071Y0170296D01*
X0048035Y0170345D01*
X0048001Y0170397D01*
X0047971Y0170451D01*
X0047944Y0170507D01*
X0047920Y0170564D01*
X0047900Y0170622D01*
X0047884Y0170681D01*
X0047871Y0170742D01*
X0047861Y0170803D01*
X0047856Y0170864D01*
X0047854Y0170926D01*
X0047854Y0174343D02*
X0047854Y0175621D01*
X0047853Y0175621D02*
X0047855Y0175691D01*
X0047861Y0175762D01*
X0047870Y0175831D01*
X0047884Y0175900D01*
X0047901Y0175969D01*
X0047922Y0176036D01*
X0047947Y0176102D01*
X0047975Y0176166D01*
X0048007Y0176229D01*
X0048042Y0176290D01*
X0048081Y0176349D01*
X0048122Y0176406D01*
X0048167Y0176460D01*
X0048215Y0176512D01*
X0048265Y0176561D01*
X0048319Y0176608D01*
X0048374Y0176651D01*
X0048432Y0176691D01*
X0048492Y0176728D01*
X0048554Y0176761D01*
X0048618Y0176791D01*
X0048683Y0176818D01*
X0048749Y0176841D01*
X0048817Y0176860D01*
X0048886Y0176875D01*
X0048955Y0176887D01*
X0049025Y0176895D01*
X0049096Y0176899D01*
X0049166Y0176899D01*
X0049237Y0176895D01*
X0049307Y0176887D01*
X0049376Y0176875D01*
X0049445Y0176860D01*
X0049513Y0176841D01*
X0049579Y0176818D01*
X0049644Y0176791D01*
X0049708Y0176761D01*
X0049770Y0176728D01*
X0049830Y0176691D01*
X0049888Y0176651D01*
X0049943Y0176608D01*
X0049997Y0176561D01*
X0050047Y0176512D01*
X0050095Y0176460D01*
X0050140Y0176406D01*
X0050181Y0176349D01*
X0050220Y0176290D01*
X0050255Y0176229D01*
X0050287Y0176166D01*
X0050315Y0176102D01*
X0050340Y0176036D01*
X0050361Y0175969D01*
X0050378Y0175900D01*
X0050392Y0175831D01*
X0050401Y0175762D01*
X0050407Y0175691D01*
X0050409Y0175621D01*
X0050409Y0174343D01*
X0052454Y0174343D02*
X0047854Y0174343D01*
X0052453Y0171309D02*
X0052451Y0171219D01*
X0052446Y0171130D01*
X0052436Y0171041D01*
X0052423Y0170952D01*
X0052407Y0170864D01*
X0052386Y0170776D01*
X0052362Y0170690D01*
X0052335Y0170604D01*
X0052304Y0170520D01*
X0052269Y0170437D01*
X0052231Y0170356D01*
X0052190Y0170276D01*
X0052146Y0170199D01*
X0052098Y0170123D01*
X0052047Y0170049D01*
X0051993Y0169977D01*
X0051936Y0169908D01*
X0051877Y0169840D01*
X0051814Y0169776D01*
X0049898Y0167718D02*
X0049898Y0166185D01*
X0050665Y0178671D02*
X0050665Y0181737D01*
X0052454Y0183726D02*
X0052454Y0186282D01*
X0052454Y0185004D02*
X0047854Y0185004D01*
X0048876Y0183726D01*
X0052454Y0188226D02*
X0052454Y0190782D01*
X0052454Y0192885D02*
X0047854Y0192885D01*
X0047854Y0194929D01*
X0049898Y0194418D02*
X0049898Y0192885D01*
X0049898Y0190398D02*
X0052454Y0188226D01*
X0048876Y0188227D02*
X0048806Y0188252D01*
X0048737Y0188280D01*
X0048670Y0188311D01*
X0048604Y0188346D01*
X0048541Y0188384D01*
X0048479Y0188426D01*
X0048419Y0188470D01*
X0048362Y0188517D01*
X0048307Y0188567D01*
X0048255Y0188620D01*
X0048205Y0188676D01*
X0048159Y0188733D01*
X0048115Y0188794D01*
X0048074Y0188856D01*
X0048037Y0188920D01*
X0048003Y0188986D01*
X0047972Y0189054D01*
X0047945Y0189123D01*
X0047921Y0189193D01*
X0047900Y0189264D01*
X0047884Y0189337D01*
X0047871Y0189410D01*
X0047861Y0189484D01*
X0047856Y0189558D01*
X0047854Y0189632D01*
X0047856Y0189699D01*
X0047862Y0189766D01*
X0047871Y0189832D01*
X0047885Y0189897D01*
X0047902Y0189962D01*
X0047923Y0190025D01*
X0047948Y0190087D01*
X0047976Y0190148D01*
X0048008Y0190207D01*
X0048043Y0190264D01*
X0048082Y0190319D01*
X0048123Y0190371D01*
X0048168Y0190421D01*
X0048215Y0190468D01*
X0048265Y0190513D01*
X0048317Y0190554D01*
X0048372Y0190593D01*
X0048429Y0190628D01*
X0048488Y0190660D01*
X0048549Y0190688D01*
X0048611Y0190713D01*
X0048674Y0190734D01*
X0048739Y0190751D01*
X0048804Y0190765D01*
X0048870Y0190774D01*
X0048937Y0190780D01*
X0049004Y0190782D01*
X0049004Y0190781D02*
X0049071Y0190779D01*
X0049137Y0190774D01*
X0049203Y0190765D01*
X0049269Y0190752D01*
X0049333Y0190736D01*
X0049397Y0190717D01*
X0049460Y0190694D01*
X0049521Y0190668D01*
X0049581Y0190638D01*
X0049639Y0190605D01*
X0049695Y0190570D01*
X0049749Y0190531D01*
X0049801Y0190489D01*
X0049851Y0190445D01*
X0049898Y0190398D01*
X0052454Y0192885D02*
X0052454Y0194929D01*
X0067167Y0214000D02*
X0067167Y0218600D01*
X0068445Y0218600D01*
X0068515Y0218598D01*
X0068586Y0218592D01*
X0068655Y0218583D01*
X0068724Y0218569D01*
X0068793Y0218552D01*
X0068860Y0218531D01*
X0068926Y0218506D01*
X0068990Y0218478D01*
X0069053Y0218446D01*
X0069114Y0218411D01*
X0069173Y0218372D01*
X0069230Y0218331D01*
X0069284Y0218286D01*
X0069336Y0218238D01*
X0069385Y0218188D01*
X0069432Y0218134D01*
X0069475Y0218079D01*
X0069515Y0218021D01*
X0069552Y0217961D01*
X0069585Y0217899D01*
X0069615Y0217835D01*
X0069642Y0217770D01*
X0069665Y0217704D01*
X0069684Y0217636D01*
X0069699Y0217567D01*
X0069711Y0217498D01*
X0069719Y0217428D01*
X0069723Y0217357D01*
X0069723Y0217287D01*
X0069719Y0217216D01*
X0069711Y0217146D01*
X0069699Y0217077D01*
X0069684Y0217008D01*
X0069665Y0216940D01*
X0069642Y0216874D01*
X0069615Y0216809D01*
X0069585Y0216745D01*
X0069552Y0216683D01*
X0069515Y0216623D01*
X0069475Y0216565D01*
X0069432Y0216510D01*
X0069385Y0216456D01*
X0069336Y0216406D01*
X0069284Y0216358D01*
X0069230Y0216313D01*
X0069173Y0216272D01*
X0069114Y0216233D01*
X0069053Y0216198D01*
X0068990Y0216166D01*
X0068926Y0216138D01*
X0068860Y0216113D01*
X0068793Y0216092D01*
X0068724Y0216075D01*
X0068655Y0216061D01*
X0068586Y0216052D01*
X0068515Y0216046D01*
X0068445Y0216044D01*
X0067167Y0216044D01*
X0068700Y0216044D02*
X0069723Y0214000D01*
X0071638Y0214000D02*
X0074194Y0214000D01*
X0072916Y0214000D02*
X0072916Y0218600D01*
X0071638Y0217578D01*
X0076138Y0214000D02*
X0078694Y0214000D01*
X0076138Y0214000D02*
X0078310Y0216556D01*
X0077544Y0218600D02*
X0077470Y0218598D01*
X0077396Y0218593D01*
X0077322Y0218583D01*
X0077249Y0218570D01*
X0077176Y0218554D01*
X0077105Y0218533D01*
X0077035Y0218509D01*
X0076966Y0218482D01*
X0076898Y0218451D01*
X0076832Y0218417D01*
X0076768Y0218380D01*
X0076706Y0218339D01*
X0076646Y0218295D01*
X0076588Y0218249D01*
X0076532Y0218199D01*
X0076479Y0218147D01*
X0076429Y0218092D01*
X0076382Y0218035D01*
X0076338Y0217975D01*
X0076296Y0217913D01*
X0076258Y0217850D01*
X0076223Y0217784D01*
X0076192Y0217717D01*
X0076164Y0217648D01*
X0076139Y0217578D01*
X0078310Y0216556D02*
X0078357Y0216603D01*
X0078401Y0216653D01*
X0078443Y0216705D01*
X0078482Y0216759D01*
X0078517Y0216815D01*
X0078550Y0216873D01*
X0078580Y0216933D01*
X0078606Y0216994D01*
X0078629Y0217057D01*
X0078648Y0217121D01*
X0078664Y0217185D01*
X0078677Y0217251D01*
X0078686Y0217317D01*
X0078691Y0217383D01*
X0078693Y0217450D01*
X0078694Y0217450D02*
X0078692Y0217517D01*
X0078686Y0217584D01*
X0078677Y0217650D01*
X0078663Y0217715D01*
X0078646Y0217780D01*
X0078625Y0217843D01*
X0078600Y0217905D01*
X0078572Y0217966D01*
X0078540Y0218025D01*
X0078505Y0218082D01*
X0078466Y0218137D01*
X0078425Y0218189D01*
X0078380Y0218239D01*
X0078333Y0218286D01*
X0078283Y0218331D01*
X0078231Y0218372D01*
X0078176Y0218411D01*
X0078119Y0218446D01*
X0078060Y0218478D01*
X0077999Y0218506D01*
X0077937Y0218531D01*
X0077874Y0218552D01*
X0077809Y0218569D01*
X0077744Y0218583D01*
X0077678Y0218592D01*
X0077611Y0218598D01*
X0077544Y0218600D01*
X0084094Y0234000D02*
X0084094Y0235278D01*
X0084093Y0235278D02*
X0084095Y0235348D01*
X0084101Y0235419D01*
X0084110Y0235488D01*
X0084124Y0235557D01*
X0084141Y0235626D01*
X0084162Y0235693D01*
X0084187Y0235759D01*
X0084215Y0235823D01*
X0084247Y0235886D01*
X0084282Y0235947D01*
X0084321Y0236006D01*
X0084362Y0236063D01*
X0084407Y0236117D01*
X0084455Y0236169D01*
X0084505Y0236218D01*
X0084559Y0236265D01*
X0084614Y0236308D01*
X0084672Y0236348D01*
X0084732Y0236385D01*
X0084794Y0236418D01*
X0084858Y0236448D01*
X0084923Y0236475D01*
X0084989Y0236498D01*
X0085057Y0236517D01*
X0085126Y0236532D01*
X0085195Y0236544D01*
X0085265Y0236552D01*
X0085336Y0236556D01*
X0085406Y0236556D01*
X0085477Y0236552D01*
X0085547Y0236544D01*
X0085616Y0236532D01*
X0085685Y0236517D01*
X0085753Y0236498D01*
X0085819Y0236475D01*
X0085884Y0236448D01*
X0085948Y0236418D01*
X0086010Y0236385D01*
X0086070Y0236348D01*
X0086128Y0236308D01*
X0086183Y0236265D01*
X0086237Y0236218D01*
X0086287Y0236169D01*
X0086335Y0236117D01*
X0086380Y0236063D01*
X0086421Y0236006D01*
X0086460Y0235947D01*
X0086495Y0235886D01*
X0086527Y0235823D01*
X0086555Y0235759D01*
X0086580Y0235693D01*
X0086601Y0235626D01*
X0086618Y0235557D01*
X0086632Y0235488D01*
X0086641Y0235419D01*
X0086647Y0235348D01*
X0086649Y0235278D01*
X0086649Y0234000D01*
X0086649Y0235533D02*
X0088694Y0236556D01*
X0088694Y0238471D02*
X0088694Y0239749D01*
X0088692Y0239819D01*
X0088686Y0239890D01*
X0088677Y0239959D01*
X0088663Y0240028D01*
X0088646Y0240097D01*
X0088625Y0240164D01*
X0088600Y0240230D01*
X0088572Y0240294D01*
X0088540Y0240357D01*
X0088505Y0240418D01*
X0088466Y0240477D01*
X0088425Y0240534D01*
X0088380Y0240588D01*
X0088332Y0240640D01*
X0088282Y0240689D01*
X0088228Y0240736D01*
X0088173Y0240779D01*
X0088115Y0240819D01*
X0088055Y0240856D01*
X0087993Y0240889D01*
X0087929Y0240919D01*
X0087864Y0240946D01*
X0087798Y0240969D01*
X0087730Y0240988D01*
X0087661Y0241003D01*
X0087592Y0241015D01*
X0087522Y0241023D01*
X0087451Y0241027D01*
X0087381Y0241027D01*
X0087310Y0241023D01*
X0087240Y0241015D01*
X0087171Y0241003D01*
X0087102Y0240988D01*
X0087034Y0240969D01*
X0086968Y0240946D01*
X0086903Y0240919D01*
X0086839Y0240889D01*
X0086777Y0240856D01*
X0086717Y0240819D01*
X0086659Y0240779D01*
X0086604Y0240736D01*
X0086550Y0240689D01*
X0086500Y0240640D01*
X0086452Y0240588D01*
X0086407Y0240534D01*
X0086366Y0240477D01*
X0086327Y0240418D01*
X0086292Y0240357D01*
X0086260Y0240294D01*
X0086232Y0240230D01*
X0086207Y0240164D01*
X0086186Y0240097D01*
X0086169Y0240028D01*
X0086155Y0239959D01*
X0086146Y0239890D01*
X0086140Y0239819D01*
X0086138Y0239749D01*
X0086138Y0240004D02*
X0086138Y0238982D01*
X0086138Y0240004D02*
X0086136Y0240067D01*
X0086130Y0240130D01*
X0086121Y0240192D01*
X0086107Y0240253D01*
X0086090Y0240314D01*
X0086069Y0240373D01*
X0086044Y0240431D01*
X0086016Y0240488D01*
X0085985Y0240542D01*
X0085950Y0240594D01*
X0085912Y0240645D01*
X0085871Y0240693D01*
X0085827Y0240738D01*
X0085781Y0240780D01*
X0085732Y0240820D01*
X0085681Y0240856D01*
X0085627Y0240889D01*
X0085572Y0240919D01*
X0085514Y0240945D01*
X0085456Y0240968D01*
X0085396Y0240987D01*
X0085335Y0241002D01*
X0085273Y0241014D01*
X0085210Y0241022D01*
X0085147Y0241026D01*
X0085085Y0241026D01*
X0085022Y0241022D01*
X0084959Y0241014D01*
X0084897Y0241002D01*
X0084836Y0240987D01*
X0084776Y0240968D01*
X0084718Y0240945D01*
X0084660Y0240919D01*
X0084605Y0240889D01*
X0084551Y0240856D01*
X0084500Y0240820D01*
X0084451Y0240780D01*
X0084405Y0240738D01*
X0084361Y0240693D01*
X0084320Y0240645D01*
X0084282Y0240594D01*
X0084247Y0240542D01*
X0084216Y0240488D01*
X0084188Y0240431D01*
X0084163Y0240373D01*
X0084142Y0240314D01*
X0084125Y0240253D01*
X0084111Y0240192D01*
X0084102Y0240130D01*
X0084096Y0240067D01*
X0084094Y0240004D01*
X0084094Y0238471D01*
X0084094Y0234000D02*
X0088694Y0234000D01*
X0103594Y0223567D02*
X0107171Y0222544D01*
X0107171Y0225100D01*
X0106149Y0224333D02*
X0108194Y0224333D01*
X0108194Y0220629D02*
X0106149Y0219607D01*
X0106149Y0219351D02*
X0106149Y0218073D01*
X0106149Y0219351D02*
X0106147Y0219421D01*
X0106141Y0219492D01*
X0106132Y0219561D01*
X0106118Y0219630D01*
X0106101Y0219699D01*
X0106080Y0219766D01*
X0106055Y0219832D01*
X0106027Y0219896D01*
X0105995Y0219959D01*
X0105960Y0220020D01*
X0105921Y0220079D01*
X0105880Y0220136D01*
X0105835Y0220190D01*
X0105787Y0220242D01*
X0105737Y0220291D01*
X0105683Y0220338D01*
X0105628Y0220381D01*
X0105570Y0220421D01*
X0105510Y0220458D01*
X0105448Y0220491D01*
X0105384Y0220521D01*
X0105319Y0220548D01*
X0105253Y0220571D01*
X0105185Y0220590D01*
X0105116Y0220605D01*
X0105047Y0220617D01*
X0104977Y0220625D01*
X0104906Y0220629D01*
X0104836Y0220629D01*
X0104765Y0220625D01*
X0104695Y0220617D01*
X0104626Y0220605D01*
X0104557Y0220590D01*
X0104489Y0220571D01*
X0104423Y0220548D01*
X0104358Y0220521D01*
X0104294Y0220491D01*
X0104232Y0220458D01*
X0104172Y0220421D01*
X0104114Y0220381D01*
X0104059Y0220338D01*
X0104005Y0220291D01*
X0103955Y0220242D01*
X0103907Y0220190D01*
X0103862Y0220136D01*
X0103821Y0220079D01*
X0103782Y0220020D01*
X0103747Y0219959D01*
X0103715Y0219896D01*
X0103687Y0219832D01*
X0103662Y0219766D01*
X0103641Y0219699D01*
X0103624Y0219630D01*
X0103610Y0219561D01*
X0103601Y0219492D01*
X0103595Y0219421D01*
X0103593Y0219351D01*
X0103594Y0219351D02*
X0103594Y0218073D01*
X0108194Y0218073D01*
X0109094Y0218600D02*
X0110371Y0218600D01*
X0109094Y0218600D02*
X0109094Y0214000D01*
X0109094Y0216044D02*
X0110371Y0216044D01*
X0110627Y0216044D02*
X0111649Y0214000D01*
X0113565Y0214000D02*
X0116120Y0214000D01*
X0114842Y0214000D02*
X0114842Y0218600D01*
X0113565Y0217578D01*
X0110371Y0218600D02*
X0110441Y0218598D01*
X0110512Y0218592D01*
X0110581Y0218583D01*
X0110650Y0218569D01*
X0110719Y0218552D01*
X0110786Y0218531D01*
X0110852Y0218506D01*
X0110916Y0218478D01*
X0110979Y0218446D01*
X0111040Y0218411D01*
X0111099Y0218372D01*
X0111156Y0218331D01*
X0111210Y0218286D01*
X0111262Y0218238D01*
X0111311Y0218188D01*
X0111358Y0218134D01*
X0111401Y0218079D01*
X0111441Y0218021D01*
X0111478Y0217961D01*
X0111511Y0217899D01*
X0111541Y0217835D01*
X0111568Y0217770D01*
X0111591Y0217704D01*
X0111610Y0217636D01*
X0111625Y0217567D01*
X0111637Y0217498D01*
X0111645Y0217428D01*
X0111649Y0217357D01*
X0111649Y0217287D01*
X0111645Y0217216D01*
X0111637Y0217146D01*
X0111625Y0217077D01*
X0111610Y0217008D01*
X0111591Y0216940D01*
X0111568Y0216874D01*
X0111541Y0216809D01*
X0111511Y0216745D01*
X0111478Y0216683D01*
X0111441Y0216623D01*
X0111401Y0216565D01*
X0111358Y0216510D01*
X0111311Y0216456D01*
X0111262Y0216406D01*
X0111210Y0216358D01*
X0111156Y0216313D01*
X0111099Y0216272D01*
X0111040Y0216233D01*
X0110979Y0216198D01*
X0110916Y0216166D01*
X0110852Y0216138D01*
X0110786Y0216113D01*
X0110719Y0216092D01*
X0110650Y0216075D01*
X0110581Y0216061D01*
X0110512Y0216052D01*
X0110441Y0216046D01*
X0110371Y0216044D01*
X0119094Y0204749D02*
X0123694Y0204749D01*
X0123694Y0203471D02*
X0123694Y0206027D01*
X0123055Y0210144D02*
X0122951Y0210192D01*
X0122846Y0210238D01*
X0122740Y0210280D01*
X0122632Y0210319D01*
X0122523Y0210355D01*
X0122413Y0210387D01*
X0122302Y0210417D01*
X0122190Y0210442D01*
X0122078Y0210465D01*
X0121965Y0210484D01*
X0121851Y0210499D01*
X0121737Y0210511D01*
X0121623Y0210520D01*
X0121509Y0210525D01*
X0121394Y0210527D01*
X0121394Y0207971D02*
X0121279Y0207973D01*
X0121165Y0207978D01*
X0121051Y0207987D01*
X0120937Y0207999D01*
X0120823Y0208014D01*
X0120710Y0208033D01*
X0120598Y0208056D01*
X0120486Y0208081D01*
X0120375Y0208111D01*
X0120265Y0208143D01*
X0120156Y0208179D01*
X0120048Y0208218D01*
X0119942Y0208260D01*
X0119837Y0208306D01*
X0119733Y0208354D01*
X0119093Y0209249D02*
X0119095Y0209308D01*
X0119100Y0209366D01*
X0119109Y0209424D01*
X0119122Y0209481D01*
X0119138Y0209538D01*
X0119158Y0209593D01*
X0119181Y0209647D01*
X0119207Y0209699D01*
X0119237Y0209750D01*
X0119269Y0209799D01*
X0119305Y0209846D01*
X0119343Y0209890D01*
X0119384Y0209932D01*
X0119428Y0209971D01*
X0119474Y0210008D01*
X0119522Y0210041D01*
X0119572Y0210072D01*
X0119624Y0210099D01*
X0119677Y0210123D01*
X0119732Y0210144D01*
X0120116Y0210271D02*
X0122671Y0208227D01*
X0123694Y0209249D02*
X0123692Y0209308D01*
X0123687Y0209366D01*
X0123678Y0209424D01*
X0123665Y0209481D01*
X0123649Y0209538D01*
X0123629Y0209593D01*
X0123606Y0209647D01*
X0123580Y0209699D01*
X0123550Y0209750D01*
X0123518Y0209799D01*
X0123482Y0209846D01*
X0123444Y0209890D01*
X0123403Y0209932D01*
X0123359Y0209971D01*
X0123313Y0210008D01*
X0123265Y0210041D01*
X0123215Y0210072D01*
X0123163Y0210099D01*
X0123110Y0210123D01*
X0123055Y0210144D01*
X0123694Y0209249D02*
X0123692Y0209190D01*
X0123687Y0209132D01*
X0123678Y0209074D01*
X0123665Y0209017D01*
X0123649Y0208960D01*
X0123629Y0208905D01*
X0123606Y0208851D01*
X0123580Y0208799D01*
X0123550Y0208748D01*
X0123518Y0208699D01*
X0123482Y0208652D01*
X0123444Y0208608D01*
X0123403Y0208566D01*
X0123359Y0208527D01*
X0123313Y0208490D01*
X0123265Y0208457D01*
X0123215Y0208426D01*
X0123163Y0208399D01*
X0123110Y0208375D01*
X0123055Y0208354D01*
X0121394Y0210527D02*
X0121279Y0210525D01*
X0121165Y0210520D01*
X0121051Y0210511D01*
X0120937Y0210499D01*
X0120823Y0210484D01*
X0120710Y0210465D01*
X0120598Y0210442D01*
X0120486Y0210417D01*
X0120375Y0210387D01*
X0120265Y0210355D01*
X0120156Y0210319D01*
X0120048Y0210280D01*
X0119942Y0210238D01*
X0119837Y0210192D01*
X0119733Y0210144D01*
X0119093Y0209249D02*
X0119095Y0209190D01*
X0119100Y0209132D01*
X0119109Y0209074D01*
X0119122Y0209017D01*
X0119138Y0208960D01*
X0119158Y0208905D01*
X0119181Y0208851D01*
X0119207Y0208799D01*
X0119237Y0208748D01*
X0119269Y0208699D01*
X0119305Y0208652D01*
X0119343Y0208608D01*
X0119384Y0208566D01*
X0119428Y0208527D01*
X0119474Y0208490D01*
X0119522Y0208457D01*
X0119572Y0208426D01*
X0119624Y0208399D01*
X0119677Y0208375D01*
X0119732Y0208354D01*
X0121394Y0207971D02*
X0121509Y0207973D01*
X0121623Y0207978D01*
X0121737Y0207987D01*
X0121851Y0207999D01*
X0121965Y0208014D01*
X0122078Y0208033D01*
X0122190Y0208056D01*
X0122302Y0208081D01*
X0122413Y0208111D01*
X0122523Y0208143D01*
X0122632Y0208179D01*
X0122740Y0208218D01*
X0122846Y0208260D01*
X0122951Y0208306D01*
X0123055Y0208354D01*
X0119094Y0204749D02*
X0120116Y0203471D01*
X0119093Y0200278D02*
X0119095Y0200348D01*
X0119101Y0200419D01*
X0119110Y0200488D01*
X0119124Y0200557D01*
X0119141Y0200626D01*
X0119162Y0200693D01*
X0119187Y0200759D01*
X0119215Y0200823D01*
X0119247Y0200886D01*
X0119282Y0200947D01*
X0119321Y0201006D01*
X0119362Y0201063D01*
X0119407Y0201117D01*
X0119455Y0201169D01*
X0119505Y0201218D01*
X0119559Y0201265D01*
X0119614Y0201308D01*
X0119672Y0201348D01*
X0119732Y0201385D01*
X0119794Y0201418D01*
X0119858Y0201448D01*
X0119923Y0201475D01*
X0119989Y0201498D01*
X0120057Y0201517D01*
X0120126Y0201532D01*
X0120195Y0201544D01*
X0120265Y0201552D01*
X0120336Y0201556D01*
X0120406Y0201556D01*
X0120477Y0201552D01*
X0120547Y0201544D01*
X0120616Y0201532D01*
X0120685Y0201517D01*
X0120753Y0201498D01*
X0120819Y0201475D01*
X0120884Y0201448D01*
X0120948Y0201418D01*
X0121010Y0201385D01*
X0121070Y0201348D01*
X0121128Y0201308D01*
X0121183Y0201265D01*
X0121237Y0201218D01*
X0121287Y0201169D01*
X0121335Y0201117D01*
X0121380Y0201063D01*
X0121421Y0201006D01*
X0121460Y0200947D01*
X0121495Y0200886D01*
X0121527Y0200823D01*
X0121555Y0200759D01*
X0121580Y0200693D01*
X0121601Y0200626D01*
X0121618Y0200557D01*
X0121632Y0200488D01*
X0121641Y0200419D01*
X0121647Y0200348D01*
X0121649Y0200278D01*
X0121649Y0199000D01*
X0121649Y0200533D02*
X0123694Y0201556D01*
X0123694Y0199000D02*
X0119094Y0199000D01*
X0119094Y0200278D01*
X0113310Y0196556D02*
X0111138Y0194000D01*
X0113694Y0194000D01*
X0111139Y0197578D02*
X0111164Y0197648D01*
X0111192Y0197717D01*
X0111223Y0197784D01*
X0111258Y0197850D01*
X0111296Y0197913D01*
X0111338Y0197975D01*
X0111382Y0198035D01*
X0111429Y0198092D01*
X0111479Y0198147D01*
X0111532Y0198199D01*
X0111588Y0198249D01*
X0111646Y0198295D01*
X0111706Y0198339D01*
X0111768Y0198380D01*
X0111832Y0198417D01*
X0111898Y0198451D01*
X0111966Y0198482D01*
X0112035Y0198509D01*
X0112105Y0198533D01*
X0112176Y0198554D01*
X0112249Y0198570D01*
X0112322Y0198583D01*
X0112396Y0198593D01*
X0112470Y0198598D01*
X0112544Y0198600D01*
X0112611Y0198598D01*
X0112678Y0198592D01*
X0112744Y0198583D01*
X0112809Y0198569D01*
X0112874Y0198552D01*
X0112937Y0198531D01*
X0112999Y0198506D01*
X0113060Y0198478D01*
X0113119Y0198446D01*
X0113176Y0198411D01*
X0113231Y0198372D01*
X0113283Y0198331D01*
X0113333Y0198286D01*
X0113380Y0198239D01*
X0113425Y0198189D01*
X0113466Y0198137D01*
X0113505Y0198082D01*
X0113540Y0198025D01*
X0113572Y0197966D01*
X0113600Y0197905D01*
X0113625Y0197843D01*
X0113646Y0197780D01*
X0113663Y0197715D01*
X0113677Y0197650D01*
X0113686Y0197584D01*
X0113692Y0197517D01*
X0113694Y0197450D01*
X0113693Y0197450D02*
X0113691Y0197383D01*
X0113686Y0197317D01*
X0113677Y0197251D01*
X0113664Y0197185D01*
X0113648Y0197121D01*
X0113629Y0197057D01*
X0113606Y0196994D01*
X0113580Y0196933D01*
X0113550Y0196873D01*
X0113517Y0196815D01*
X0113482Y0196759D01*
X0113443Y0196705D01*
X0113401Y0196653D01*
X0113357Y0196603D01*
X0113310Y0196556D01*
X0109223Y0194000D02*
X0108200Y0196044D01*
X0107945Y0196044D02*
X0106667Y0196044D01*
X0107945Y0196044D02*
X0108015Y0196046D01*
X0108086Y0196052D01*
X0108155Y0196061D01*
X0108224Y0196075D01*
X0108293Y0196092D01*
X0108360Y0196113D01*
X0108426Y0196138D01*
X0108490Y0196166D01*
X0108553Y0196198D01*
X0108614Y0196233D01*
X0108673Y0196272D01*
X0108730Y0196313D01*
X0108784Y0196358D01*
X0108836Y0196406D01*
X0108885Y0196456D01*
X0108932Y0196510D01*
X0108975Y0196565D01*
X0109015Y0196623D01*
X0109052Y0196683D01*
X0109085Y0196745D01*
X0109115Y0196809D01*
X0109142Y0196874D01*
X0109165Y0196940D01*
X0109184Y0197008D01*
X0109199Y0197077D01*
X0109211Y0197146D01*
X0109219Y0197216D01*
X0109223Y0197287D01*
X0109223Y0197357D01*
X0109219Y0197428D01*
X0109211Y0197498D01*
X0109199Y0197567D01*
X0109184Y0197636D01*
X0109165Y0197704D01*
X0109142Y0197770D01*
X0109115Y0197835D01*
X0109085Y0197899D01*
X0109052Y0197961D01*
X0109015Y0198021D01*
X0108975Y0198079D01*
X0108932Y0198134D01*
X0108885Y0198188D01*
X0108836Y0198238D01*
X0108784Y0198286D01*
X0108730Y0198331D01*
X0108673Y0198372D01*
X0108614Y0198411D01*
X0108553Y0198446D01*
X0108490Y0198478D01*
X0108426Y0198506D01*
X0108360Y0198531D01*
X0108293Y0198552D01*
X0108224Y0198569D01*
X0108155Y0198583D01*
X0108086Y0198592D01*
X0108015Y0198598D01*
X0107945Y0198600D01*
X0106667Y0198600D01*
X0106667Y0194000D01*
X0087042Y0165785D02*
X0085764Y0165785D01*
X0085764Y0161185D01*
X0085764Y0163229D02*
X0087042Y0163229D01*
X0087112Y0163231D01*
X0087183Y0163237D01*
X0087252Y0163246D01*
X0087321Y0163260D01*
X0087390Y0163277D01*
X0087457Y0163298D01*
X0087523Y0163323D01*
X0087587Y0163351D01*
X0087650Y0163383D01*
X0087711Y0163418D01*
X0087770Y0163457D01*
X0087827Y0163498D01*
X0087881Y0163543D01*
X0087933Y0163591D01*
X0087982Y0163641D01*
X0088029Y0163695D01*
X0088072Y0163750D01*
X0088112Y0163808D01*
X0088149Y0163868D01*
X0088182Y0163930D01*
X0088212Y0163994D01*
X0088239Y0164059D01*
X0088262Y0164125D01*
X0088281Y0164193D01*
X0088296Y0164262D01*
X0088308Y0164331D01*
X0088316Y0164401D01*
X0088320Y0164472D01*
X0088320Y0164542D01*
X0088316Y0164613D01*
X0088308Y0164683D01*
X0088296Y0164752D01*
X0088281Y0164821D01*
X0088262Y0164889D01*
X0088239Y0164955D01*
X0088212Y0165020D01*
X0088182Y0165084D01*
X0088149Y0165146D01*
X0088112Y0165206D01*
X0088072Y0165264D01*
X0088029Y0165319D01*
X0087982Y0165373D01*
X0087933Y0165423D01*
X0087881Y0165471D01*
X0087827Y0165516D01*
X0087770Y0165557D01*
X0087711Y0165596D01*
X0087650Y0165631D01*
X0087587Y0165663D01*
X0087523Y0165691D01*
X0087457Y0165716D01*
X0087390Y0165737D01*
X0087321Y0165754D01*
X0087252Y0165768D01*
X0087183Y0165777D01*
X0087112Y0165783D01*
X0087042Y0165785D01*
X0083242Y0163102D02*
X0081836Y0163868D01*
X0082347Y0165785D02*
X0082429Y0165783D01*
X0082511Y0165778D01*
X0082593Y0165769D01*
X0082674Y0165757D01*
X0082755Y0165741D01*
X0082835Y0165722D01*
X0082914Y0165699D01*
X0082992Y0165673D01*
X0083069Y0165644D01*
X0083144Y0165611D01*
X0083218Y0165575D01*
X0083291Y0165537D01*
X0083362Y0165495D01*
X0083430Y0165450D01*
X0083497Y0165402D01*
X0081836Y0163869D02*
X0081782Y0163903D01*
X0081731Y0163940D01*
X0081682Y0163980D01*
X0081635Y0164023D01*
X0081592Y0164069D01*
X0081551Y0164117D01*
X0081513Y0164168D01*
X0081478Y0164221D01*
X0081446Y0164276D01*
X0081418Y0164333D01*
X0081394Y0164391D01*
X0081373Y0164451D01*
X0081356Y0164512D01*
X0081342Y0164574D01*
X0081333Y0164637D01*
X0081327Y0164700D01*
X0081325Y0164763D01*
X0081327Y0164825D01*
X0081332Y0164886D01*
X0081342Y0164947D01*
X0081355Y0165008D01*
X0081371Y0165067D01*
X0081391Y0165125D01*
X0081415Y0165182D01*
X0081442Y0165238D01*
X0081472Y0165292D01*
X0081506Y0165344D01*
X0081543Y0165393D01*
X0081582Y0165441D01*
X0081624Y0165486D01*
X0081669Y0165528D01*
X0081717Y0165568D01*
X0081766Y0165604D01*
X0081818Y0165638D01*
X0081872Y0165668D01*
X0081928Y0165695D01*
X0081985Y0165719D01*
X0082043Y0165739D01*
X0082102Y0165755D01*
X0082163Y0165768D01*
X0082224Y0165778D01*
X0082285Y0165783D01*
X0082347Y0165785D01*
X0081198Y0161825D02*
X0081262Y0161762D01*
X0081330Y0161703D01*
X0081399Y0161646D01*
X0081471Y0161592D01*
X0081545Y0161541D01*
X0081621Y0161493D01*
X0081698Y0161449D01*
X0081778Y0161408D01*
X0081859Y0161370D01*
X0081942Y0161335D01*
X0082026Y0161304D01*
X0082112Y0161277D01*
X0082198Y0161253D01*
X0082286Y0161232D01*
X0082374Y0161216D01*
X0082463Y0161203D01*
X0082552Y0161193D01*
X0082641Y0161188D01*
X0082731Y0161186D01*
X0082731Y0161185D02*
X0082793Y0161187D01*
X0082854Y0161192D01*
X0082915Y0161202D01*
X0082976Y0161215D01*
X0083035Y0161231D01*
X0083093Y0161251D01*
X0083150Y0161275D01*
X0083206Y0161302D01*
X0083260Y0161332D01*
X0083312Y0161366D01*
X0083361Y0161402D01*
X0083409Y0161442D01*
X0083454Y0161484D01*
X0083496Y0161529D01*
X0083536Y0161577D01*
X0083572Y0161626D01*
X0083606Y0161678D01*
X0083636Y0161732D01*
X0083663Y0161788D01*
X0083687Y0161845D01*
X0083707Y0161903D01*
X0083723Y0161962D01*
X0083736Y0162023D01*
X0083746Y0162084D01*
X0083751Y0162145D01*
X0083753Y0162207D01*
X0083751Y0162270D01*
X0083745Y0162333D01*
X0083736Y0162396D01*
X0083722Y0162458D01*
X0083705Y0162519D01*
X0083684Y0162579D01*
X0083660Y0162637D01*
X0083632Y0162694D01*
X0083600Y0162749D01*
X0083565Y0162802D01*
X0083527Y0162853D01*
X0083486Y0162901D01*
X0083443Y0162947D01*
X0083396Y0162990D01*
X0083347Y0163030D01*
X0083296Y0163067D01*
X0083242Y0163101D01*
X0079651Y0161185D02*
X0077606Y0161185D01*
X0077606Y0165785D01*
X0079651Y0165785D01*
X0079140Y0163741D02*
X0077606Y0163741D01*
X0101894Y0102900D02*
X0101950Y0102898D01*
X0102005Y0102892D01*
X0102060Y0102883D01*
X0102115Y0102869D01*
X0102168Y0102852D01*
X0102219Y0102831D01*
X0102270Y0102806D01*
X0102318Y0102778D01*
X0102364Y0102747D01*
X0102408Y0102713D01*
X0102450Y0102675D01*
X0102489Y0102635D01*
X0102524Y0102593D01*
X0102557Y0102547D01*
X0102587Y0102500D01*
X0102613Y0102451D01*
X0102636Y0102400D01*
X0102655Y0102347D01*
X0102670Y0102294D01*
X0102682Y0102239D01*
X0102690Y0102184D01*
X0102694Y0102128D01*
X0102694Y0102072D01*
X0102690Y0102016D01*
X0102682Y0101961D01*
X0102670Y0101906D01*
X0102655Y0101853D01*
X0102636Y0101800D01*
X0102613Y0101749D01*
X0102587Y0101700D01*
X0102557Y0101653D01*
X0102524Y0101607D01*
X0102489Y0101565D01*
X0102450Y0101525D01*
X0102408Y0101487D01*
X0102364Y0101453D01*
X0102318Y0101422D01*
X0102270Y0101394D01*
X0102219Y0101369D01*
X0102168Y0101348D01*
X0102115Y0101331D01*
X0102060Y0101317D01*
X0102005Y0101308D01*
X0101950Y0101302D01*
X0101894Y0101300D01*
X0101838Y0101302D01*
X0101783Y0101308D01*
X0101728Y0101317D01*
X0101673Y0101331D01*
X0101620Y0101348D01*
X0101569Y0101369D01*
X0101518Y0101394D01*
X0101470Y0101422D01*
X0101424Y0101453D01*
X0101380Y0101487D01*
X0101338Y0101525D01*
X0101299Y0101565D01*
X0101264Y0101607D01*
X0101231Y0101653D01*
X0101201Y0101700D01*
X0101175Y0101749D01*
X0101152Y0101800D01*
X0101133Y0101853D01*
X0101118Y0101906D01*
X0101106Y0101961D01*
X0101098Y0102016D01*
X0101094Y0102072D01*
X0101094Y0102128D01*
X0101098Y0102184D01*
X0101106Y0102239D01*
X0101118Y0102294D01*
X0101133Y0102347D01*
X0101152Y0102400D01*
X0101175Y0102451D01*
X0101201Y0102500D01*
X0101231Y0102547D01*
X0101264Y0102593D01*
X0101299Y0102635D01*
X0101338Y0102675D01*
X0101380Y0102713D01*
X0101424Y0102747D01*
X0101470Y0102778D01*
X0101518Y0102806D01*
X0101569Y0102831D01*
X0101620Y0102852D01*
X0101673Y0102869D01*
X0101728Y0102883D01*
X0101783Y0102892D01*
X0101838Y0102898D01*
X0101894Y0102900D01*
X0103694Y0103100D02*
X0103756Y0103098D01*
X0103817Y0103092D01*
X0103878Y0103083D01*
X0103938Y0103070D01*
X0103997Y0103053D01*
X0104055Y0103032D01*
X0104112Y0103008D01*
X0104167Y0102981D01*
X0104220Y0102950D01*
X0104272Y0102916D01*
X0104321Y0102879D01*
X0104368Y0102839D01*
X0104412Y0102796D01*
X0104453Y0102751D01*
X0104492Y0102703D01*
X0104528Y0102652D01*
X0104560Y0102600D01*
X0104589Y0102546D01*
X0104615Y0102490D01*
X0104637Y0102432D01*
X0104656Y0102374D01*
X0104671Y0102314D01*
X0104682Y0102253D01*
X0104690Y0102192D01*
X0104694Y0102131D01*
X0104694Y0102069D01*
X0104690Y0102008D01*
X0104682Y0101947D01*
X0104671Y0101886D01*
X0104656Y0101826D01*
X0104637Y0101768D01*
X0104615Y0101710D01*
X0104589Y0101654D01*
X0104560Y0101600D01*
X0104528Y0101548D01*
X0104492Y0101497D01*
X0104453Y0101449D01*
X0104412Y0101404D01*
X0104368Y0101361D01*
X0104321Y0101321D01*
X0104272Y0101284D01*
X0104220Y0101250D01*
X0104167Y0101219D01*
X0104112Y0101192D01*
X0104055Y0101168D01*
X0103997Y0101147D01*
X0103938Y0101130D01*
X0103878Y0101117D01*
X0103817Y0101108D01*
X0103756Y0101102D01*
X0103694Y0101100D01*
X0103632Y0101102D01*
X0103571Y0101108D01*
X0103510Y0101117D01*
X0103450Y0101130D01*
X0103391Y0101147D01*
X0103333Y0101168D01*
X0103276Y0101192D01*
X0103221Y0101219D01*
X0103168Y0101250D01*
X0103116Y0101284D01*
X0103067Y0101321D01*
X0103020Y0101361D01*
X0102976Y0101404D01*
X0102935Y0101449D01*
X0102896Y0101497D01*
X0102860Y0101548D01*
X0102828Y0101600D01*
X0102799Y0101654D01*
X0102773Y0101710D01*
X0102751Y0101768D01*
X0102732Y0101826D01*
X0102717Y0101886D01*
X0102706Y0101947D01*
X0102698Y0102008D01*
X0102694Y0102069D01*
X0102694Y0102131D01*
X0102698Y0102192D01*
X0102706Y0102253D01*
X0102717Y0102314D01*
X0102732Y0102374D01*
X0102751Y0102432D01*
X0102773Y0102490D01*
X0102799Y0102546D01*
X0102828Y0102600D01*
X0102860Y0102652D01*
X0102896Y0102703D01*
X0102935Y0102751D01*
X0102976Y0102796D01*
X0103020Y0102839D01*
X0103067Y0102879D01*
X0103116Y0102916D01*
X0103168Y0102950D01*
X0103221Y0102981D01*
X0103276Y0103008D01*
X0103333Y0103032D01*
X0103391Y0103053D01*
X0103450Y0103070D01*
X0103510Y0103083D01*
X0103571Y0103092D01*
X0103632Y0103098D01*
X0103694Y0103100D01*
X0073694Y0098100D02*
X0073756Y0098098D01*
X0073817Y0098092D01*
X0073878Y0098083D01*
X0073938Y0098070D01*
X0073997Y0098053D01*
X0074055Y0098032D01*
X0074112Y0098008D01*
X0074167Y0097981D01*
X0074220Y0097950D01*
X0074272Y0097916D01*
X0074321Y0097879D01*
X0074368Y0097839D01*
X0074412Y0097796D01*
X0074453Y0097751D01*
X0074492Y0097703D01*
X0074528Y0097652D01*
X0074560Y0097600D01*
X0074589Y0097546D01*
X0074615Y0097490D01*
X0074637Y0097432D01*
X0074656Y0097374D01*
X0074671Y0097314D01*
X0074682Y0097253D01*
X0074690Y0097192D01*
X0074694Y0097131D01*
X0074694Y0097069D01*
X0074690Y0097008D01*
X0074682Y0096947D01*
X0074671Y0096886D01*
X0074656Y0096826D01*
X0074637Y0096768D01*
X0074615Y0096710D01*
X0074589Y0096654D01*
X0074560Y0096600D01*
X0074528Y0096548D01*
X0074492Y0096497D01*
X0074453Y0096449D01*
X0074412Y0096404D01*
X0074368Y0096361D01*
X0074321Y0096321D01*
X0074272Y0096284D01*
X0074220Y0096250D01*
X0074167Y0096219D01*
X0074112Y0096192D01*
X0074055Y0096168D01*
X0073997Y0096147D01*
X0073938Y0096130D01*
X0073878Y0096117D01*
X0073817Y0096108D01*
X0073756Y0096102D01*
X0073694Y0096100D01*
X0073632Y0096102D01*
X0073571Y0096108D01*
X0073510Y0096117D01*
X0073450Y0096130D01*
X0073391Y0096147D01*
X0073333Y0096168D01*
X0073276Y0096192D01*
X0073221Y0096219D01*
X0073168Y0096250D01*
X0073116Y0096284D01*
X0073067Y0096321D01*
X0073020Y0096361D01*
X0072976Y0096404D01*
X0072935Y0096449D01*
X0072896Y0096497D01*
X0072860Y0096548D01*
X0072828Y0096600D01*
X0072799Y0096654D01*
X0072773Y0096710D01*
X0072751Y0096768D01*
X0072732Y0096826D01*
X0072717Y0096886D01*
X0072706Y0096947D01*
X0072698Y0097008D01*
X0072694Y0097069D01*
X0072694Y0097131D01*
X0072698Y0097192D01*
X0072706Y0097253D01*
X0072717Y0097314D01*
X0072732Y0097374D01*
X0072751Y0097432D01*
X0072773Y0097490D01*
X0072799Y0097546D01*
X0072828Y0097600D01*
X0072860Y0097652D01*
X0072896Y0097703D01*
X0072935Y0097751D01*
X0072976Y0097796D01*
X0073020Y0097839D01*
X0073067Y0097879D01*
X0073116Y0097916D01*
X0073168Y0097950D01*
X0073221Y0097981D01*
X0073276Y0098008D01*
X0073333Y0098032D01*
X0073391Y0098053D01*
X0073450Y0098070D01*
X0073510Y0098083D01*
X0073571Y0098092D01*
X0073632Y0098098D01*
X0073694Y0098100D01*
X0071894Y0097900D02*
X0071950Y0097898D01*
X0072005Y0097892D01*
X0072060Y0097883D01*
X0072115Y0097869D01*
X0072168Y0097852D01*
X0072219Y0097831D01*
X0072270Y0097806D01*
X0072318Y0097778D01*
X0072364Y0097747D01*
X0072408Y0097713D01*
X0072450Y0097675D01*
X0072489Y0097635D01*
X0072524Y0097593D01*
X0072557Y0097547D01*
X0072587Y0097500D01*
X0072613Y0097451D01*
X0072636Y0097400D01*
X0072655Y0097347D01*
X0072670Y0097294D01*
X0072682Y0097239D01*
X0072690Y0097184D01*
X0072694Y0097128D01*
X0072694Y0097072D01*
X0072690Y0097016D01*
X0072682Y0096961D01*
X0072670Y0096906D01*
X0072655Y0096853D01*
X0072636Y0096800D01*
X0072613Y0096749D01*
X0072587Y0096700D01*
X0072557Y0096653D01*
X0072524Y0096607D01*
X0072489Y0096565D01*
X0072450Y0096525D01*
X0072408Y0096487D01*
X0072364Y0096453D01*
X0072318Y0096422D01*
X0072270Y0096394D01*
X0072219Y0096369D01*
X0072168Y0096348D01*
X0072115Y0096331D01*
X0072060Y0096317D01*
X0072005Y0096308D01*
X0071950Y0096302D01*
X0071894Y0096300D01*
X0071838Y0096302D01*
X0071783Y0096308D01*
X0071728Y0096317D01*
X0071673Y0096331D01*
X0071620Y0096348D01*
X0071569Y0096369D01*
X0071518Y0096394D01*
X0071470Y0096422D01*
X0071424Y0096453D01*
X0071380Y0096487D01*
X0071338Y0096525D01*
X0071299Y0096565D01*
X0071264Y0096607D01*
X0071231Y0096653D01*
X0071201Y0096700D01*
X0071175Y0096749D01*
X0071152Y0096800D01*
X0071133Y0096853D01*
X0071118Y0096906D01*
X0071106Y0096961D01*
X0071098Y0097016D01*
X0071094Y0097072D01*
X0071094Y0097128D01*
X0071098Y0097184D01*
X0071106Y0097239D01*
X0071118Y0097294D01*
X0071133Y0097347D01*
X0071152Y0097400D01*
X0071175Y0097451D01*
X0071201Y0097500D01*
X0071231Y0097547D01*
X0071264Y0097593D01*
X0071299Y0097635D01*
X0071338Y0097675D01*
X0071380Y0097713D01*
X0071424Y0097747D01*
X0071470Y0097778D01*
X0071518Y0097806D01*
X0071569Y0097831D01*
X0071620Y0097852D01*
X0071673Y0097869D01*
X0071728Y0097883D01*
X0071783Y0097892D01*
X0071838Y0097898D01*
X0071894Y0097900D01*
X0043694Y0093100D02*
X0043756Y0093098D01*
X0043817Y0093092D01*
X0043878Y0093083D01*
X0043938Y0093070D01*
X0043997Y0093053D01*
X0044055Y0093032D01*
X0044112Y0093008D01*
X0044167Y0092981D01*
X0044220Y0092950D01*
X0044272Y0092916D01*
X0044321Y0092879D01*
X0044368Y0092839D01*
X0044412Y0092796D01*
X0044453Y0092751D01*
X0044492Y0092703D01*
X0044528Y0092652D01*
X0044560Y0092600D01*
X0044589Y0092546D01*
X0044615Y0092490D01*
X0044637Y0092432D01*
X0044656Y0092374D01*
X0044671Y0092314D01*
X0044682Y0092253D01*
X0044690Y0092192D01*
X0044694Y0092131D01*
X0044694Y0092069D01*
X0044690Y0092008D01*
X0044682Y0091947D01*
X0044671Y0091886D01*
X0044656Y0091826D01*
X0044637Y0091768D01*
X0044615Y0091710D01*
X0044589Y0091654D01*
X0044560Y0091600D01*
X0044528Y0091548D01*
X0044492Y0091497D01*
X0044453Y0091449D01*
X0044412Y0091404D01*
X0044368Y0091361D01*
X0044321Y0091321D01*
X0044272Y0091284D01*
X0044220Y0091250D01*
X0044167Y0091219D01*
X0044112Y0091192D01*
X0044055Y0091168D01*
X0043997Y0091147D01*
X0043938Y0091130D01*
X0043878Y0091117D01*
X0043817Y0091108D01*
X0043756Y0091102D01*
X0043694Y0091100D01*
X0043632Y0091102D01*
X0043571Y0091108D01*
X0043510Y0091117D01*
X0043450Y0091130D01*
X0043391Y0091147D01*
X0043333Y0091168D01*
X0043276Y0091192D01*
X0043221Y0091219D01*
X0043168Y0091250D01*
X0043116Y0091284D01*
X0043067Y0091321D01*
X0043020Y0091361D01*
X0042976Y0091404D01*
X0042935Y0091449D01*
X0042896Y0091497D01*
X0042860Y0091548D01*
X0042828Y0091600D01*
X0042799Y0091654D01*
X0042773Y0091710D01*
X0042751Y0091768D01*
X0042732Y0091826D01*
X0042717Y0091886D01*
X0042706Y0091947D01*
X0042698Y0092008D01*
X0042694Y0092069D01*
X0042694Y0092131D01*
X0042698Y0092192D01*
X0042706Y0092253D01*
X0042717Y0092314D01*
X0042732Y0092374D01*
X0042751Y0092432D01*
X0042773Y0092490D01*
X0042799Y0092546D01*
X0042828Y0092600D01*
X0042860Y0092652D01*
X0042896Y0092703D01*
X0042935Y0092751D01*
X0042976Y0092796D01*
X0043020Y0092839D01*
X0043067Y0092879D01*
X0043116Y0092916D01*
X0043168Y0092950D01*
X0043221Y0092981D01*
X0043276Y0093008D01*
X0043333Y0093032D01*
X0043391Y0093053D01*
X0043450Y0093070D01*
X0043510Y0093083D01*
X0043571Y0093092D01*
X0043632Y0093098D01*
X0043694Y0093100D01*
X0041894Y0092900D02*
X0041950Y0092898D01*
X0042005Y0092892D01*
X0042060Y0092883D01*
X0042115Y0092869D01*
X0042168Y0092852D01*
X0042219Y0092831D01*
X0042270Y0092806D01*
X0042318Y0092778D01*
X0042364Y0092747D01*
X0042408Y0092713D01*
X0042450Y0092675D01*
X0042489Y0092635D01*
X0042524Y0092593D01*
X0042557Y0092547D01*
X0042587Y0092500D01*
X0042613Y0092451D01*
X0042636Y0092400D01*
X0042655Y0092347D01*
X0042670Y0092294D01*
X0042682Y0092239D01*
X0042690Y0092184D01*
X0042694Y0092128D01*
X0042694Y0092072D01*
X0042690Y0092016D01*
X0042682Y0091961D01*
X0042670Y0091906D01*
X0042655Y0091853D01*
X0042636Y0091800D01*
X0042613Y0091749D01*
X0042587Y0091700D01*
X0042557Y0091653D01*
X0042524Y0091607D01*
X0042489Y0091565D01*
X0042450Y0091525D01*
X0042408Y0091487D01*
X0042364Y0091453D01*
X0042318Y0091422D01*
X0042270Y0091394D01*
X0042219Y0091369D01*
X0042168Y0091348D01*
X0042115Y0091331D01*
X0042060Y0091317D01*
X0042005Y0091308D01*
X0041950Y0091302D01*
X0041894Y0091300D01*
X0041838Y0091302D01*
X0041783Y0091308D01*
X0041728Y0091317D01*
X0041673Y0091331D01*
X0041620Y0091348D01*
X0041569Y0091369D01*
X0041518Y0091394D01*
X0041470Y0091422D01*
X0041424Y0091453D01*
X0041380Y0091487D01*
X0041338Y0091525D01*
X0041299Y0091565D01*
X0041264Y0091607D01*
X0041231Y0091653D01*
X0041201Y0091700D01*
X0041175Y0091749D01*
X0041152Y0091800D01*
X0041133Y0091853D01*
X0041118Y0091906D01*
X0041106Y0091961D01*
X0041098Y0092016D01*
X0041094Y0092072D01*
X0041094Y0092128D01*
X0041098Y0092184D01*
X0041106Y0092239D01*
X0041118Y0092294D01*
X0041133Y0092347D01*
X0041152Y0092400D01*
X0041175Y0092451D01*
X0041201Y0092500D01*
X0041231Y0092547D01*
X0041264Y0092593D01*
X0041299Y0092635D01*
X0041338Y0092675D01*
X0041380Y0092713D01*
X0041424Y0092747D01*
X0041470Y0092778D01*
X0041518Y0092806D01*
X0041569Y0092831D01*
X0041620Y0092852D01*
X0041673Y0092869D01*
X0041728Y0092883D01*
X0041783Y0092892D01*
X0041838Y0092898D01*
X0041894Y0092900D01*
D15*
X0058547Y0038859D03*
D16*
X0075870Y0034922D02*
X0075870Y0030985D01*
X0081776Y0030985D02*
X0081776Y0034922D01*
X0088075Y0034922D02*
X0088075Y0030985D01*
X0093980Y0030985D02*
X0093980Y0034922D01*
X0093980Y0046733D02*
X0093980Y0050670D01*
X0088075Y0050670D02*
X0088075Y0046733D01*
X0081776Y0046733D02*
X0081776Y0050670D01*
X0075870Y0050670D02*
X0075870Y0046733D01*
D17*
X0084925Y0040828D03*
D18*
X0036394Y0059300D02*
X0034394Y0059300D01*
X0035394Y0060300D02*
X0035394Y0058300D01*
X0021394Y0066300D02*
X0021397Y0066545D01*
X0021406Y0066791D01*
X0021421Y0067036D01*
X0021442Y0067280D01*
X0021469Y0067524D01*
X0021502Y0067767D01*
X0021541Y0068010D01*
X0021586Y0068251D01*
X0021637Y0068491D01*
X0021694Y0068730D01*
X0021756Y0068967D01*
X0021825Y0069203D01*
X0021899Y0069437D01*
X0021979Y0069669D01*
X0022064Y0069899D01*
X0022155Y0070127D01*
X0022252Y0070352D01*
X0022354Y0070576D01*
X0022462Y0070796D01*
X0022575Y0071014D01*
X0022693Y0071229D01*
X0022817Y0071441D01*
X0022945Y0071650D01*
X0023079Y0071856D01*
X0023218Y0072058D01*
X0023362Y0072257D01*
X0023511Y0072452D01*
X0023664Y0072644D01*
X0023822Y0072832D01*
X0023984Y0073016D01*
X0024152Y0073195D01*
X0024323Y0073371D01*
X0024499Y0073542D01*
X0024678Y0073710D01*
X0024862Y0073872D01*
X0025050Y0074030D01*
X0025242Y0074183D01*
X0025437Y0074332D01*
X0025636Y0074476D01*
X0025838Y0074615D01*
X0026044Y0074749D01*
X0026253Y0074877D01*
X0026465Y0075001D01*
X0026680Y0075119D01*
X0026898Y0075232D01*
X0027118Y0075340D01*
X0027342Y0075442D01*
X0027567Y0075539D01*
X0027795Y0075630D01*
X0028025Y0075715D01*
X0028257Y0075795D01*
X0028491Y0075869D01*
X0028727Y0075938D01*
X0028964Y0076000D01*
X0029203Y0076057D01*
X0029443Y0076108D01*
X0029684Y0076153D01*
X0029927Y0076192D01*
X0030170Y0076225D01*
X0030414Y0076252D01*
X0030658Y0076273D01*
X0030903Y0076288D01*
X0031149Y0076297D01*
X0031394Y0076300D01*
X0031639Y0076297D01*
X0031885Y0076288D01*
X0032130Y0076273D01*
X0032374Y0076252D01*
X0032618Y0076225D01*
X0032861Y0076192D01*
X0033104Y0076153D01*
X0033345Y0076108D01*
X0033585Y0076057D01*
X0033824Y0076000D01*
X0034061Y0075938D01*
X0034297Y0075869D01*
X0034531Y0075795D01*
X0034763Y0075715D01*
X0034993Y0075630D01*
X0035221Y0075539D01*
X0035446Y0075442D01*
X0035670Y0075340D01*
X0035890Y0075232D01*
X0036108Y0075119D01*
X0036323Y0075001D01*
X0036535Y0074877D01*
X0036744Y0074749D01*
X0036950Y0074615D01*
X0037152Y0074476D01*
X0037351Y0074332D01*
X0037546Y0074183D01*
X0037738Y0074030D01*
X0037926Y0073872D01*
X0038110Y0073710D01*
X0038289Y0073542D01*
X0038465Y0073371D01*
X0038636Y0073195D01*
X0038804Y0073016D01*
X0038966Y0072832D01*
X0039124Y0072644D01*
X0039277Y0072452D01*
X0039426Y0072257D01*
X0039570Y0072058D01*
X0039709Y0071856D01*
X0039843Y0071650D01*
X0039971Y0071441D01*
X0040095Y0071229D01*
X0040213Y0071014D01*
X0040326Y0070796D01*
X0040434Y0070576D01*
X0040536Y0070352D01*
X0040633Y0070127D01*
X0040724Y0069899D01*
X0040809Y0069669D01*
X0040889Y0069437D01*
X0040963Y0069203D01*
X0041032Y0068967D01*
X0041094Y0068730D01*
X0041151Y0068491D01*
X0041202Y0068251D01*
X0041247Y0068010D01*
X0041286Y0067767D01*
X0041319Y0067524D01*
X0041346Y0067280D01*
X0041367Y0067036D01*
X0041382Y0066791D01*
X0041391Y0066545D01*
X0041394Y0066300D01*
X0041391Y0066055D01*
X0041382Y0065809D01*
X0041367Y0065564D01*
X0041346Y0065320D01*
X0041319Y0065076D01*
X0041286Y0064833D01*
X0041247Y0064590D01*
X0041202Y0064349D01*
X0041151Y0064109D01*
X0041094Y0063870D01*
X0041032Y0063633D01*
X0040963Y0063397D01*
X0040889Y0063163D01*
X0040809Y0062931D01*
X0040724Y0062701D01*
X0040633Y0062473D01*
X0040536Y0062248D01*
X0040434Y0062024D01*
X0040326Y0061804D01*
X0040213Y0061586D01*
X0040095Y0061371D01*
X0039971Y0061159D01*
X0039843Y0060950D01*
X0039709Y0060744D01*
X0039570Y0060542D01*
X0039426Y0060343D01*
X0039277Y0060148D01*
X0039124Y0059956D01*
X0038966Y0059768D01*
X0038804Y0059584D01*
X0038636Y0059405D01*
X0038465Y0059229D01*
X0038289Y0059058D01*
X0038110Y0058890D01*
X0037926Y0058728D01*
X0037738Y0058570D01*
X0037546Y0058417D01*
X0037351Y0058268D01*
X0037152Y0058124D01*
X0036950Y0057985D01*
X0036744Y0057851D01*
X0036535Y0057723D01*
X0036323Y0057599D01*
X0036108Y0057481D01*
X0035890Y0057368D01*
X0035670Y0057260D01*
X0035446Y0057158D01*
X0035221Y0057061D01*
X0034993Y0056970D01*
X0034763Y0056885D01*
X0034531Y0056805D01*
X0034297Y0056731D01*
X0034061Y0056662D01*
X0033824Y0056600D01*
X0033585Y0056543D01*
X0033345Y0056492D01*
X0033104Y0056447D01*
X0032861Y0056408D01*
X0032618Y0056375D01*
X0032374Y0056348D01*
X0032130Y0056327D01*
X0031885Y0056312D01*
X0031639Y0056303D01*
X0031394Y0056300D01*
X0031149Y0056303D01*
X0030903Y0056312D01*
X0030658Y0056327D01*
X0030414Y0056348D01*
X0030170Y0056375D01*
X0029927Y0056408D01*
X0029684Y0056447D01*
X0029443Y0056492D01*
X0029203Y0056543D01*
X0028964Y0056600D01*
X0028727Y0056662D01*
X0028491Y0056731D01*
X0028257Y0056805D01*
X0028025Y0056885D01*
X0027795Y0056970D01*
X0027567Y0057061D01*
X0027342Y0057158D01*
X0027118Y0057260D01*
X0026898Y0057368D01*
X0026680Y0057481D01*
X0026465Y0057599D01*
X0026253Y0057723D01*
X0026044Y0057851D01*
X0025838Y0057985D01*
X0025636Y0058124D01*
X0025437Y0058268D01*
X0025242Y0058417D01*
X0025050Y0058570D01*
X0024862Y0058728D01*
X0024678Y0058890D01*
X0024499Y0059058D01*
X0024323Y0059229D01*
X0024152Y0059405D01*
X0023984Y0059584D01*
X0023822Y0059768D01*
X0023664Y0059956D01*
X0023511Y0060148D01*
X0023362Y0060343D01*
X0023218Y0060542D01*
X0023079Y0060744D01*
X0022945Y0060950D01*
X0022817Y0061159D01*
X0022693Y0061371D01*
X0022575Y0061586D01*
X0022462Y0061804D01*
X0022354Y0062024D01*
X0022252Y0062248D01*
X0022155Y0062473D01*
X0022064Y0062701D01*
X0021979Y0062931D01*
X0021899Y0063163D01*
X0021825Y0063397D01*
X0021756Y0063633D01*
X0021694Y0063870D01*
X0021637Y0064109D01*
X0021586Y0064349D01*
X0021541Y0064590D01*
X0021502Y0064833D01*
X0021469Y0065076D01*
X0021442Y0065320D01*
X0021421Y0065564D01*
X0021406Y0065809D01*
X0021397Y0066055D01*
X0021394Y0066300D01*
X0123894Y0169300D02*
X0124894Y0169300D01*
X0124894Y0168300D01*
X0123894Y0169300D02*
X0123894Y0175300D01*
X0124894Y0175300D01*
X0124894Y0176300D01*
X0128394Y0184300D02*
X0132394Y0184300D01*
X0141894Y0184300D01*
X0145394Y0184300D01*
X0148894Y0176300D02*
X0148894Y0175300D01*
X0149894Y0175300D01*
X0149894Y0169300D01*
X0148894Y0169300D01*
X0148894Y0168300D01*
X0145394Y0160300D02*
X0141894Y0160300D01*
X0131894Y0160300D01*
X0128394Y0160300D01*
X0135894Y0172300D02*
X0135896Y0172363D01*
X0135902Y0172425D01*
X0135912Y0172487D01*
X0135925Y0172549D01*
X0135943Y0172609D01*
X0135964Y0172668D01*
X0135989Y0172726D01*
X0136018Y0172782D01*
X0136050Y0172836D01*
X0136085Y0172888D01*
X0136123Y0172937D01*
X0136165Y0172985D01*
X0136209Y0173029D01*
X0136257Y0173071D01*
X0136306Y0173109D01*
X0136358Y0173144D01*
X0136412Y0173176D01*
X0136468Y0173205D01*
X0136526Y0173230D01*
X0136585Y0173251D01*
X0136645Y0173269D01*
X0136707Y0173282D01*
X0136769Y0173292D01*
X0136831Y0173298D01*
X0136894Y0173300D01*
X0136957Y0173298D01*
X0137019Y0173292D01*
X0137081Y0173282D01*
X0137143Y0173269D01*
X0137203Y0173251D01*
X0137262Y0173230D01*
X0137320Y0173205D01*
X0137376Y0173176D01*
X0137430Y0173144D01*
X0137482Y0173109D01*
X0137531Y0173071D01*
X0137579Y0173029D01*
X0137623Y0172985D01*
X0137665Y0172937D01*
X0137703Y0172888D01*
X0137738Y0172836D01*
X0137770Y0172782D01*
X0137799Y0172726D01*
X0137824Y0172668D01*
X0137845Y0172609D01*
X0137863Y0172549D01*
X0137876Y0172487D01*
X0137886Y0172425D01*
X0137892Y0172363D01*
X0137894Y0172300D01*
X0137892Y0172237D01*
X0137886Y0172175D01*
X0137876Y0172113D01*
X0137863Y0172051D01*
X0137845Y0171991D01*
X0137824Y0171932D01*
X0137799Y0171874D01*
X0137770Y0171818D01*
X0137738Y0171764D01*
X0137703Y0171712D01*
X0137665Y0171663D01*
X0137623Y0171615D01*
X0137579Y0171571D01*
X0137531Y0171529D01*
X0137482Y0171491D01*
X0137430Y0171456D01*
X0137376Y0171424D01*
X0137320Y0171395D01*
X0137262Y0171370D01*
X0137203Y0171349D01*
X0137143Y0171331D01*
X0137081Y0171318D01*
X0137019Y0171308D01*
X0136957Y0171302D01*
X0136894Y0171300D01*
X0136831Y0171302D01*
X0136769Y0171308D01*
X0136707Y0171318D01*
X0136645Y0171331D01*
X0136585Y0171349D01*
X0136526Y0171370D01*
X0136468Y0171395D01*
X0136412Y0171424D01*
X0136358Y0171456D01*
X0136306Y0171491D01*
X0136257Y0171529D01*
X0136209Y0171571D01*
X0136165Y0171615D01*
X0136123Y0171663D01*
X0136085Y0171712D01*
X0136050Y0171764D01*
X0136018Y0171818D01*
X0135989Y0171874D01*
X0135964Y0171932D01*
X0135943Y0171991D01*
X0135925Y0172051D01*
X0135912Y0172113D01*
X0135902Y0172175D01*
X0135896Y0172237D01*
X0135894Y0172300D01*
X0129894Y0172300D02*
X0129896Y0172472D01*
X0129902Y0172643D01*
X0129913Y0172815D01*
X0129928Y0172986D01*
X0129947Y0173157D01*
X0129970Y0173327D01*
X0129997Y0173497D01*
X0130029Y0173666D01*
X0130064Y0173834D01*
X0130104Y0174001D01*
X0130148Y0174167D01*
X0130195Y0174332D01*
X0130247Y0174496D01*
X0130303Y0174658D01*
X0130363Y0174819D01*
X0130427Y0174979D01*
X0130495Y0175137D01*
X0130566Y0175293D01*
X0130641Y0175447D01*
X0130721Y0175600D01*
X0130803Y0175750D01*
X0130890Y0175899D01*
X0130980Y0176045D01*
X0131074Y0176189D01*
X0131171Y0176331D01*
X0131272Y0176470D01*
X0131376Y0176607D01*
X0131483Y0176741D01*
X0131594Y0176872D01*
X0131707Y0177001D01*
X0131824Y0177127D01*
X0131944Y0177250D01*
X0132067Y0177370D01*
X0132193Y0177487D01*
X0132322Y0177600D01*
X0132453Y0177711D01*
X0132587Y0177818D01*
X0132724Y0177922D01*
X0132863Y0178023D01*
X0133005Y0178120D01*
X0133149Y0178214D01*
X0133295Y0178304D01*
X0133444Y0178391D01*
X0133594Y0178473D01*
X0133747Y0178553D01*
X0133901Y0178628D01*
X0134057Y0178699D01*
X0134215Y0178767D01*
X0134375Y0178831D01*
X0134536Y0178891D01*
X0134698Y0178947D01*
X0134862Y0178999D01*
X0135027Y0179046D01*
X0135193Y0179090D01*
X0135360Y0179130D01*
X0135528Y0179165D01*
X0135697Y0179197D01*
X0135867Y0179224D01*
X0136037Y0179247D01*
X0136208Y0179266D01*
X0136379Y0179281D01*
X0136551Y0179292D01*
X0136722Y0179298D01*
X0136894Y0179300D01*
X0137066Y0179298D01*
X0137237Y0179292D01*
X0137409Y0179281D01*
X0137580Y0179266D01*
X0137751Y0179247D01*
X0137921Y0179224D01*
X0138091Y0179197D01*
X0138260Y0179165D01*
X0138428Y0179130D01*
X0138595Y0179090D01*
X0138761Y0179046D01*
X0138926Y0178999D01*
X0139090Y0178947D01*
X0139252Y0178891D01*
X0139413Y0178831D01*
X0139573Y0178767D01*
X0139731Y0178699D01*
X0139887Y0178628D01*
X0140041Y0178553D01*
X0140194Y0178473D01*
X0140344Y0178391D01*
X0140493Y0178304D01*
X0140639Y0178214D01*
X0140783Y0178120D01*
X0140925Y0178023D01*
X0141064Y0177922D01*
X0141201Y0177818D01*
X0141335Y0177711D01*
X0141466Y0177600D01*
X0141595Y0177487D01*
X0141721Y0177370D01*
X0141844Y0177250D01*
X0141964Y0177127D01*
X0142081Y0177001D01*
X0142194Y0176872D01*
X0142305Y0176741D01*
X0142412Y0176607D01*
X0142516Y0176470D01*
X0142617Y0176331D01*
X0142714Y0176189D01*
X0142808Y0176045D01*
X0142898Y0175899D01*
X0142985Y0175750D01*
X0143067Y0175600D01*
X0143147Y0175447D01*
X0143222Y0175293D01*
X0143293Y0175137D01*
X0143361Y0174979D01*
X0143425Y0174819D01*
X0143485Y0174658D01*
X0143541Y0174496D01*
X0143593Y0174332D01*
X0143640Y0174167D01*
X0143684Y0174001D01*
X0143724Y0173834D01*
X0143759Y0173666D01*
X0143791Y0173497D01*
X0143818Y0173327D01*
X0143841Y0173157D01*
X0143860Y0172986D01*
X0143875Y0172815D01*
X0143886Y0172643D01*
X0143892Y0172472D01*
X0143894Y0172300D01*
X0143892Y0172128D01*
X0143886Y0171957D01*
X0143875Y0171785D01*
X0143860Y0171614D01*
X0143841Y0171443D01*
X0143818Y0171273D01*
X0143791Y0171103D01*
X0143759Y0170934D01*
X0143724Y0170766D01*
X0143684Y0170599D01*
X0143640Y0170433D01*
X0143593Y0170268D01*
X0143541Y0170104D01*
X0143485Y0169942D01*
X0143425Y0169781D01*
X0143361Y0169621D01*
X0143293Y0169463D01*
X0143222Y0169307D01*
X0143147Y0169153D01*
X0143067Y0169000D01*
X0142985Y0168850D01*
X0142898Y0168701D01*
X0142808Y0168555D01*
X0142714Y0168411D01*
X0142617Y0168269D01*
X0142516Y0168130D01*
X0142412Y0167993D01*
X0142305Y0167859D01*
X0142194Y0167728D01*
X0142081Y0167599D01*
X0141964Y0167473D01*
X0141844Y0167350D01*
X0141721Y0167230D01*
X0141595Y0167113D01*
X0141466Y0167000D01*
X0141335Y0166889D01*
X0141201Y0166782D01*
X0141064Y0166678D01*
X0140925Y0166577D01*
X0140783Y0166480D01*
X0140639Y0166386D01*
X0140493Y0166296D01*
X0140344Y0166209D01*
X0140194Y0166127D01*
X0140041Y0166047D01*
X0139887Y0165972D01*
X0139731Y0165901D01*
X0139573Y0165833D01*
X0139413Y0165769D01*
X0139252Y0165709D01*
X0139090Y0165653D01*
X0138926Y0165601D01*
X0138761Y0165554D01*
X0138595Y0165510D01*
X0138428Y0165470D01*
X0138260Y0165435D01*
X0138091Y0165403D01*
X0137921Y0165376D01*
X0137751Y0165353D01*
X0137580Y0165334D01*
X0137409Y0165319D01*
X0137237Y0165308D01*
X0137066Y0165302D01*
X0136894Y0165300D01*
X0136722Y0165302D01*
X0136551Y0165308D01*
X0136379Y0165319D01*
X0136208Y0165334D01*
X0136037Y0165353D01*
X0135867Y0165376D01*
X0135697Y0165403D01*
X0135528Y0165435D01*
X0135360Y0165470D01*
X0135193Y0165510D01*
X0135027Y0165554D01*
X0134862Y0165601D01*
X0134698Y0165653D01*
X0134536Y0165709D01*
X0134375Y0165769D01*
X0134215Y0165833D01*
X0134057Y0165901D01*
X0133901Y0165972D01*
X0133747Y0166047D01*
X0133594Y0166127D01*
X0133444Y0166209D01*
X0133295Y0166296D01*
X0133149Y0166386D01*
X0133005Y0166480D01*
X0132863Y0166577D01*
X0132724Y0166678D01*
X0132587Y0166782D01*
X0132453Y0166889D01*
X0132322Y0167000D01*
X0132193Y0167113D01*
X0132067Y0167230D01*
X0131944Y0167350D01*
X0131824Y0167473D01*
X0131707Y0167599D01*
X0131594Y0167728D01*
X0131483Y0167859D01*
X0131376Y0167993D01*
X0131272Y0168130D01*
X0131171Y0168269D01*
X0131074Y0168411D01*
X0130980Y0168555D01*
X0130890Y0168701D01*
X0130803Y0168850D01*
X0130721Y0169000D01*
X0130641Y0169153D01*
X0130566Y0169307D01*
X0130495Y0169463D01*
X0130427Y0169621D01*
X0130363Y0169781D01*
X0130303Y0169942D01*
X0130247Y0170104D01*
X0130195Y0170268D01*
X0130148Y0170433D01*
X0130104Y0170599D01*
X0130064Y0170766D01*
X0130029Y0170934D01*
X0129997Y0171103D01*
X0129970Y0171273D01*
X0129947Y0171443D01*
X0129928Y0171614D01*
X0129913Y0171785D01*
X0129902Y0171957D01*
X0129896Y0172128D01*
X0129894Y0172300D01*
X0138894Y0191300D02*
X0153894Y0191300D01*
X0156394Y0193800D01*
X0156394Y0198800D01*
X0153894Y0201300D01*
X0156394Y0203800D01*
X0156394Y0208800D01*
X0153894Y0211300D01*
X0156394Y0213800D01*
X0156394Y0218800D01*
X0153894Y0221300D01*
X0156394Y0223800D01*
X0156394Y0228800D01*
X0153894Y0231300D01*
X0156394Y0233800D01*
X0156394Y0238800D01*
X0153894Y0241300D01*
X0138894Y0241300D01*
X0136394Y0238800D01*
X0136394Y0233800D01*
X0138894Y0231300D01*
X0136394Y0228800D01*
X0136394Y0223800D01*
X0138894Y0221300D01*
X0136394Y0218800D01*
X0136394Y0213800D01*
X0138894Y0211300D01*
X0136394Y0208800D01*
X0136394Y0203800D01*
X0138894Y0201300D01*
X0136394Y0198800D01*
X0136394Y0193800D01*
X0138894Y0191300D01*
X0101394Y0246300D02*
X0101397Y0246545D01*
X0101406Y0246791D01*
X0101421Y0247036D01*
X0101442Y0247280D01*
X0101469Y0247524D01*
X0101502Y0247767D01*
X0101541Y0248010D01*
X0101586Y0248251D01*
X0101637Y0248491D01*
X0101694Y0248730D01*
X0101756Y0248967D01*
X0101825Y0249203D01*
X0101899Y0249437D01*
X0101979Y0249669D01*
X0102064Y0249899D01*
X0102155Y0250127D01*
X0102252Y0250352D01*
X0102354Y0250576D01*
X0102462Y0250796D01*
X0102575Y0251014D01*
X0102693Y0251229D01*
X0102817Y0251441D01*
X0102945Y0251650D01*
X0103079Y0251856D01*
X0103218Y0252058D01*
X0103362Y0252257D01*
X0103511Y0252452D01*
X0103664Y0252644D01*
X0103822Y0252832D01*
X0103984Y0253016D01*
X0104152Y0253195D01*
X0104323Y0253371D01*
X0104499Y0253542D01*
X0104678Y0253710D01*
X0104862Y0253872D01*
X0105050Y0254030D01*
X0105242Y0254183D01*
X0105437Y0254332D01*
X0105636Y0254476D01*
X0105838Y0254615D01*
X0106044Y0254749D01*
X0106253Y0254877D01*
X0106465Y0255001D01*
X0106680Y0255119D01*
X0106898Y0255232D01*
X0107118Y0255340D01*
X0107342Y0255442D01*
X0107567Y0255539D01*
X0107795Y0255630D01*
X0108025Y0255715D01*
X0108257Y0255795D01*
X0108491Y0255869D01*
X0108727Y0255938D01*
X0108964Y0256000D01*
X0109203Y0256057D01*
X0109443Y0256108D01*
X0109684Y0256153D01*
X0109927Y0256192D01*
X0110170Y0256225D01*
X0110414Y0256252D01*
X0110658Y0256273D01*
X0110903Y0256288D01*
X0111149Y0256297D01*
X0111394Y0256300D01*
X0111639Y0256297D01*
X0111885Y0256288D01*
X0112130Y0256273D01*
X0112374Y0256252D01*
X0112618Y0256225D01*
X0112861Y0256192D01*
X0113104Y0256153D01*
X0113345Y0256108D01*
X0113585Y0256057D01*
X0113824Y0256000D01*
X0114061Y0255938D01*
X0114297Y0255869D01*
X0114531Y0255795D01*
X0114763Y0255715D01*
X0114993Y0255630D01*
X0115221Y0255539D01*
X0115446Y0255442D01*
X0115670Y0255340D01*
X0115890Y0255232D01*
X0116108Y0255119D01*
X0116323Y0255001D01*
X0116535Y0254877D01*
X0116744Y0254749D01*
X0116950Y0254615D01*
X0117152Y0254476D01*
X0117351Y0254332D01*
X0117546Y0254183D01*
X0117738Y0254030D01*
X0117926Y0253872D01*
X0118110Y0253710D01*
X0118289Y0253542D01*
X0118465Y0253371D01*
X0118636Y0253195D01*
X0118804Y0253016D01*
X0118966Y0252832D01*
X0119124Y0252644D01*
X0119277Y0252452D01*
X0119426Y0252257D01*
X0119570Y0252058D01*
X0119709Y0251856D01*
X0119843Y0251650D01*
X0119971Y0251441D01*
X0120095Y0251229D01*
X0120213Y0251014D01*
X0120326Y0250796D01*
X0120434Y0250576D01*
X0120536Y0250352D01*
X0120633Y0250127D01*
X0120724Y0249899D01*
X0120809Y0249669D01*
X0120889Y0249437D01*
X0120963Y0249203D01*
X0121032Y0248967D01*
X0121094Y0248730D01*
X0121151Y0248491D01*
X0121202Y0248251D01*
X0121247Y0248010D01*
X0121286Y0247767D01*
X0121319Y0247524D01*
X0121346Y0247280D01*
X0121367Y0247036D01*
X0121382Y0246791D01*
X0121391Y0246545D01*
X0121394Y0246300D01*
X0121391Y0246055D01*
X0121382Y0245809D01*
X0121367Y0245564D01*
X0121346Y0245320D01*
X0121319Y0245076D01*
X0121286Y0244833D01*
X0121247Y0244590D01*
X0121202Y0244349D01*
X0121151Y0244109D01*
X0121094Y0243870D01*
X0121032Y0243633D01*
X0120963Y0243397D01*
X0120889Y0243163D01*
X0120809Y0242931D01*
X0120724Y0242701D01*
X0120633Y0242473D01*
X0120536Y0242248D01*
X0120434Y0242024D01*
X0120326Y0241804D01*
X0120213Y0241586D01*
X0120095Y0241371D01*
X0119971Y0241159D01*
X0119843Y0240950D01*
X0119709Y0240744D01*
X0119570Y0240542D01*
X0119426Y0240343D01*
X0119277Y0240148D01*
X0119124Y0239956D01*
X0118966Y0239768D01*
X0118804Y0239584D01*
X0118636Y0239405D01*
X0118465Y0239229D01*
X0118289Y0239058D01*
X0118110Y0238890D01*
X0117926Y0238728D01*
X0117738Y0238570D01*
X0117546Y0238417D01*
X0117351Y0238268D01*
X0117152Y0238124D01*
X0116950Y0237985D01*
X0116744Y0237851D01*
X0116535Y0237723D01*
X0116323Y0237599D01*
X0116108Y0237481D01*
X0115890Y0237368D01*
X0115670Y0237260D01*
X0115446Y0237158D01*
X0115221Y0237061D01*
X0114993Y0236970D01*
X0114763Y0236885D01*
X0114531Y0236805D01*
X0114297Y0236731D01*
X0114061Y0236662D01*
X0113824Y0236600D01*
X0113585Y0236543D01*
X0113345Y0236492D01*
X0113104Y0236447D01*
X0112861Y0236408D01*
X0112618Y0236375D01*
X0112374Y0236348D01*
X0112130Y0236327D01*
X0111885Y0236312D01*
X0111639Y0236303D01*
X0111394Y0236300D01*
X0111149Y0236303D01*
X0110903Y0236312D01*
X0110658Y0236327D01*
X0110414Y0236348D01*
X0110170Y0236375D01*
X0109927Y0236408D01*
X0109684Y0236447D01*
X0109443Y0236492D01*
X0109203Y0236543D01*
X0108964Y0236600D01*
X0108727Y0236662D01*
X0108491Y0236731D01*
X0108257Y0236805D01*
X0108025Y0236885D01*
X0107795Y0236970D01*
X0107567Y0237061D01*
X0107342Y0237158D01*
X0107118Y0237260D01*
X0106898Y0237368D01*
X0106680Y0237481D01*
X0106465Y0237599D01*
X0106253Y0237723D01*
X0106044Y0237851D01*
X0105838Y0237985D01*
X0105636Y0238124D01*
X0105437Y0238268D01*
X0105242Y0238417D01*
X0105050Y0238570D01*
X0104862Y0238728D01*
X0104678Y0238890D01*
X0104499Y0239058D01*
X0104323Y0239229D01*
X0104152Y0239405D01*
X0103984Y0239584D01*
X0103822Y0239768D01*
X0103664Y0239956D01*
X0103511Y0240148D01*
X0103362Y0240343D01*
X0103218Y0240542D01*
X0103079Y0240744D01*
X0102945Y0240950D01*
X0102817Y0241159D01*
X0102693Y0241371D01*
X0102575Y0241586D01*
X0102462Y0241804D01*
X0102354Y0242024D01*
X0102252Y0242248D01*
X0102155Y0242473D01*
X0102064Y0242701D01*
X0101979Y0242931D01*
X0101899Y0243163D01*
X0101825Y0243397D01*
X0101756Y0243633D01*
X0101694Y0243870D01*
X0101637Y0244109D01*
X0101586Y0244349D01*
X0101541Y0244590D01*
X0101502Y0244833D01*
X0101469Y0245076D01*
X0101442Y0245320D01*
X0101421Y0245564D01*
X0101406Y0245809D01*
X0101397Y0246055D01*
X0101394Y0246300D01*
X0106394Y0253300D02*
X0108394Y0253300D01*
X0107394Y0252300D02*
X0107394Y0254300D01*
X0081394Y0248800D02*
X0081394Y0243800D01*
X0078894Y0241300D01*
X0073894Y0241300D01*
X0071394Y0243800D01*
X0068894Y0241300D01*
X0063894Y0241300D01*
X0061394Y0243800D01*
X0058894Y0241300D01*
X0053894Y0241300D01*
X0051394Y0243800D01*
X0048894Y0241300D01*
X0043894Y0241300D01*
X0041394Y0243800D01*
X0041394Y0248800D01*
X0043894Y0251300D01*
X0048894Y0251300D01*
X0051394Y0248800D01*
X0053894Y0251300D01*
X0058894Y0251300D01*
X0061394Y0248800D01*
X0063894Y0251300D01*
X0068894Y0251300D01*
X0071394Y0248800D01*
X0073894Y0251300D01*
X0078894Y0251300D01*
X0081394Y0248800D01*
X0148894Y0096300D02*
X0153894Y0096300D01*
X0156394Y0093800D01*
X0156394Y0088800D01*
X0153894Y0086300D01*
X0156394Y0083800D01*
X0156394Y0078800D01*
X0153894Y0076300D01*
X0156394Y0073800D01*
X0156394Y0068800D01*
X0153894Y0066300D01*
X0156394Y0063800D01*
X0156394Y0058800D01*
X0153894Y0056300D01*
X0156394Y0053800D01*
X0156394Y0048800D01*
X0153894Y0046300D01*
X0148894Y0046300D01*
X0146394Y0048800D01*
X0146394Y0053800D01*
X0148894Y0056300D01*
X0146394Y0058800D01*
X0146394Y0063800D01*
X0148894Y0066300D01*
X0146394Y0068800D01*
X0146394Y0073800D01*
X0148894Y0076300D01*
X0146394Y0078800D01*
X0146394Y0083800D01*
X0148894Y0086300D01*
X0146394Y0088800D01*
X0146394Y0093800D01*
X0148894Y0096300D01*
M02*
