G75*
%MOIN*%
%OFA0B0*%
%FSLAX25Y25*%
%IPPOS*%
%LPD*%
%AMOC8*
5,1,8,0,0,1.08239X$1,22.5*
%
%ADD10R,0.20000X0.25000*%
%ADD11R,0.20000X0.10000*%
%ADD12R,0.02400X0.06000*%
%ADD13R,0.04331X0.03937*%
%ADD14R,0.04724X0.07874*%
%ADD15R,0.07874X0.04724*%
%ADD16R,0.03937X0.04331*%
%ADD17R,0.11811X0.11811*%
%ADD18C,0.10000*%
%ADD19OC8,0.05200*%
%ADD20C,0.06000*%
%ADD21OC8,0.06000*%
%ADD22C,0.05200*%
%ADD23C,0.00600*%
%ADD24C,0.04159*%
%ADD25C,0.02400*%
%ADD26C,0.01600*%
%ADD27C,0.02978*%
D10*
X0036394Y0083800D03*
X0066394Y0088800D03*
X0096394Y0093800D03*
X0126394Y0098800D03*
D11*
X0131394Y0121300D03*
X0101394Y0116300D03*
X0071394Y0111300D03*
X0041394Y0106300D03*
D12*
X0038894Y0107100D03*
X0043894Y0107100D03*
X0033894Y0107100D03*
X0028894Y0107100D03*
X0028894Y0085500D03*
X0033894Y0085500D03*
X0038894Y0085500D03*
X0043894Y0085500D03*
X0058894Y0090500D03*
X0063894Y0090500D03*
X0068894Y0090500D03*
X0073894Y0090500D03*
X0073894Y0112100D03*
X0068894Y0112100D03*
X0063894Y0112100D03*
X0058894Y0112100D03*
X0088894Y0117100D03*
X0093894Y0117100D03*
X0098894Y0117100D03*
X0103894Y0117100D03*
X0118894Y0122100D03*
X0123894Y0122100D03*
X0128894Y0122100D03*
X0133894Y0122100D03*
X0133894Y0100500D03*
X0128894Y0100500D03*
X0123894Y0100500D03*
X0118894Y0100500D03*
X0103894Y0095500D03*
X0098894Y0095500D03*
X0093894Y0095500D03*
X0088894Y0095500D03*
D13*
X0086394Y0127954D03*
X0086394Y0134646D03*
X0076394Y0134646D03*
X0076394Y0127954D03*
X0066394Y0127954D03*
X0066394Y0134646D03*
X0056394Y0134646D03*
X0056394Y0127954D03*
X0046394Y0127954D03*
X0046394Y0134646D03*
X0100894Y0219454D03*
X0100894Y0226146D03*
X0091394Y0232954D03*
X0091394Y0239646D03*
X0126394Y0204646D03*
X0126394Y0197954D03*
X0111394Y0154646D03*
X0111394Y0147954D03*
D14*
X0088520Y0146300D03*
X0080646Y0146300D03*
X0072772Y0146300D03*
X0064898Y0146300D03*
X0057024Y0146300D03*
X0049150Y0146300D03*
X0041276Y0146300D03*
X0033402Y0146300D03*
X0033402Y0210080D03*
X0041276Y0210080D03*
X0049150Y0210080D03*
X0057024Y0210080D03*
X0064898Y0210080D03*
X0072772Y0210080D03*
X0080646Y0210080D03*
X0088520Y0210080D03*
D15*
X0096394Y0197481D03*
X0096394Y0189607D03*
X0096394Y0181733D03*
X0096394Y0173859D03*
X0096394Y0165985D03*
X0096394Y0158111D03*
D16*
X0108047Y0201300D03*
X0114740Y0201300D03*
X0114740Y0211300D03*
X0108047Y0211300D03*
X0079740Y0221300D03*
X0073047Y0221300D03*
D17*
X0103429Y0053426D03*
X0103429Y0013269D03*
X0038862Y0013269D03*
X0038862Y0052639D03*
D18*
X0129504Y0021300D03*
X0143283Y0021300D03*
D19*
X0146394Y0133800D03*
X0151394Y0141300D03*
X0141394Y0141300D03*
X0115394Y0246300D03*
X0027394Y0066300D03*
D20*
X0121094Y0163400D02*
X0127094Y0163400D01*
X0127094Y0181200D02*
X0121094Y0181200D01*
X0146694Y0181200D02*
X0152694Y0181200D01*
X0152694Y0163400D02*
X0146694Y0163400D01*
X0148394Y0091300D02*
X0154394Y0091300D01*
X0154394Y0081300D02*
X0148394Y0081300D01*
X0148394Y0071300D02*
X0154394Y0071300D01*
X0154394Y0061300D02*
X0148394Y0061300D01*
X0148394Y0051300D02*
X0154394Y0051300D01*
X0076394Y0243300D02*
X0076394Y0249300D01*
X0066394Y0249300D02*
X0066394Y0243300D01*
X0056394Y0243300D02*
X0056394Y0249300D01*
X0046394Y0249300D02*
X0046394Y0243300D01*
D21*
X0141394Y0236300D03*
X0141394Y0226300D03*
X0141394Y0216300D03*
X0141394Y0206300D03*
X0141394Y0196300D03*
X0151394Y0196300D03*
X0151394Y0206300D03*
X0151394Y0216300D03*
X0151394Y0226300D03*
X0151394Y0236300D03*
D22*
X0107394Y0246300D03*
X0035394Y0066300D03*
D23*
X0037732Y0056300D02*
X0041394Y0052639D01*
X0038862Y0052639D02*
X0035394Y0066300D01*
X0028894Y0107100D02*
X0031394Y0116300D01*
X0051394Y0116300D01*
X0056394Y0121300D01*
X0056394Y0127954D01*
X0056394Y0134646D02*
X0056594Y0139700D01*
X0056594Y0145900D01*
X0057024Y0146300D01*
X0057326Y0146300D01*
X0064898Y0146300D02*
X0064994Y0145900D01*
X0066194Y0144700D01*
X0066194Y0139700D01*
X0066394Y0134646D01*
X0066394Y0127954D02*
X0066394Y0121300D01*
X0058894Y0115800D01*
X0058894Y0112100D01*
X0046394Y0121300D02*
X0046394Y0127954D01*
X0046394Y0134646D02*
X0049150Y0137402D01*
X0049150Y0146300D01*
X0048794Y0145900D01*
X0072772Y0146300D02*
X0072794Y0145900D01*
X0072894Y0141300D01*
X0076394Y0134646D01*
X0080994Y0141600D02*
X0081194Y0145900D01*
X0080646Y0146300D01*
X0080994Y0141600D02*
X0085994Y0138200D01*
X0086394Y0134646D01*
X0086394Y0127954D02*
X0091394Y0126300D01*
X0118894Y0126300D01*
X0118894Y0122100D01*
X0116394Y0131300D02*
X0141394Y0131300D01*
X0143894Y0133800D01*
X0146394Y0133800D01*
X0116394Y0131300D02*
X0111394Y0136300D01*
X0111394Y0147954D01*
X0111394Y0154646D02*
X0111394Y0176300D01*
X0106394Y0181300D01*
X0096394Y0181733D01*
X0098235Y0175700D02*
X0096394Y0173859D01*
X0096194Y0174100D01*
X0098235Y0175700D02*
X0103994Y0175700D01*
X0111394Y0191300D02*
X0121494Y0181200D01*
X0126394Y0181200D01*
X0149694Y0181200D01*
X0126394Y0181200D02*
X0124094Y0181200D01*
X0111394Y0191300D02*
X0111394Y0197954D01*
X0108047Y0201300D01*
X0066394Y0201300D01*
X0064898Y0210080D01*
X0057024Y0210080D02*
X0057024Y0216430D01*
X0066394Y0226300D01*
X0091394Y0226300D01*
X0100894Y0226146D01*
X0106394Y0226300D01*
X0141394Y0226300D01*
X0146394Y0231300D02*
X0093047Y0231300D01*
X0064894Y0231300D01*
X0049394Y0215800D01*
X0049150Y0211556D01*
X0049150Y0210080D01*
X0041594Y0210100D02*
X0041276Y0210080D01*
X0041594Y0210100D02*
X0041594Y0216200D01*
X0046194Y0221300D01*
X0061394Y0241300D01*
X0066394Y0246300D01*
X0076394Y0246300D02*
X0086394Y0246300D01*
X0091394Y0239646D01*
X0096394Y0246300D01*
X0107394Y0246300D01*
X0093047Y0231300D02*
X0091394Y0232954D01*
X0086394Y0221300D02*
X0079740Y0221300D01*
X0081394Y0216300D02*
X0096394Y0216300D01*
X0101394Y0211300D01*
X0108047Y0211300D01*
X0111394Y0206300D02*
X0114740Y0211300D01*
X0111394Y0206300D02*
X0101394Y0206300D01*
X0100894Y0219454D02*
X0101394Y0221300D01*
X0088520Y0210080D02*
X0088394Y0210100D01*
X0081394Y0210828D02*
X0081394Y0216300D01*
X0081194Y0212500D02*
X0081194Y0211300D01*
X0081394Y0211500D01*
X0081194Y0211300D02*
X0081194Y0210100D01*
X0080646Y0210080D01*
X0081394Y0210828D01*
X0073047Y0210355D02*
X0072772Y0210080D01*
X0073047Y0210355D02*
X0073047Y0221300D01*
X0056394Y0246300D02*
X0035994Y0221300D01*
X0033794Y0216100D01*
X0033794Y0210100D01*
X0033402Y0210080D01*
X0088520Y0146300D02*
X0088994Y0146500D01*
X0088520Y0146300D02*
X0088994Y0145900D01*
X0076394Y0127954D02*
X0081394Y0121300D01*
X0088894Y0121300D01*
X0088894Y0117100D01*
X0114740Y0201300D02*
X0121394Y0201300D01*
X0124903Y0204809D01*
X0126887Y0204809D01*
X0151394Y0226300D02*
X0146394Y0231300D01*
D24*
X0101394Y0206300D03*
X0086394Y0221300D03*
X0086394Y0156300D03*
X0106394Y0121300D03*
X0136394Y0126300D03*
X0081394Y0051300D03*
X0094394Y0011300D03*
X0048894Y0013300D03*
X0046394Y0111300D03*
X0076394Y0116300D03*
D25*
X0073894Y0113800D01*
X0073894Y0112100D01*
X0076394Y0116300D02*
X0071394Y0116300D01*
X0068894Y0113800D01*
X0068894Y0112100D01*
X0066394Y0114600D02*
X0063894Y0112100D01*
X0066394Y0114600D02*
X0066394Y0116300D01*
X0071394Y0116300D01*
X0073894Y0090500D02*
X0073894Y0088800D01*
X0076394Y0086300D01*
X0071394Y0086300D01*
X0066394Y0086300D01*
X0061394Y0086300D01*
X0058894Y0088800D01*
X0058894Y0090500D01*
X0063894Y0090500D02*
X0063894Y0088800D01*
X0066394Y0086300D01*
X0068894Y0088800D02*
X0071394Y0086300D01*
X0068894Y0088800D02*
X0068894Y0090500D01*
X0076394Y0086300D02*
X0076394Y0076300D01*
X0081394Y0071300D01*
X0151394Y0071300D01*
X0151394Y0081300D02*
X0106394Y0081300D01*
X0106394Y0091300D01*
X0101394Y0091300D01*
X0096394Y0091300D01*
X0091394Y0091300D01*
X0088894Y0093800D01*
X0088894Y0095500D01*
X0093894Y0095500D02*
X0093894Y0093800D01*
X0096394Y0091300D01*
X0098894Y0093800D02*
X0098894Y0095500D01*
X0098894Y0093800D02*
X0101394Y0091300D01*
X0103894Y0093800D02*
X0103894Y0095500D01*
X0103894Y0093800D02*
X0106394Y0091300D01*
X0118894Y0098800D02*
X0121394Y0096300D01*
X0126394Y0096300D01*
X0131394Y0096300D01*
X0136394Y0096300D01*
X0136394Y0091300D01*
X0151394Y0091300D01*
X0136394Y0096300D02*
X0133894Y0098800D01*
X0133894Y0100500D01*
X0131394Y0096300D02*
X0128894Y0098800D01*
X0128894Y0100500D01*
X0126394Y0096300D02*
X0123894Y0098800D01*
X0123894Y0100500D01*
X0118894Y0100500D02*
X0118894Y0098800D01*
X0103894Y0117100D02*
X0103894Y0118800D01*
X0106394Y0121300D01*
X0101394Y0121300D01*
X0098894Y0118800D01*
X0098894Y0117100D01*
X0096394Y0119600D02*
X0096394Y0121300D01*
X0101394Y0121300D01*
X0096394Y0119600D02*
X0093894Y0117100D01*
X0123894Y0122100D02*
X0128094Y0126300D01*
X0131394Y0126300D01*
X0128894Y0123800D01*
X0128894Y0122100D01*
X0131394Y0126300D02*
X0136394Y0126300D01*
X0133894Y0123800D01*
X0133894Y0122100D01*
X0111394Y0066300D02*
X0116394Y0061300D01*
X0151394Y0061300D01*
X0151394Y0051300D02*
X0131394Y0051300D01*
X0131394Y0031300D01*
X0129504Y0021300D01*
X0131394Y0051300D02*
X0111394Y0051300D01*
X0103429Y0053426D01*
X0111394Y0066300D02*
X0051394Y0066300D01*
X0046394Y0071300D01*
X0046394Y0081300D01*
X0041394Y0081300D01*
X0036394Y0081300D01*
X0031394Y0081300D01*
X0028894Y0083800D01*
X0028894Y0085500D01*
X0033894Y0085500D02*
X0033894Y0083800D01*
X0036394Y0081300D01*
X0038894Y0083800D02*
X0041394Y0081300D01*
X0038894Y0083800D02*
X0038894Y0085500D01*
X0043894Y0085500D02*
X0043894Y0083800D01*
X0046394Y0081300D01*
X0043894Y0107100D02*
X0043894Y0108800D01*
X0046394Y0111300D01*
X0041394Y0111300D01*
X0038894Y0108800D01*
X0038894Y0107100D01*
X0036394Y0109600D02*
X0033894Y0107100D01*
X0036394Y0109600D02*
X0036394Y0111300D01*
X0041394Y0111300D01*
X0041394Y0052639D02*
X0038862Y0052639D01*
X0041394Y0052639D02*
X0045232Y0051139D01*
X0081394Y0051300D01*
X0103429Y0013269D02*
X0105961Y0011300D01*
X0094394Y0011300D01*
X0048894Y0013300D02*
X0039425Y0013269D01*
X0038862Y0013269D01*
D26*
X0103429Y0053426D02*
X0106394Y0056300D01*
X0151394Y0141300D02*
X0161394Y0146300D01*
X0161394Y0191300D01*
X0151394Y0196300D01*
X0141394Y0196300D02*
X0131394Y0196300D01*
X0126394Y0197954D01*
X0126394Y0204646D02*
X0126887Y0204809D01*
X0131394Y0206300D01*
X0141394Y0206300D01*
X0141394Y0216300D02*
X0131394Y0221300D01*
X0101394Y0221300D01*
X0086394Y0221300D01*
X0088520Y0210080D02*
X0091394Y0206300D01*
X0101394Y0206300D01*
X0086394Y0156300D02*
X0086394Y0149100D01*
X0088994Y0146500D01*
D27*
X0103994Y0175700D03*
X0046394Y0121300D03*
M02*
