%
M48
M72
T01C0.01378
T02C0.02559
T03C0.03150
T04C0.03200
T05C0.03937
T06C0.04000
%
T01
X46394Y121300
X103994Y175700
T02
X86394Y156300
X106394Y121300
X136394Y126300
X101394Y206300
X86394Y221300
X76394Y116300
X46394Y111300
X81394Y51300
X94394Y11300
X48894Y13300
T03
X129504Y21300
X143283Y21300
T04
X146394Y133800
X151394Y141300
X141394Y141300
X115394Y246300
X107394Y246300
X35394Y66300
X27394Y66300
T05
X26394Y11300
X161394Y11300
X161394Y251300
X26394Y251300
T06
X46394Y246300
X56394Y246300
X66394Y246300
X76394Y246300
X124094Y181200
X124094Y163400
X141394Y196300
X141394Y206300
X141394Y216300
X141394Y226300
X141394Y236300
X151394Y236300
X151394Y226300
X151394Y216300
X151394Y206300
X151394Y196300
X149694Y181200
X149694Y163400
X151394Y91300
X151394Y81300
X151394Y71300
X151394Y61300
X151394Y51300
M30
