G75*
%MOIN*%
%OFA0B0*%
%FSLAX25Y25*%
%IPPOS*%
%LPD*%
%AMOC8*
5,1,8,0,0,1.08239X$1,22.5*
%
%ADD10C,0.04737*%
%ADD11R,0.03200X0.06800*%
%ADD12R,0.05131X0.04737*%
%ADD13R,0.05524X0.08674*%
%ADD14R,0.08674X0.05524*%
%ADD15R,0.04737X0.05131*%
%ADD16R,0.12611X0.12611*%
%ADD17C,0.10800*%
%ADD18OC8,0.06000*%
%ADD19C,0.06800*%
%ADD20OC8,0.06800*%
%ADD21C,0.06000*%
%ADD22C,0.04959*%
%ADD23C,0.03778*%
D10*
X0026394Y0011300D03*
X0161394Y0011300D03*
X0161394Y0251300D03*
X0026394Y0251300D03*
D11*
X0088894Y0117100D03*
X0093894Y0117100D03*
X0098894Y0117100D03*
X0103894Y0117100D03*
X0118894Y0122100D03*
X0123894Y0122100D03*
X0128894Y0122100D03*
X0133894Y0122100D03*
X0133894Y0100500D03*
X0128894Y0100500D03*
X0123894Y0100500D03*
X0118894Y0100500D03*
X0103894Y0095500D03*
X0098894Y0095500D03*
X0093894Y0095500D03*
X0088894Y0095500D03*
X0073894Y0090500D03*
X0068894Y0090500D03*
X0063894Y0090500D03*
X0058894Y0090500D03*
X0058894Y0112100D03*
X0063894Y0112100D03*
X0068894Y0112100D03*
X0073894Y0112100D03*
X0043894Y0107100D03*
X0038894Y0107100D03*
X0033894Y0107100D03*
X0028894Y0107100D03*
X0028894Y0085500D03*
X0033894Y0085500D03*
X0038894Y0085500D03*
X0043894Y0085500D03*
D12*
X0046394Y0127954D03*
X0046394Y0134646D03*
X0056394Y0134646D03*
X0056394Y0127954D03*
X0066394Y0127954D03*
X0066394Y0134646D03*
X0076394Y0134646D03*
X0076394Y0127954D03*
X0086394Y0127954D03*
X0086394Y0134646D03*
X0111394Y0147954D03*
X0111394Y0154646D03*
X0126394Y0197954D03*
X0126394Y0204646D03*
X0100894Y0219454D03*
X0100894Y0226146D03*
X0091394Y0232954D03*
X0091394Y0239646D03*
D13*
X0088520Y0210080D03*
X0080646Y0210080D03*
X0072772Y0210080D03*
X0064898Y0210080D03*
X0057024Y0210080D03*
X0049150Y0210080D03*
X0041276Y0210080D03*
X0033402Y0210080D03*
X0033402Y0146300D03*
X0041276Y0146300D03*
X0049150Y0146300D03*
X0057024Y0146300D03*
X0064898Y0146300D03*
X0072772Y0146300D03*
X0080646Y0146300D03*
X0088520Y0146300D03*
D14*
X0096394Y0158111D03*
X0096394Y0165985D03*
X0096394Y0173859D03*
X0096394Y0181733D03*
X0096394Y0189607D03*
X0096394Y0197481D03*
D15*
X0108047Y0201300D03*
X0114740Y0201300D03*
X0114740Y0211300D03*
X0108047Y0211300D03*
X0079740Y0221300D03*
X0073047Y0221300D03*
D16*
X0103429Y0053426D03*
X0103429Y0013269D03*
X0038862Y0013269D03*
X0038862Y0052639D03*
D17*
X0129504Y0021300D03*
X0143283Y0021300D03*
D18*
X0146394Y0133800D03*
X0151394Y0141300D03*
X0141394Y0141300D03*
X0115394Y0246300D03*
X0027394Y0066300D03*
D19*
X0121094Y0163400D02*
X0127094Y0163400D01*
X0127094Y0181200D02*
X0121094Y0181200D01*
X0146694Y0181200D02*
X0152694Y0181200D01*
X0152694Y0163400D02*
X0146694Y0163400D01*
X0148394Y0091300D02*
X0154394Y0091300D01*
X0154394Y0081300D02*
X0148394Y0081300D01*
X0148394Y0071300D02*
X0154394Y0071300D01*
X0154394Y0061300D02*
X0148394Y0061300D01*
X0148394Y0051300D02*
X0154394Y0051300D01*
X0076394Y0243300D02*
X0076394Y0249300D01*
X0066394Y0249300D02*
X0066394Y0243300D01*
X0056394Y0243300D02*
X0056394Y0249300D01*
X0046394Y0249300D02*
X0046394Y0243300D01*
D20*
X0141394Y0236300D03*
X0141394Y0226300D03*
X0141394Y0216300D03*
X0141394Y0206300D03*
X0141394Y0196300D03*
X0151394Y0196300D03*
X0151394Y0206300D03*
X0151394Y0216300D03*
X0151394Y0226300D03*
X0151394Y0236300D03*
D21*
X0107394Y0246300D03*
X0035394Y0066300D03*
D22*
X0046394Y0111300D03*
X0076394Y0116300D03*
X0086394Y0156300D03*
X0106394Y0121300D03*
X0136394Y0126300D03*
X0101394Y0206300D03*
X0086394Y0221300D03*
X0081394Y0051300D03*
X0094394Y0011300D03*
X0048894Y0013300D03*
D23*
X0046394Y0121300D03*
X0103994Y0175700D03*
M02*
