G75*
%MOIN*%
%OFA0B0*%
%FSLAX25Y25*%
%IPPOS*%
%LPD*%
%AMOC8*
5,1,8,0,0,1.08239X$1,22.5*
%
%ADD10C,0.04737*%
%ADD11C,0.10800*%
%ADD12OC8,0.06000*%
%ADD13C,0.06800*%
%ADD14OC8,0.06800*%
%ADD15C,0.06000*%
%ADD16C,0.04959*%
%ADD17C,0.03778*%
D10*
X0026394Y0011300D03*
X0161394Y0011300D03*
X0161394Y0251300D03*
X0026394Y0251300D03*
D11*
X0129504Y0021300D03*
X0143283Y0021300D03*
D12*
X0146394Y0133800D03*
X0151394Y0141300D03*
X0141394Y0141300D03*
X0115394Y0246300D03*
X0027394Y0066300D03*
D13*
X0121094Y0163400D02*
X0127094Y0163400D01*
X0127094Y0181200D02*
X0121094Y0181200D01*
X0146694Y0181200D02*
X0152694Y0181200D01*
X0152694Y0163400D02*
X0146694Y0163400D01*
X0148394Y0091300D02*
X0154394Y0091300D01*
X0154394Y0081300D02*
X0148394Y0081300D01*
X0148394Y0071300D02*
X0154394Y0071300D01*
X0154394Y0061300D02*
X0148394Y0061300D01*
X0148394Y0051300D02*
X0154394Y0051300D01*
X0076394Y0243300D02*
X0076394Y0249300D01*
X0066394Y0249300D02*
X0066394Y0243300D01*
X0056394Y0243300D02*
X0056394Y0249300D01*
X0046394Y0249300D02*
X0046394Y0243300D01*
D14*
X0141394Y0236300D03*
X0141394Y0226300D03*
X0141394Y0216300D03*
X0141394Y0206300D03*
X0141394Y0196300D03*
X0151394Y0196300D03*
X0151394Y0206300D03*
X0151394Y0216300D03*
X0151394Y0226300D03*
X0151394Y0236300D03*
D15*
X0107394Y0246300D03*
X0035394Y0066300D03*
D16*
X0046394Y0111300D03*
X0076394Y0116300D03*
X0086394Y0156300D03*
X0106394Y0121300D03*
X0136394Y0126300D03*
X0101394Y0206300D03*
X0086394Y0221300D03*
X0081394Y0051300D03*
X0094394Y0011300D03*
X0048894Y0013300D03*
D17*
X0046394Y0121300D03*
X0103994Y0175700D03*
M02*
